<?xml version="1.0" encoding="utf-8"?>
<!-- Generator: Adobe Illustrator 24.0.0, SVG Export Plug-In . SVG Version: 6.00 Build 0)  -->
<svg version="1.1" id="图层_1" xmlns="http://www.w3.org/2000/svg" xmlns:xlink="http://www.w3.org/1999/xlink" x="0px" y="0px"
	 viewBox="0 0 59 59" style="enable-background:new 0 0 59 59;" xml:space="preserve">
<style type="text/css">
	.st0{fill:#FFFFFF;}
</style>
<g>
	<path class="st0" d="M19,42.5c0.1,0.1,0.2,0.2,0.2,0.3v9.5c0,0.6,0.5,1,1,1h10.3c0.6,0,1-0.5,1-1v-9.5c0-0.1,0.1-0.3,0.2-0.3
		c0.8-0.4,1.4-1.2,1.4-2.2v-8c0-2.1-0.8-4.1-2.4-5.6c-0.5-0.5-1.1-0.9-1.8-1.3c1.7-1.2,2.9-3.1,2.9-5.4c0-3.6-2.9-6.5-6.5-6.5
		s-6.5,2.9-6.5,6.5c0,2.2,1.1,4.2,2.9,5.4c-2.5,1.3-4.2,4-4.2,7v7.8C17.6,41.3,18.1,42.1,19,42.5z M25.4,15.7c2.5,0,4.5,2,4.5,4.5
		c0,2.5-2,4.5-4.5,4.5s-4.5-2-4.5-4.5C20.9,17.7,22.9,15.7,25.4,15.7z M19.6,32.5c0-3.1,2.5-5.8,5.5-5.9c1.6-0.1,3.1,0.5,4.2,1.6
		c1.1,1.1,1.8,2.6,1.8,4.1v8c0,0.1-0.1,0.3-0.2,0.3c-0.8,0.4-1.4,1.2-1.4,2.2v8.4h-8.3v-8.4c0-0.9-0.5-1.8-1.4-2.2
		c-0.1-0.1-0.2-0.2-0.2-0.3V32.5z"/>
	<path class="st0" d="M49.8,24.4c-0.2,0-0.4,0-0.7,0C45.4,14.6,35.9,8,25.4,8C11.3,8-0.1,19.5-0.1,33.5s11.4,25.4,25.4,25.4
		c10.6,0,20-6.5,23.8-16.3c0.2,0,0.4,0,0.7,0c5,0,9.1-4.1,9.1-9.1S54.8,24.4,49.8,24.4z M25.4,56.9c-12.9,0-23.4-10.5-23.4-23.4
		s10.5-23.4,23.4-23.4c9.6,0,18.2,5.9,21.8,14.7c-3.8,1.2-6.4,4.6-6.4,8.7c0,4.1,2.6,7.6,6.4,8.7C43.6,51,35,56.9,25.4,56.9z
		 M49.8,40.6c-0.4,0-0.8,0-1.2-0.1c-3.4-0.6-5.9-3.5-5.9-7c0-3.5,2.5-6.4,5.9-7c0.4-0.1,0.8-0.1,1.2-0.1c3.9,0,7.1,3.2,7.1,7.1
		S53.7,40.6,49.8,40.6z"/>
	<g>
		<path class="st0" d="M51.8,2.1c2.8,0,5.1,2.3,5.1,5.1c0,2.8-2.3,5.1-5.1,5.1c-0.3,0-0.6,0-0.8-0.1c-2.5-0.4-4.3-2.5-4.3-5
			c0-2.5,1.8-4.6,4.3-5C51.2,2.1,51.5,2.1,51.8,2.1 M51.8,0.1c-0.4,0-0.8,0-1.2,0.1c-3.4,0.6-5.9,3.5-5.9,7c0,3.5,2.5,6.4,5.9,7
			c0.4,0.1,0.8,0.1,1.2,0.1c3.9,0,7.1-3.2,7.1-7.1C58.9,3.3,55.7,0.1,51.8,0.1L51.8,0.1z"/>
	</g>
	<g>
		<path class="st0" d="M4.9,2.1c1.6,0,3,1.3,3,3c0,1.6-1.3,3-3,3c-0.2,0-0.3,0-0.5,0C3,7.8,1.9,6.5,1.9,5.1c0-1.5,1-2.7,2.5-2.9
			C4.6,2.1,4.7,2.1,4.9,2.1 M4.9,0.1c-0.3,0-0.6,0-0.8,0.1C1.7,0.5-0.1,2.6-0.1,5.1c0,2.4,1.8,4.5,4.2,4.9c0.3,0,0.5,0.1,0.8,0.1
			c2.8,0,5-2.2,5-5C9.9,2.3,7.6,0.1,4.9,0.1L4.9,0.1z"/>
	</g>
	<path class="st0" d="M45.7,32.7c-0.4,0.3-0.5,1-0.2,1.4l2.8,3.5c0.2,0.2,0.5,0.4,0.8,0.4c0,0,0,0,0.1,0c0.3,0,0.6-0.2,0.8-0.5
		l4.2-7c0.3-0.5,0.1-1.1-0.3-1.4c-0.5-0.3-1.1-0.1-1.4,0.3L49,35.2l-1.9-2.4C46.7,32.4,46.1,32.3,45.7,32.7z"/>
</g>
</svg>
