<?xml version="1.0" standalone="no"?><!DOCTYPE svg PUBLIC "-//W3C//DTD SVG 1.1//EN" "http://www.w3.org/Graphics/SVG/1.1/DTD/svg11.dtd"><svg t="1583748167885" class="icon" viewBox="0 0 1024 1024" version="1.1" xmlns="http://www.w3.org/2000/svg" p-id="6261" xmlns:xlink="http://www.w3.org/1999/xlink" width="60" height="60"><defs><style type="text/css"></style></defs><path d="M720.832 518.88a11.648 11.648 0 0 1 0-16.896 141.632 141.632 0 0 0 44.096-102.848c0-76.48-59.904-138.752-133.504-138.752h-32.352V206.816a12.864 12.864 0 0 0-12.576-13.056h-16.512a12.864 12.864 0 0 0-12.576 13.056v53.568H473.6V206.816a12.864 12.864 0 0 0-12.544-13.056H444.48a12.864 12.864 0 0 0-12.576 13.056v53.568H305.92c-26.656 0-48.224 22.4-48.224 50.112 0 20.256 11.552 37.632 28.16 45.568v308.8c-16.64 7.904-28.16 25.312-28.16 45.568 0 27.68 21.568 50.112 48.224 50.112H431.68v56.832c0 7.168 5.664 13.056 12.576 13.056h16.512a12.864 12.864 0 0 0 12.576-13.056v-56.832h83.84v56.832c0 7.168 5.632 13.056 12.544 13.056h16.512a12.864 12.864 0 0 0 12.576-13.056v-56.832h32.608c73.6 0 133.504-62.272 133.504-138.752a141.44 141.44 0 0 0-44.096-102.912z m-79.168 56.576c0 32.448-25.312 58.752-56.544 58.752H447.616l-35.936 36.48c-7.968 8.032-21.344 2.208-21.344-9.376V431.808c0-32.448 25.312-58.784 56.544-58.784h138.24c31.2 0 56.512 26.336 56.512 58.784v143.648h0.032z" p-id="6262" data-spm-anchor-id="a313x.7781069.0.i47" class="selected" fill="#ffffff"></path><path d="M439.136 503.264a32 32 0 1 0 64 0 32 32 0 1 0-64 0Z" p-id="6263" data-spm-anchor-id="a313x.7781069.0.i48" class="selected" fill="#ffffff"></path><path d="M556.902018 534.311522a32 32 0 1 0 14.707964-62.287044 32 32 0 1 0-14.707964 62.287044Z" p-id="6264" data-spm-anchor-id="a313x.7781069.0.i49" class="selected" fill="#ffffff"></path></svg>