<?xml version="1.0" standalone="no"?><!DOCTYPE svg PUBLIC "-//W3C//DTD SVG 1.1//EN" "http://www.w3.org/Graphics/SVG/1.1/DTD/svg11.dtd"><svg t="1583746860012" class="icon" viewBox="0 0 1024 1024" version="1.1" xmlns="http://www.w3.org/2000/svg" p-id="3057" width="60" height="60" xmlns:xlink="http://www.w3.org/1999/xlink"><defs><style type="text/css"></style></defs><path d="M512 16c273.9328 0 496 222.0672 496 496S785.9328 1008 512 1008 16 785.9328 16 512 238.0672 16 512 16z m-72.1584 174.4l-0.4144 0.008c-7.288 0.2336-13.1248 6.0448-13.1488 13.1888v54.1136H290.32l-0.8608 0.008c-28.3344 0.4464-51.1648 22.928-51.1824 50.6016 0.016 19.8 11.8944 37.7744 30.4032 46v312.048l-0.664 0.3008c-21.8336 10.0672-33.6992 33.4784-28.5408 56.5088 5.2112 23.264 26.384 39.8464 50.856 39.8304h135.728v57.4176l0.008 0.4c0.2512 7.0688 6.192 12.728 13.5104 12.7744h17.8368l0.416-0.008c7.288-0.2336 13.1232-6.0448 13.1472-13.1888v-57.416h90.4896v57.416l0.008 0.4032c0.24 7.088 6.2064 12.7648 13.544 12.7936h17.8368l0.416-0.008c7.288-0.2336 13.1232-6.0448 13.1472-13.1888v-57.416h35.2016l2.3792-0.0192c78.3568-1.24 141.712-63.648 141.712-140.176-0.104-39.6096-17.392-77.3344-47.608-103.8768a11.408 11.408 0 0 1-3.9216-8.576 11.408 11.408 0 0 1 3.9216-8.576c30.2128-26.5472 47.504-64.2688 47.6192-103.8768 0-77.3024-64.6416-140.1968-144.0912-140.1968h-34.9264v-54.0928l-0.0064-0.4032c-0.2432-7.096-6.2208-12.776-13.568-12.7936H575.296l-0.4144 0.008c-7.288 0.2336-13.1248 6.0448-13.1488 13.1888v54.1136H471.232v-54.1136l-0.008-0.4032c-0.24-7.088-6.208-12.7648-13.544-12.7936z m151.7696 181.168c33.7056 0 61.0272 26.584 61.0272 59.3776v145.1072l-0.008 0.9808c-0.5392 32.3408-27.6512 58.3968-61.0192 58.3968h-148.3984l-38.7712 36.8-0.36 0.3312c-3.896 3.4336-9.5008 4.376-14.3728 2.3776-5.024-2.0608-8.2912-6.848-8.2944-12.152V430.9024l0.0096-0.9808c0.5616-32.32 27.6608-58.3472 61.008-58.3536z m-123.0352 109.6544c-12.4128 0-22.4768 9.792-22.4768 21.8688 0 12.0784 10.064 21.8688 22.4768 21.8688s22.4768-9.792 22.4768-21.8688c0-12.0768-10.064-21.8688-22.4768-21.8688z m100.2832 0c-12.4128 0-22.4752 9.792-22.4752 21.8688 0 12.0784 10.064 21.8688 22.4752 21.8688 12.4144 0 22.4768-9.792 22.4768-21.8688 0-12.0768-10.064-21.8688-22.4768-21.8688z" p-id="3058" fill="#ffffff"></path></svg>