<?xml version="1.0" encoding="utf-8"?>
<!-- Generator: Adobe Illustrator 24.0.0, SVG Export Plug-In . SVG Version: 6.00 Build 0)  -->
<svg version="1.1" id="图层_1" xmlns="http://www.w3.org/2000/svg" xmlns:xlink="http://www.w3.org/1999/xlink" x="0px" y="0px"
	 viewBox="0 0 59 59" style="enable-background:new 0 0 59 59;" xml:space="preserve">
<style type="text/css">
	.st0{fill:#FFFFFF;}
</style>
<g>
	<g>
		<path class="st0" d="M11.5,33.1c1.7,0,3,1.3,3,3v17.8c0,1.7-1.3,3-3,3H5c-1.7,0-3-1.3-3-3V36.1c0-1.7,1.3-3,3-3H11.5 M11.5,31.1H5
			c-2.8,0-5,2.2-5,5v17.8c0,2.8,2.2,5,5,5h6.5c2.8,0,5-2.2,5-5V36.1C16.5,33.4,14.2,31.1,11.5,31.1L11.5,31.1z"/>
	</g>
	<g>
		<path class="st0" d="M32.7,2c1.7,0,3,1.3,3,3v48.9c0,1.7-1.3,3-3,3h-6.5c-1.7,0-3-1.3-3-3V5c0-1.7,1.3-3,3-3H32.7 M32.7,0h-6.5
			c-2.8,0-5,2.2-5,5v48.9c0,2.8,2.2,5,5,5h6.5c2.8,0,5-2.2,5-5V5C37.7,2.2,35.5,0,32.7,0L32.7,0z"/>
	</g>
	<g>
		<path class="st0" d="M54,13.7c1.7,0,3,1.3,3,3V22c0,1.7-1.3,3-3,3h-6.5c-1.7,0-3-1.3-3-3v-5.4c0-1.7,1.3-3,3-3H54 M54,11.7h-6.5
			c-2.8,0-5,2.2-5,5V22c0,2.8,2.2,5,5,5H54c2.8,0,5-2.2,5-5v-5.4C59,13.9,56.7,11.7,54,11.7L54,11.7z"/>
	</g>
	<g>
		<path class="st0" d="M54,31.9c1.7,0,3,1.3,3,3V54c0,1.7-1.3,3-3,3h-6.5c-1.7,0-3-1.3-3-3V34.9c0-1.7,1.3-3,3-3H54 M54,29.9h-6.5
			c-2.8,0-5,2.2-5,5V54c0,2.8,2.2,5,5,5H54c2.8,0,5-2.2,5-5V34.9C59,32.2,56.7,29.9,54,29.9L54,29.9z"/>
	</g>
</g>
</svg>
