<?xml version="1.0" standalone="no"?><!DOCTYPE svg PUBLIC "-//W3C//DTD SVG 1.1//EN" "http://www.w3.org/Graphics/SVG/1.1/DTD/svg11.dtd"><svg t="1583920659240" class="icon" viewBox="0 0 1024 1024" version="1.1" xmlns="http://www.w3.org/2000/svg" p-id="16008" xmlns:xlink="http://www.w3.org/1999/xlink" width="128" height="128"><defs><style type="text/css"></style></defs><path d="M797.8496 544.9728c-1.297067-129.467733 108.2368-191.522133 113.117867-194.628267-61.576533-87.893333-157.457067-99.874133-191.624534-101.307733-81.578667-8.021333-159.197867 46.865067-200.635733 46.865067-41.301333 0-105.233067-45.6704-172.919467-44.4416-88.951467 1.262933-171.008 50.414933-216.746666 128.136533-92.433067 156.433067-23.688533 388.130133 66.389333 515.003733 44.032 62.122667 96.529067 131.822933 165.410133 129.365334 66.3552-2.628267 91.477333-41.915733 171.690667-41.915734s102.741333 41.8816 172.987733 40.618667c71.406933-1.3312 116.667733-63.2832 160.392534-125.576533 50.517333-72.021333 71.338667-141.789867 72.567466-145.373867-1.570133-0.682667-139.264-52.1216-140.629333-206.7456zM681.386667 171.690667C720.9472 126.190933 747.639467 63.010133 740.369067 0c-57.002667 2.218667-126.088533 36.010667-166.946134 81.442133-36.727467 40.277333-68.8128 104.618667-60.2112 166.365867 63.624533 4.7104 128.546133-30.651733 168.174934-76.0832z" p-id="16009" fill="#ffffff"></path></svg>