<?xml version="1.0" encoding="utf-8"?>
<!-- Generator: Adobe Illustrator 24.0.0, SVG Export Plug-In . SVG Version: 6.00 Build 0)  -->
<svg version="1.1" id="图层_1" xmlns="http://www.w3.org/2000/svg" xmlns:xlink="http://www.w3.org/1999/xlink" x="0px" y="0px"
	 viewBox="0 0 600 600" style="enable-background:new 0 0 600 600;" xml:space="preserve">
<style type="text/css">
	.st0{fill:#26B7FF;}
</style>
<path class="st0" d="M414.5,493H164.4c-30.5,0-55.3-24.8-55.3-55.3V187.5c0-30.6,24.8-55.3,55.3-55.3h95.8
	c10.4,0,18.8,8.4,18.8,18.8c0,10.4-8.4,18.8-18.8,18.8h-95.8c-9.9,0-17.8,8-17.8,17.8v250.2c0,9.9,8,17.8,17.8,17.8h250.1
	c9.9,0,17.8-8,17.8-17.8V336.1c0-10.4,8.4-18.8,18.8-18.8s18.8,8.4,18.8,18.8v101.6C469.8,468.2,445.1,493,414.5,493L414.5,493z"/>
<path class="st0" d="M293.6,318.2c-10.4,0-18.7-8.4-18.7-18.8c0-5,2-9.7,5.5-13.2l164.1-164.1c7.4-7.2,19.3-7,26.5,0.4
	c7.1,7.3,7.1,18.9,0,26.1L306.9,312.7C303.4,316.3,298.6,318.2,293.6,318.2L293.6,318.2z"/>
<path class="st0" d="M472.2,257.6c-10.4,0-18.8-8.4-18.8-18.8v-94.4H349.2c-10.4,0-18.8-8.4-18.8-18.8s8.4-18.8,18.8-18.8h114
	c15.3,0,27.7,12.4,27.7,27.7v104.2C491,249.3,482.6,257.6,472.2,257.6L472.2,257.6z"/>
</svg>
