<?xml version="1.0" encoding="utf-8"?>
<!-- Generator: Adobe Illustrator 23.0.3, SVG Export Plug-In . SVG Version: 6.00 Build 0)  -->
<svg version="1.1" id="图层_1" xmlns="http://www.w3.org/2000/svg" xmlns:xlink="http://www.w3.org/1999/xlink" x="0px" y="0px"
	 viewBox="0 0 91.1 28" style="enable-background:new 0 0 91.1 28;" xml:space="preserve">
<style type="text/css">
	.st0{fill:#FFFFFF;}
</style>
<title>aelf logo</title>
<g>
	<g id="_编组_">
		<rect id="_路径_" x="68.4" y="0.8" class="st0" width="4.7" height="26.5"/>
		<path id="_路径_2" class="st0" d="M88.1,12.8V8.7h-5.4v-2c0-1.4,1.1-2.5,2.5-2.5h3V0h-3.5c-3.6,0-6.5,2.9-6.5,6.5v2.2H75v4.1
			h3.2v14.4h4.6V12.8H88.1z"/>
		<rect id="_路径_3" x="87.1" y="23.2" class="st0" width="4" height="4"/>
		<path id="_复合路径_" class="st0" d="M63.9,21.1c-1.4,1.3-3.3,2.1-5.2,2c-2.9,0-5.1-1.9-5.5-4.3h14.6c0.1-0.5,0.1-1,0.1-1.5
			c0-5.4-3.5-9.4-8.7-9.4c-2.5,0-4.9,1.1-6.7,2.9V8.5h-3.4v2.2c-1.7-1.8-4.1-2.9-6.6-2.9c-5.1,0-9.3,4.4-9.3,9.8s4.2,9.8,9.3,9.8
			c2.5,0,4.9-1,6.6-2.9v2.2h3.4v-2.3c1.7,1.9,4.1,2.9,6.7,2.9c3.2,0,5.7-1.2,7.4-3.3L63.9,21.1z M58.7,11.7c2.3,0,4.4,1.5,5.1,3.8
			H53.2C54.1,13.2,56.2,11.7,58.7,11.7z M43.6,23.4c-3.2,0-5.8-2.6-5.8-5.8s2.6-5.8,5.8-5.8s5.8,2.6,5.8,5.8l0,0
			C49.4,20.7,46.8,23.4,43.6,23.4z"/>
	</g>
	<ellipse id="_路径_4" class="st0" cx="21.6" cy="14.6" rx="5.6" ry="5.6"/>
	<path id="_路径_5" class="st0" d="M13,15.6c-0.3,0.1-0.6,0.3-0.8,0.6l0,0c-0.1,0.1-0.1,0.2-0.2,0.3c-0.1,0.3-0.3,0.5-0.5,0.8
		c-0.4,0.4-0.9,0.8-1.4,1c-1,0.5-3-0.3-3.9-0.7c-0.1-0.1-0.3-0.2-0.5-0.2l0,0l0,0c-2.1-0.9-4.6,0.1-5.5,2.2s0.1,4.6,2.2,5.5
		S7,25,7.9,22.9C8,22.7,8,22.5,8.1,22.3l0,0c0.4-2,1.3-2.8,2.2-3.4c0.9-0.5,2.5-0.1,2.5-0.1l0,0c0.9,0.3,1.8-0.2,2.1-1.1
		c0.2-0.6,0-1.3-0.5-1.8C14.3,15.5,13.6,15.4,13,15.6z"/>
	<circle id="_路径_6" class="st0" cx="14.3" cy="25.3" r="2.8"/>
	<circle id="_路径_7" class="st0" cx="14.3" cy="3.9" r="2.8"/>
	<path id="_路径_8" class="st0" d="M14.3,10.2c-0.3-0.2-0.7-0.2-1-0.1l0,0c-0.1,0-0.2,0.1-0.3,0.1c-0.3,0.1-0.6,0.2-0.9,0.2
		c-0.6,0-1.1-0.1-1.7-0.2C9.3,9.9,8.5,7.8,8.1,6.9c0-0.2-0.1-0.3-0.2-0.5l0,0l0,0C7,4.3,4.6,3.3,2.4,4.3c-2.1,0.9-3,3.3-2.1,5.5
		c0.9,2.1,3.4,3.1,5.5,2.2c0.2-0.1,0.4-0.2,0.6-0.3l0,0c1.7-1.1,2.9-1.1,3.9-0.9c1,0.3,1.9,1.7,1.9,1.7l0,0c0.4,0.8,1.4,1.2,2.2,0.7
		c0.8-0.4,1.2-1.4,0.7-2.2C15,10.6,14.7,10.4,14.3,10.2L14.3,10.2z"/>
</g>
</svg>
