<?xml version="1.0" encoding="utf-8"?>
<!-- Generator: Adobe Illustrator 24.0.0, SVG Export Plug-In . SVG Version: 6.00 Build 0)  -->
<svg version="1.1" id="图层_1" xmlns="http://www.w3.org/2000/svg" xmlns:xlink="http://www.w3.org/1999/xlink" x="0px" y="0px"
	 viewBox="0 0 59 59" style="enable-background:new 0 0 59 59;" xml:space="preserve">
<style type="text/css">
	.st0{fill:#FFFFFF;}
	.st1{fill:none;stroke:#FFFFFF;stroke-width:2;stroke-linecap:round;stroke-miterlimit:10;}
</style>
<g>
	<g>
		<g>
			<path class="st0" d="M29.9,8.6c11.7,0,21.3,9.6,21.3,21.3s-9.6,21.3-21.3,21.3S8.6,41.6,8.6,29.9S18.1,8.6,29.9,8.6 M29.9,6.6
				C17,6.6,6.6,17,6.6,29.9S17,53.2,29.9,53.2c12.9,0,23.3-10.4,23.3-23.3S42.8,6.6,29.9,6.6L29.9,6.6z"/>
		</g>
	</g>
	<g>
		<g>
			<path class="st0" d="M29.5,2C44.7,2,57,14.3,57,29.5S44.7,57,29.5,57S2,44.7,2,29.5S14.3,2,29.5,2 M29.5,0C13.2,0,0,13.2,0,29.5
				S13.2,59,29.5,59C45.8,59,59,45.8,59,29.5S45.8,0,29.5,0L29.5,0z"/>
		</g>
	</g>
	<g>
		<g>
			<g>
				<path class="st0" d="M29.6,17.6c-0.8,0-1.5,0.7-1.5,1.5s0.7,1.5,1.5,1.5s1.5-0.7,1.5-1.5S30.4,17.6,29.6,17.6L29.6,17.6z"/>
			</g>
		</g>
		<g>
			<g>
				<path class="st0" d="M29.6,38.9c-0.8,0-1.5,0.7-1.5,1.5s0.7,1.5,1.5,1.5s1.5-0.7,1.5-1.5S30.4,38.9,29.6,38.9L29.6,38.9z"/>
			</g>
		</g>
	</g>
	<g>
		<g>
			<g>
				<path class="st0" d="M18.9,28.3c-0.8,0-1.5,0.7-1.5,1.5s0.7,1.5,1.5,1.5s1.5-0.7,1.5-1.5S19.8,28.3,18.9,28.3L18.9,28.3z"/>
			</g>
		</g>
		<g>
			<g>
				<path class="st0" d="M40.2,28.3c-0.8,0-1.5,0.7-1.5,1.5s0.7,1.5,1.5,1.5s1.5-0.7,1.5-1.5S41,28.3,40.2,28.3L40.2,28.3z"/>
			</g>
		</g>
	</g>
	<g>
		<g>
			<path class="st0" d="M29.6,29.5c0.2,0,0.3,0.1,0.3,0.3s-0.1,0.3-0.3,0.3s-0.3-0.1-0.3-0.3S29.4,29.5,29.6,29.5 M29.6,27.5
				c-1.3,0-2.3,1-2.3,2.3s1,2.3,2.3,2.3s2.3-1,2.3-2.3S30.8,27.5,29.6,27.5L29.6,27.5z"/>
		</g>
	</g>
	<polyline class="st1" points="41.7,36.7 29.6,29.8 41.1,18.3 	"/>
</g>
</svg>
