<?xml version="1.0" encoding="utf-8"?>
<!-- Generator: Adobe Illustrator 24.0.0, SVG Export Plug-In . SVG Version: 6.00 Build 0)  -->
<svg version="1.1" id="图层_1" xmlns="http://www.w3.org/2000/svg" xmlns:xlink="http://www.w3.org/1999/xlink" x="0px" y="0px"
	 viewBox="0 0 59 59" style="enable-background:new 0 0 59 59;" xml:space="preserve">
<style type="text/css">
	.st0{fill:#FFFFFF;}
</style>
<g>
	<path class="st0" d="M58.7,10.6L48.5,0.4c-0.4-0.4-1.2-0.4-1.6,0L33.4,13.9c-0.4,0.4-0.4,1.2,0,1.6l1,1l-1.1,1.1
		c-1.2-0.5-2.5-0.6-3.7-0.3c-1.2-0.3-2.5-0.2-3.7,0.3l-1.1-1.1l1-1c0.4-0.4,0.4-1.2,0-1.6L12.2,0.4c-0.4-0.4-1.2-0.4-1.6,0L0.4,10.6
		C0,11,0,11.8,0.4,12.2l13.5,13.5c0.2,0.2,0.5,0.3,0.8,0.3c0.3,0,0.6-0.1,0.8-0.3l1-1l1.1,1.1c-0.4,0.9-0.5,1.9-0.4,3l-0.7,0.7
		c-0.6,0.6-0.9,1.4-0.9,2.2c0,0.8,0.3,1.6,0.9,2.2c0.6,0.6,1.3,0.8,2,0.9c0.1,0.7,0.4,1.4,0.9,2c0.6,0.6,1.3,0.8,2,0.9
		c0.1,0.7,0.4,1.4,0.9,2c0.6,0.6,1.3,0.8,2,0.9c0.1,0.7,0.4,1.4,0.9,2c0.6,0.6,1.4,0.9,2.2,0.9c0.8,0,1.6-0.3,2.2-0.9l0.7-0.7
		c0.2,0,0.4,0,0.7,0c1.6,0,3.1-0.6,4.3-1.8l5-5c1.5-1.5,2.1-3.7,1.6-5.7c0.3-1.2,0.2-2.5-0.3-3.7l1.1-1.1l1,1
		c0.2,0.2,0.5,0.3,0.8,0.3s0.6-0.1,0.8-0.3l13.5-13.5C59.2,11.8,59.2,11,58.7,10.6z M14.7,23.3L2.8,11.4l8.6-8.6l11.9,11.9
		L14.7,23.3z M18,32.4c-0.2-0.2-0.3-0.4-0.3-0.6c0-0.2,0.1-0.5,0.3-0.6l2.2-2.2h0c0.2-0.2,0.4-0.3,0.6-0.3c0.2,0,0.5,0.1,0.6,0.3
		c0.2,0.2,0.3,0.4,0.3,0.6c0,0.2-0.1,0.5-0.3,0.6l0,0v0l-2.2,2.2C19,32.8,18.4,32.8,18,32.4z M20.9,35.3c-0.2-0.2-0.3-0.4-0.3-0.6
		c0-0.2,0.1-0.5,0.3-0.6l2.2-2.2c0.4-0.4,0.9-0.4,1.3,0c0.2,0.2,0.3,0.4,0.3,0.6c0,0.2-0.1,0.5-0.3,0.6c0,0,0,0,0,0s0,0,0,0
		l-2.2,2.2C21.8,35.7,21.3,35.7,20.9,35.3z M23.8,38.2c-0.4-0.4-0.4-0.9,0-1.3c0,0,0,0,0,0l2.2-2.2c0.4-0.4,0.9-0.4,1.3,0
		c0.4,0.4,0.4,0.9,0,1.3c0,0,0,0,0,0l-2.2,2.2C24.7,38.6,24.2,38.6,23.8,38.2z M30.1,38.9L28,41.1c-0.3,0.3-0.9,0.3-1.3,0
		c-0.2-0.2-0.3-0.4-0.3-0.6c0-0.2,0.1-0.5,0.3-0.6l2.2-2.2c0.2-0.2,0.4-0.3,0.6-0.3c0.2,0,0.5,0.1,0.6,0.3c0.2,0.2,0.3,0.4,0.3,0.6
		C30.4,38.5,30.3,38.7,30.1,38.9z M38.6,33.6l-5,5c-0.3,0.3-0.8,0.6-1.2,0.8c0.1-0.4,0.2-0.7,0.2-1.1c0-0.8-0.3-1.6-0.9-2.2
		c-0.5-0.5-1.2-0.8-2-0.9c-0.1-0.7-0.4-1.4-0.9-2c-0.6-0.6-1.3-0.8-2-0.9c-0.1-0.7-0.4-1.4-0.9-2c-0.6-0.6-1.3-0.8-2-0.9
		c-0.1-0.7-0.4-1.4-0.9-2c-0.6-0.6-1.4-0.9-2.2-0.9c-0.4,0-0.8,0.1-1.1,0.2c0.1-0.2,0.1-0.3,0.2-0.4c0.3-0.4,0.2-1-0.2-1.4l-1.7-1.7
		l5.1-5.1l1.7,1.7c0.2,0.2,0.4,0.3,0.6,0.3l-0.3,0.3c-0.6,0.6-0.9,1.3-0.9,2.1c0,0.8,0.3,1.6,0.9,2.1c0.6,0.6,1.3,0.9,2.1,0.9
		c0.8,0,1.5-0.3,2-0.8l2.3-1.4c1.7,1.2,6.4,4.6,7.1,5.1C40.1,29.8,40.1,32.1,38.6,33.6z M39.4,24.8c-0.2,0.2-0.4,0.6-0.3,0.9
		l-6.4-4.6c-0.2-0.2-0.6-0.5-1.1-0.5c-0.2,0-0.4,0.1-0.6,0.2l-2.9,1.9c-0.1,0-0.1,0.1-0.2,0.2c-0.3,0.3-0.8,0.3-1,0
		c-0.3-0.3-0.3-0.8,0-1l1.4-1.4c1.2-1.2,3.1-1.5,4.6-0.6c0.4,0.3,1,0.2,1.4-0.2l1.7-1.7l5.1,5.1L39.4,24.8z M44.4,23.3l-8.6-8.6
		L47.7,2.8l8.6,8.6L44.4,23.3z"/>
	<path class="st0" d="M13.3,33.1c-0.4-0.5-1.1-0.5-1.6-0.1c-1.4,1.3-2.3,3.2-2.3,5.2c0,1.9,0.7,3.7,2.1,5c0.2,0.2,0.5,0.3,0.8,0.3
		c0.3,0,0.6-0.1,0.8-0.3c0.4-0.4,0.4-1.2,0-1.6c-0.9-0.9-1.4-2.1-1.4-3.4c0-1.4,0.6-2.6,1.6-3.6C13.7,34.3,13.7,33.6,13.3,33.1z"/>
	<path class="st0" d="M9.7,30.9c-0.4-0.5-1.1-0.5-1.6-0.1c-2.1,1.9-3.3,4.7-3.3,7.5c0,2.7,1.1,5.3,3,7.2c0.2,0.2,0.5,0.3,0.8,0.3
		c0.3,0,0.6-0.1,0.8-0.3c0.4-0.4,0.4-1.2,0-1.6c-1.5-1.5-2.3-3.5-2.3-5.6c0-2.2,0.9-4.3,2.5-5.8C10.1,32,10.1,31.3,9.7,30.9z"/>
	<path class="st0" d="M42.4,54.8H0.9c-0.6,0-1-0.4-1-1s0.4-1,1-1h41.5c0.6,0,1,0.4,1,1S42.9,54.8,42.4,54.8z"/>
	<path class="st0" d="M57.9,59H16.5c-0.6,0-1-0.4-1-1s0.4-1,1-1h41.5c0.6,0,1,0.4,1,1S58.5,59,57.9,59z"/>
</g>
</svg>
