<?xml version="1.0" standalone="no"?><!DOCTYPE svg PUBLIC "-//W3C//DTD SVG 1.1//EN" "http://www.w3.org/Graphics/SVG/1.1/DTD/svg11.dtd"><svg t="1583920590701" class="icon" viewBox="0 0 1024 1024" version="1.1" xmlns="http://www.w3.org/2000/svg" p-id="14444" xmlns:xlink="http://www.w3.org/1999/xlink" width="128" height="128"><defs><style type="text/css"></style></defs><path d="M702 568.4a40.9 40.9 0 1 0 81.8 0 40.9 40.9 0 1 0-81.8 0z" p-id="14445" fill="#ffffff"></path><path d="M713.5 658.5c-38.7 0-70.4-31.7-70.4-70.4v-45c0-38.7 31.7-70.4 70.4-70.4h255.7V327.2c0-38.7-31.7-70.4-70.4-70.4H128.5c-38.7 0-70.4 31.7-70.4 70.4v527.6c0 38.7 31.7 70.4 70.4 70.4h770.3c38.7 0 70.4-31.7 70.4-70.4V658.5H713.5z m126-446.4L765.2 77.5c-18.7-33.9-61.7-46.3-95.6-27.6L376.1 212.1h463.4z" p-id="14446" fill="#ffffff"></path></svg>