<?xml version="1.0" standalone="no"?>
<!DOCTYPE svg PUBLIC "-//W3C//DTD SVG 1.1//EN" "http://www.w3.org/Graphics/SVG/1.1/DTD/svg11.dtd" >
<svg xmlns="http://www.w3.org/2000/svg" xmlns:xlink="http://www.w3.org/1999/xlink" version="1.1">
<metadata>
Created by FontForge 20161003 at Mon Aug  7 03:10:26 2017
 By www-data
Copyright (c) Lexmark International Incorporated 1991, All Rights Reserved. Copyright (c) IBM Corporation 1990, All Rights Reserved. Times New Roman is a Trademark of The Monotype Corporation plc.
</metadata>
<defs>
<font id="TimesNewRomanItalic" horiz-adv-x="500" >
  <font-face 
    font-family="TimesNewRomanItalic"
    font-weight="500"
    font-style="italic"
    font-stretch="normal"
    units-per-em="1000"
    panose-1="0 0 0 0 0 0 0 0 0 0"
    ascent="800"
    descent="-200"
    x-height="430"
    cap-height="662"
    bbox="-191 -225 1031 910"
    underline-thickness="50"
    underline-position="-150"
    slope="-16"
    unicode-range="U+0020-FB04"
  />
<missing-glyph horiz-adv-x="250" 
 />
    <glyph glyph-name=".notdef" horiz-adv-x="250" 
 />
    <glyph glyph-name=".null" horiz-adv-x="0" 
 />
    <glyph glyph-name="nonmarkingreturn" horiz-adv-x="333" 
 />
    <glyph glyph-name="space" unicode=" " horiz-adv-x="250" 
 />
    <glyph glyph-name="exclam" unicode="!" horiz-adv-x="333" 
d="M157 161h-18q57 271 81 412q17 104 66 104q14 0 22.5 -12t8.5 -27t-9.5 -49.5t-19 -62t-24.5 -67.5t-15 -41zM124 -15q-21 0 -35.5 14.5t-14.5 35.5t14.5 35.5t35.5 14.5t35.5 -14.5t14.5 -35.5t-14.5 -35.5t-35.5 -14.5z" />
    <glyph glyph-name="quotedbl" unicode="&#x22;" horiz-adv-x="420" 
d="M178 662h86l-20 -111l-47 -134h-39v134zM359 662h86l-20 -111l-47 -134h-39v134z" />
    <glyph glyph-name="numbersign" unicode="#" 
d="M80 -15l46 224h-82v40h90l34 164h-124v40h132l46 224h41l-46 -224h168l46 224h41l-46 -224h82v-40h-90l-34 -164h124v-40h-132l-46 -224h-41l46 224h-168l-46 -224h-41zM175 249h168l34 164h-168z" />
    <glyph glyph-name="dollar" unicode="$" 
d="M288 412l64 223q-13 4 -32 4q-45 0 -75 -32.5t-30 -77.5q0 -24 12 -47t25 -37t36 -33zM286 299l-83 -283h20q60 0 105 41.5t45 101.5q0 67 -87 140zM381 627l-68 -234q59 -46 94 -92t35 -102q0 -83 -61.5 -146t-171.5 -63h-14l-16 -56h-32l17 58q-69 12 -122 54l40 139
h21q-6 -32 -6 -49q0 -39 21 -72t58 -42l85 299q-56 43 -87 85t-31 98q0 69 52.5 115t122.5 46q22 0 41 -3l11 38h32l-13 -42q58 -15 100 -56l-32 -118h-21q3 16 3 33q0 83 -58 110z" />
    <glyph glyph-name="percent" unicode="%" horiz-adv-x="833" 
d="M705 342q43 0 78 -36.5t35 -99.5q0 -87 -59.5 -152.5t-124.5 -65.5q-53 0 -86 37.5t-33 91.5q0 80 56 152.5t134 72.5zM705 322q-50 0 -89 -94t-39 -160q0 -24 13 -42t36 -18q35 0 67 50.5t47.5 107t15.5 90.5q0 66 -51 66zM264 674q43 0 78 -36.5t35 -99.5
q0 -87 -59.5 -152.5t-124.5 -65.5q-53 0 -86 37.5t-33 91.5q0 80 56 152.5t134 72.5zM264 654q-50 0 -89 -94t-39 -160q0 -24 13 -42t36 -18q35 0 67 50.5t47.5 107t15.5 90.5q0 66 -51 66zM820 677l-692 -692h-47l692 692h47z" />
    <glyph glyph-name="ampersand" unicode="&#x26;" horiz-adv-x="778" 
d="M399 429q136 51 136 149q0 28 -16 47.5t-44 19.5q-25 0 -43 -12.5t-26.5 -34.5t-12 -43t-3.5 -45q0 -34 9 -81zM322 367q-71 -24 -124.5 -74t-53.5 -116q0 -63 39.5 -103.5t102.5 -40.5q40 0 69 13t69 42q-69 112 -102 279zM524 347h198v-18q-47 -5 -73.5 -26.5
t-59.5 -67.5l-81 -112q55 -98 126 -98q45 0 75 35h22q-52 -75 -139 -75q-93 0 -149 75q-97 -75 -209 -75q-49 0 -85.5 14t-55.5 33.5t-30.5 44.5t-14 42t-2.5 32q0 26 5 49t22 51.5t45.5 52.5t79.5 49t119 44q-5 55 -5 66q0 103 53.5 158.5t123.5 55.5q46 0 77.5 -25.5
t31.5 -70.5q0 -70 -57 -115.5t-136 -68.5q43 -161 87 -243q28 32 52 73.5t24 71.5t-44 30v18z" />
    <glyph glyph-name="quotesingle" unicode="'" horiz-adv-x="214" 
d="M166 662h86l-20 -111l-47 -134h-39v134z" />
    <glyph glyph-name="parenleft" unicode="(" horiz-adv-x="333" 
d="M203 -206l-17 -10q-49 95 -76 173t-27 158q0 95 27.5 179.5t80 155.5t112.5 127.5t142 116.5l12 -17q-67 -47 -121.5 -116.5t-88.5 -141.5t-57 -149.5t-32.5 -140.5t-9.5 -113q0 -100 55 -222z" />
    <glyph glyph-name="parenright" unicode=")" horiz-adv-x="333" 
d="M145 684l17 10q49 -95 76 -173t27 -158q0 -95 -27.5 -179.5t-80 -155.5t-112.5 -127.5t-142 -116.5l-12 17q67 47 121.5 116.5t88.5 141.5t57 149.5t32.5 140.5t9.5 113q0 100 -55 222z" />
    <glyph glyph-name="asterisk" unicode="*" 
d="M290 492q-14 10 -57 17.5t-73 21.5t-30 43q0 15 11 25t26 10q24 0 46.5 -20t45.5 -45.5t41 -33.5q0 26 -15.5 70t-15.5 61q0 22 10 37.5t30 15.5t30 -15.5t10 -37.5q0 -17 -15.5 -61t-15.5 -70q18 8 41 33.5t45.5 45.5t46.5 20q15 0 26 -10t11 -25q0 -29 -30 -43
t-73 -21.5t-57 -17.5q14 -10 57 -17.5t73 -21.5t30 -43q0 -15 -11 -25t-26 -10q-24 0 -46.5 20t-45.5 45.5t-41 33.5q0 -26 15.5 -70t15.5 -61q0 -22 -10 -37.5t-30 -15.5t-30 15.5t-10 37.5q0 17 15.5 61t15.5 70q-18 -8 -41 -33.5t-45.5 -45.5t-46.5 -20q-15 0 -26 10
t-11 25q0 29 30 43t73 21.5t57 17.5z" />
    <glyph glyph-name="plus" unicode="+" horiz-adv-x="675" 
d="M383 300v-220h-64v220h-220v64h220v220h64v-220h220v-64h-220z" />
    <glyph glyph-name="comma" unicode="," horiz-adv-x="250" 
d="M-1 -126l-9 16q28 12 52.5 34.5t24.5 46.5q0 15 -17 30t-17 37q0 21 14.5 35.5t35.5 14.5t35.5 -15.5t14.5 -39.5q0 -52 -40.5 -96t-93.5 -63z" />
    <glyph glyph-name="hyphen" unicode="-" horiz-adv-x="333" 
d="M299 251l-20 -68h-253l20 68h253z" />
    <glyph glyph-name="period" unicode="." horiz-adv-x="250" 
d="M83 -12q-21 0 -35.5 14.5t-14.5 35.5t14.5 35.5t35.5 14.5t35.5 -14.5t14.5 -35.5t-14.5 -35.5t-35.5 -14.5z" />
    <glyph glyph-name="slash" unicode="/" horiz-adv-x="278" 
d="M380 694l-372 -709h-43l374 709h41z" />
    <glyph glyph-name="zero" unicode="0" 
d="M209 -12q-56 0 -91 36t-46.5 82t-11.5 101q0 101 36.5 207.5t105.5 183t149 76.5q57 0 100 -58t43 -167q0 -106 -38 -212t-105.5 -177.5t-141.5 -71.5zM211 10q46 0 87.5 67t66.5 158.5t40 174.5t15 127q0 42 -18.5 78.5t-56.5 36.5q-49 0 -92 -72t-67.5 -168.5t-38 -179
t-13.5 -118.5q0 -44 18 -74t59 -30z" />
    <glyph glyph-name="one" unicode="1" 
d="M418 674l-152 -533q-19 -68 -19 -80q0 -26 21 -34.5t57 -8.5l-5 -18h-262l5 18q56 0 78.5 19t42.5 87l117 410q9 31 9 47q0 37 -35 37q-13 0 -39 -6l-6 18l170 44h18z" />
    <glyph glyph-name="two" unicode="2" 
d="M345 0h-329v18l224 217q146 142 146 250q0 51 -30 84t-80 33q-74 0 -115 -67l-17 8q23 58 70 94.5t107 36.5q63 0 105.5 -44t42.5 -107q0 -102 -111 -213l-245 -238h153q19 0 30.5 1t30 6t32 18.5t23.5 34.5h18z" />
    <glyph glyph-name="three" unicode="3" 
d="M153 360v18q34 4 69.5 14t70 28t56.5 47.5t22 65.5q0 38 -23 64t-60 26q-58 0 -97 -67l-18 5q21 51 61 82t93 31q54 0 89.5 -34t35.5 -87q0 -57 -42.5 -96.5t-103.5 -61.5v-2q48 -17 75 -58.5t27 -94.5q0 -104 -78 -178t-183 -74q-15 0 -32 2.5t-36.5 8t-32.5 17.5
t-13 28q0 18 12.5 30t30.5 12q22 0 67.5 -26t77.5 -26q48 0 76 53t28 106q0 76 -47.5 119.5t-124.5 47.5z" />
    <glyph glyph-name="four" unicode="4" 
d="M487 662l-127 -435h79l-17 -61h-80l-52 -178h-71l52 178h-240l21 68l397 428h38zM94 227h195l90 308l-3 -2z" />
    <glyph glyph-name="five" unicode="5" 
d="M259 662h220l-22 -79h-198l-38 -83q90 -11 141 -65.5t51 -144.5q0 -120 -84 -211t-194 -91q-36 0 -67.5 14t-31.5 45q0 18 13 30t31 12q26 0 58 -25.5t56 -25.5q67 0 107.5 62t40.5 133q0 91 -48.5 138.5t-140.5 52.5z" />
    <glyph glyph-name="six" unicode="6" 
d="M525 674v-18q-88 -18 -167.5 -86t-130.5 -154l2 -2q50 23 80 23q70 0 111 -48.5t41 -119.5q0 -119 -76.5 -200t-158.5 -81q-79 0 -121 57t-42 139q0 88 38.5 175.5t101.5 155t148.5 111t173.5 48.5zM202 372q-69 -146 -69 -245q0 -46 21.5 -81.5t64.5 -35.5
q56 0 105 80.5t49 191.5q0 49 -25.5 84.5t-72.5 35.5q-30 0 -73 -30z" />
    <glyph glyph-name="seven" unicode="7" 
d="M194 662h330v-18l-372 -656l-39 18l325 577h-158q-32 0 -47 -1t-35 -7t-33.5 -20t-27.5 -38h-20z" />
    <glyph glyph-name="eight" unicode="8" 
d="M337 371q91 -97 91 -184q0 -42 -22 -86t-72.5 -78.5t-118.5 -34.5q-77 0 -127 50t-50 111q0 65 49.5 119t145.5 92q-23 28 -36.5 47.5t-26 49t-12.5 57.5q0 70 50.5 115t121.5 45q60 0 109 -36.5t49 -95.5q0 -65 -42 -107t-109 -64zM318 391q49 14 80 57t31 94
q0 49 -27 79.5t-76 30.5q-41 0 -68.5 -27.5t-27.5 -69.5q0 -30 16.5 -64t28 -48t43.5 -52zM251 340q-66 -23 -107 -81.5t-41 -128.5q0 -56 34 -88t89 -32q52 0 90 39.5t38 92.5q0 52 -27.5 98t-75.5 100z" />
    <glyph glyph-name="nine" unicode="9" 
d="M29 -12v18q87 15 168.5 84.5t130.5 155.5l-2 2q-48 -24 -81 -24q-70 0 -111 48t-41 120q0 106 71.5 194t162.5 88q79 0 121.5 -57.5t42.5 -138.5q0 -119 -64.5 -230t-172 -182t-225.5 -78zM352 289q69 136 69 244q0 48 -23 83.5t-75 35.5q-49 0 -95.5 -82.5t-46.5 -190.5
q0 -51 24 -85.5t73 -34.5q32 0 74 30z" />
    <glyph glyph-name="colon" unicode=":" horiz-adv-x="333" 
d="M109 -12q-21 0 -35.5 14.5t-14.5 35.5t14.5 35.5t35.5 14.5t35.5 -14.5t14.5 -35.5t-14.5 -35.5t-35.5 -14.5zM212 342q-21 0 -35.5 14.5t-14.5 35.5t14.5 35.5t35.5 14.5t35.5 -14.5t14.5 -35.5t-14.5 -35.5t-35.5 -14.5z" />
    <glyph glyph-name="semicolon" unicode=";" horiz-adv-x="333" 
d="M25 -126l-9 16q28 12 52.5 34.5t24.5 46.5q0 15 -17 30t-17 37q0 21 14.5 35.5t35.5 14.5t35.5 -15.5t14.5 -39.5q0 -52 -40.5 -96t-93.5 -63zM212 342q-21 0 -35.5 14.5t-14.5 35.5t14.5 35.5t35.5 14.5t35.5 -14.5t14.5 -35.5t-14.5 -35.5t-35.5 -14.5z" />
    <glyph glyph-name="less" unicode="&#x3c;" horiz-adv-x="675" 
d="M605 142v-71l-509 233v57l509 232v-70l-417 -191z" />
    <glyph glyph-name="equal" unicode="=" horiz-adv-x="675" 
d="M112 396v64h504v-64h-504zM112 204v64h504v-64h-504z" />
    <glyph glyph-name="greater" unicode="&#x3e;" horiz-adv-x="675" 
d="M109 142l417 190l-417 191v70l509 -232v-57l-509 -233v71z" />
    <glyph glyph-name="question" unicode="?" 
d="M175 163h-18q2 50 26 97t56.5 83.5t64.5 70.5t54 72.5t22 76.5q0 42 -29 67t-72 25q-25 0 -52 -10.5t-27 -31.5q0 -9 8 -26.5t8 -28.5q0 -17 -11.5 -27.5t-29.5 -10.5q-17 0 -28.5 12.5t-11.5 30.5q0 53 49 83.5t106 30.5q81 0 124.5 -44.5t43.5 -94.5q0 -43 -26.5 -80
t-66 -65.5t-79.5 -58.5t-72 -74t-39 -97zM146 -15q-21 0 -35.5 14.5t-14.5 35.5t14.5 35.5t35.5 14.5t35.5 -14.5t14.5 -35.5t-14.5 -35.5t-35.5 -14.5z" />
    <glyph glyph-name="at" unicode="@" horiz-adv-x="920" 
d="M689 467l-83 -288q-19 -64 -19 -91q0 -16 10 -27t25 -11q75 0 141.5 97.5t66.5 218.5q0 136 -89 220t-226 84q-123 0 -220.5 -67t-148.5 -173.5t-51 -227.5q0 -168 106 -278t273 -110q136 0 239.5 71.5t156.5 198.5h28q-41 -135 -160 -217.5t-262 -82.5q-185 0 -306 123
t-121 308q0 129 59 238.5t165 175t236 65.5q154 0 252 -91t98 -244q0 -80 -30 -157t-93.5 -132t-145.5 -55q-75 0 -75 67q0 30 9 70l-2 2q-108 -139 -189 -139q-41 0 -65.5 34t-24.5 77q0 77 43.5 158.5t107 133.5t119.5 52q31 0 55 -17.5t28 -46.5h2l14 51zM320 144
q0 -28 15.5 -49.5t41.5 -21.5q39 0 86 44t81 116.5t34 143.5q0 30 -16 50.5t-45 20.5q-44 0 -92 -59.5t-76.5 -130.5t-28.5 -114z" />
    <glyph glyph-name="A" unicode="A" horiz-adv-x="611" 
d="M387 218h-189l-60 -81q-2 -3 -9.5 -13t-11.5 -16.5t-10 -16t-8.5 -18t-2.5 -15.5q0 -40 55 -40l-5 -18h-196l5 18q12 0 23.5 3.5t20.5 7.5t20 13.5t17.5 15t17.5 19t15 18.5t15.5 21t13.5 19l398 542h18l-49 -522q-5 -63 -5 -80q0 -33 20.5 -45t64.5 -12l-5 -18h-260
l5 18q57 0 73 22t20 76zM414 512l-189 -259h166l25 259h-2z" />
    <glyph glyph-name="B" unicode="B" horiz-adv-x="611" 
d="M92 124l115 395q17 57 17 86q0 24 -18 31.5t-57 7.5l5 18h231q107 0 155.5 -41.5t48.5 -98.5q0 -69 -50.5 -114t-120.5 -57l-2 -2q48 -15 81 -52.5t33 -86.5q0 -88 -68.5 -149t-206.5 -61h-279l5 18q54 0 72 17.5t39 88.5zM235 333l-85 -290q35 -8 80 -8q78 0 137.5 46.5
t59.5 122.5q0 129 -153 129h-39zM321 624l-75 -256h53q56 0 96.5 16t60.5 41.5t28.5 49.5t8.5 48q0 104 -126 104q-1 0 -46 -3z" />
    <glyph glyph-name="C" unicode="C" horiz-adv-x="667" 
d="M704 677l-50 -214h-18v41q0 46 -16.5 77t-43 43.5t-46 16.5t-39.5 4q-96 0 -171.5 -65.5t-112.5 -157t-37 -184.5q0 -92 55 -151.5t146 -59.5q134 0 221 124h23q-100 -166 -276 -166q-121 0 -196.5 72.5t-75.5 192.5q0 111 59 210t158 158t210 59q46 0 104 -23
q26 -10 39 -10q10 0 20.5 6t14.5 10.5t14 16.5h18z" />
    <glyph glyph-name="D" unicode="D" horiz-adv-x="722" 
d="M92 124l115 395q17 57 17 86q0 24 -18 31.5t-57 7.5l5 18h236q75 0 133 -17.5t92.5 -45.5t56 -66t29 -74.5t7.5 -76.5q0 -45 -13.5 -93.5t-46.5 -101t-82.5 -93.5t-130 -67.5t-179.5 -26.5h-280l5 18q54 0 72 17.5t39 88.5zM324 625l-141 -484q-19 -76 -19 -79
q0 -11 5.5 -17.5t19 -9t23.5 -3t32 -0.5q93 0 164 28.5t113 79.5t63 117t21 146q0 114 -55.5 169t-169.5 55q-26 0 -56 -2z" />
    <glyph glyph-name="E" unicode="E" horiz-adv-x="611" 
d="M92 124l115 395q17 57 17 86q0 24 -18 31.5t-57 7.5l5 18h477l-42 -160h-18q3 21 3 39q0 8 -1.5 16.5t-9 21.5t-19.5 23t-35.5 17.5t-54.5 7.5h-132l-76 -263h49q31 0 45 1t34 5.5t31.5 14t25 28t25.5 46.5h18l-68 -241h-18q7 32 7 50q0 21 -7.5 35t-22 19t-23.5 6t-24 1
h-81l-60 -206q-13 -46 -13 -57q0 -22 15 -26.5t65 -4.5q117 0 175 27t113 122h18l-63 -184h-511l5 18q54 0 72 17.5t39 88.5z" />
    <glyph glyph-name="F" unicode="F" horiz-adv-x="611" 
d="M322 627l-76 -263h73q31 0 45 1t34 5.5t31.5 14t25 28t25.5 46.5h18l-68 -241h-18q7 32 7 50t-6.5 30t-14 18t-23.5 9t-26.5 3.5t-30.5 0.5h-81l-53 -188q-19 -68 -19 -80q0 -26 21 -34.5t57 -8.5l-5 -18h-262l5 18q54 0 72 17.5t39 88.5l115 395q17 57 17 86
q0 24 -18 31.5t-57 7.5l5 18h513l-49 -168h-18q5 40 5 48q0 85 -127 85h-156z" />
    <glyph glyph-name="G" unicode="G" horiz-adv-x="722" 
d="M721 677l-49 -208h-19q5 45 5 53q0 57 -49.5 88.5t-109.5 31.5q-74 0 -136.5 -35.5t-103 -93t-63 -127t-22.5 -139.5q0 -97 50 -162t144 -65q46 0 112 26l41 143q17 57 17 86q0 39 -95 39l5 18h282l-5 -18h-21q-39 0 -58 -24.5t-29 -63.5l-55 -194q-110 -47 -195 -47
q-67 0 -120 18t-85 46t-53.5 65t-29.5 72.5t-8 71.5q0 74 31.5 148.5t85.5 134.5t135.5 98t173.5 38q74 0 129 -23q24 -10 34 -10q11 0 19.5 5.5t12 10.5t11.5 17h18z" />
    <glyph glyph-name="H" unicode="H" horiz-adv-x="722" 
d="M248 367h308l44 152q17 57 17 86q0 24 -18 31.5t-57 7.5l5 18h262l-5 -18h-21q-39 0 -58 -24.5t-29 -63.5l-119 -415q-19 -68 -19 -80q0 -26 21 -34.5t57 -8.5l-5 -18h-262l5 18q54 0 72 17.5t39 88.5l61 208h-307l-55 -191q-19 -68 -19 -80q0 -26 21 -34.5t57 -8.5
l-5 -18h-262l5 18q54 0 72 17.5t39 88.5l115 395q17 57 17 86q0 24 -18 31.5t-57 7.5l5 18h262l-5 -18h-21q-39 0 -58 -24.5t-29 -63.5z" />
    <glyph glyph-name="I" unicode="I" horiz-adv-x="333" 
d="M303 556l-119 -415q-19 -68 -19 -80q0 -26 21 -34.5t57 -8.5l-5 -18h-262l5 18q54 0 72 17.5t39 88.5l115 395q17 57 17 86q0 24 -18 31.5t-57 7.5l5 18h262l-5 -18h-21q-39 0 -58 -24.5t-29 -63.5z" />
    <glyph glyph-name="J" unicode="J" horiz-adv-x="444" 
d="M260 253l77 266q17 57 17 86q0 24 -18 31.5t-57 7.5l5 18h262l-5 -18h-21q-39 0 -58 -24.5t-29 -63.5l-99 -345q-28 -99 -92 -162.5t-160 -63.5q-48 0 -83 22t-35 68q0 28 17.5 47.5t45.5 19.5q20 0 34.5 -12.5t14.5 -32.5q0 -16 -14.5 -32.5t-14.5 -23.5q0 -12 11 -19
t24 -7q24 0 45 10t35.5 21t30 36.5t23 39t19 47.5t13.5 42.5t12 41.5z" />
    <glyph glyph-name="K" unicode="K" horiz-adv-x="667" 
d="M323 376l157 -243q44 -68 73 -91.5t82 -23.5l-5 -18h-283l5 18q23 0 42 11.5t19 34.5q0 9 -2 18t-7.5 19t-8.5 15.5t-11 17.5l-10 15l-129 202l-61 -210q-19 -68 -19 -80q0 -26 21 -34.5t57 -8.5l-5 -18h-262l5 18q54 0 72 17.5t39 88.5l115 395q17 57 17 86
q0 24 -18 31.5t-57 7.5l5 18h262l-5 -18h-21q-21 0 -36.5 -7.5t-25.5 -22.5t-15 -27.5t-10 -30.5l-55 -191l2 -2l222 167q79 60 79 86q0 12 -12 20t-24 8l5 18h212l-5 -18q-64 -9 -131 -59z" />
    <glyph glyph-name="L" unicode="L" horiz-adv-x="556" 
d="M303 556l-119 -415q-17 -61 -17 -72q0 -23 17 -28.5t66 -5.5q109 0 161 28.5t98 124.5h18l-64 -188h-487l5 18q54 0 72 17.5t39 88.5l115 395q17 57 17 86q0 24 -18 31.5t-57 7.5l5 18h262l-5 -18h-21q-39 0 -58 -24.5t-29 -63.5z" />
    <glyph glyph-name="M" unicode="M" horiz-adv-x="833" 
d="M319 662l61 -533l384 533h158l-5 -18h-21q-39 0 -58 -24.5t-29 -63.5l-119 -415q-19 -68 -19 -80q0 -26 21 -34.5t57 -8.5l-5 -18h-262l5 18q54 0 72.5 17.5t38.5 88.5l118 410l-2 2l-385 -536h-18l-62 536h-2l-113 -395q-19 -68 -19 -80q0 -26 21 -34.5t57 -8.5l-5 -18
h-212l5 18q54 0 72 17.5t39 88.5l142 488q-28 32 -85 32l5 18h165z" />
    <glyph glyph-name="N" unicode="N" horiz-adv-x="667" 
d="M287 662l202 -517h2l108 374q17 57 17 86q0 24 -18 31.5t-57 7.5l5 18h215l-5 -18h-21q-39 0 -58 -24.5t-29 -63.5l-163 -571h-18l-218 556h-2l-113 -400q-19 -68 -19 -80q0 -26 21 -34.5t57 -8.5l-5 -18h-212l5 18q54 0 72 17.5t39 88.5l132 467q-18 31 -43.5 42
t-64.5 11l5 18h166z" />
    <glyph glyph-name="O" unicode="O" horiz-adv-x="722" 
d="M487 677q60 0 106 -21t72 -56t39 -74t13 -81q0 -50 -16.5 -109.5t-52.5 -122t-85 -113t-122 -83t-157 -32.5q-53 0 -94.5 17.5t-66 43.5t-40 59.5t-21 61t-5.5 52.5q0 101 56.5 206t158 178.5t215.5 73.5zM476 645q-71 0 -133 -48t-100.5 -118.5t-60.5 -146.5t-22 -137
q0 -73 35.5 -125.5t105.5 -52.5q67 0 128 48.5t100 120.5t62 149.5t23 139.5q0 70 -35.5 120t-102.5 50z" />
    <glyph glyph-name="P" unicode="P" horiz-adv-x="611" 
d="M321 618l-76 -263q49 -14 86 -14q46 0 81.5 14t56 34t33.5 46t17 47t4 39q0 106 -125 106q-32 0 -77 -9zM237 323l-53 -182q-19 -68 -19 -80q0 -26 21 -34.5t57 -8.5l-5 -18h-262l5 18q54 0 72 17.5t39 88.5l115 395q17 57 17 86q0 24 -18 31.5t-57 7.5l5 18h268
q104 0 150 -45.5t46 -107.5q0 -91 -83 -147t-179 -56q-53 0 -119 17z" />
    <glyph glyph-name="Q" unicode="Q" horiz-adv-x="722" 
d="M284 -15l-119 -99l2 -2q21 4 53 4q45 0 123 -19q96 -21 126 -21q103 0 169 85l16 -8q-42 -66 -119 -103.5t-145 -37.5q-34 0 -136 25q-94 21 -137 21q-32 0 -61 -14l-11 14l196 158q-82 9 -133 76.5t-51 154.5q0 101 56.5 206t158 178.5t215.5 73.5q60 0 106 -21t72 -56
t39 -74t13 -81q0 -50 -16.5 -109.5t-52.5 -122t-85 -113t-122 -83t-157 -32.5zM476 645q-71 0 -133 -48t-100.5 -118.5t-60.5 -146.5t-22 -137q0 -73 35.5 -125.5t105.5 -52.5q67 0 128 48.5t100 120.5t62 149.5t23 139.5q0 70 -35.5 120t-102.5 50z" />
    <glyph glyph-name="R" unicode="R" horiz-adv-x="611" 
d="M416 0l-105 320h-11q-34 0 -63 9l-53 -188q-19 -68 -19 -80q0 -26 21 -34.5t57 -8.5l-5 -18h-262l5 18q54 0 72 17.5t39 88.5l115 395q15 51 15 71q0 23 -19.5 38.5t-53.5 15.5l5 18h224q97 0 147.5 -39.5t50.5 -107.5q0 -73 -54 -124t-130 -62l61 -182
q11 -34 18.5 -51.5t22 -38.5t35 -30t50.5 -9l-5 -18h-158zM320 623l-75 -266q25 -5 55 -5q84 0 131.5 49.5t47.5 112.5q0 113 -122 113q-13 0 -37 -4z" />
    <glyph glyph-name="S" unicode="S" 
d="M6 -15l55 246h18q-5 -32 -5 -57q0 -70 43 -112t113 -42q56 0 92.5 37.5t36.5 91.5q0 36 -23 73t-55.5 69t-65.5 65t-56 74t-23 82q0 73 55.5 119t130.5 46q39 0 92.5 -19.5t58.5 -19.5q13 0 23 6.5t13 11t14 21.5h18l-51 -220h-18q4 30 4 44q0 65 -40 103t-105 38
q-43 0 -77.5 -28.5t-34.5 -72.5q0 -35 23.5 -70.5t57.5 -66.5t68 -63.5t57.5 -73.5t23.5 -84q0 -88 -62 -143t-151 -55q-44 0 -95.5 19.5t-69.5 19.5q-31 0 -47 -39h-18z" />
    <glyph glyph-name="T" unicode="T" horiz-adv-x="556" 
d="M149 662h502l-54 -177h-18q9 40 9 66q0 39 -20.5 55t-83.5 16h-55l-128 -444q-28 -90 -28 -118q0 -15 7 -24t22 -12.5t28 -4.5t35 -1l-5 -18h-288l5 18q55 0 77.5 17t39.5 75l150 512h-20q-90 0 -136 -27t-69 -110h-18z" />
    <glyph glyph-name="U" unicode="U" horiz-adv-x="722" 
d="M284 532l-71 -241q-21 -74 -21 -120q0 -67 47 -104.5t116 -37.5q33 0 62 10t49.5 23t40 39.5t30.5 45.5t24.5 55t19 54t16.5 57l58 202q19 67 19 87q0 42 -74 42l5 18h210l-5 -18q-56 0 -74 -20.5t-39 -94.5l-83 -284q-20 -70 -50 -121t-58.5 -77t-64.5 -41t-59.5 -18
t-51.5 -3q-108 0 -165 59t-57 129q0 36 9 75.5t38 138.5q56 190 56 214q0 27 -21 35t-63 8l6 18h279l-5 -18q-27 0 -46 -5t-30 -11t-20.5 -23.5t-13.5 -29.5t-13 -43z" />
    <glyph glyph-name="V" unicode="V" horiz-adv-x="611" 
d="M290 544l-39 -389l2 -2l250 341q66 89 66 115q0 35 -53 35l5 18h201l-5 -18q-30 0 -60 -21t-51 -46t-61 -80q-7 -10 -11 -15l-366 -497h-18l52 530q5 62 5 85q0 26 -19 35t-65 9l5 18h262l-5 -18q-58 0 -73.5 -18.5t-21.5 -81.5z" />
    <glyph glyph-name="W" unicode="W" horiz-adv-x="833" 
d="M242 181l249 387v19q0 20 -7.5 32.5t-23 17.5t-26 6t-28.5 1l5 18h267l-5 -18q-60 0 -76.5 -16t-22.5 -74l-40 -371l2 -2l201 306q58 90 58 118q0 39 -52 39l5 18h196l-5 -18q-10 0 -20 -3t-18.5 -6.5t-18.5 -11.5t-17 -13.5t-17 -17.5t-15 -18.5t-15.5 -21.5t-14.5 -21
t-14.5 -22.5t-13.5 -21.5l-326 -502h-18l53 508l-2 2l-328 -510h-18l53 525q5 63 5 80q0 54 -72 54l5 18h248l-5 -18q-55 0 -71 -21t-22 -77l-37 -363z" />
    <glyph glyph-name="X" unicode="X" horiz-adv-x="611" 
d="M514 662h224l-5 -18q-48 -4 -86.5 -30.5t-79.5 -71.5l-185 -189l55 -199q19 -70 44 -103t81 -33l-5 -18h-260l5 18q72 0 72 41q0 9 -8 41l-51 185l-165 -165q-1 -2 -10 -10.5t-14 -14.5t-12 -15t-10.5 -16.5t-3.5 -13.5q0 -32 56 -32l-5 -18h-220l5 18q69 0 169 103
l198 201l-57 204q-10 35 -14.5 49t-16 34t-28 27.5t-41.5 7.5l5 18h236l-5 -18q-21 0 -32.5 -1t-23.5 -10t-12 -27q0 -11 15 -65l42 -151l112 113q2 2 16 17t23 25t21 24.5t18 26.5t6 20q0 28 -58 28z" />
    <glyph glyph-name="Y" unicode="Y" horiz-adv-x="556" 
d="M352 352l118 166q56 80 56 98q0 28 -70 28l5 18h208l-5 -18q-36 0 -65 -22t-70 -79l-169 -235l-45 -152q-22 -72 -22 -96q0 -15 7.5 -24t22.5 -12.5t25 -4.5t27 -1l-5 -18h-278l5 18q57 0 77.5 16.5t37.5 72.5l66 215l-75 244q-13 42 -30.5 60t-55.5 18l5 18h243l-5 -18
q-43 0 -60 -8t-17 -36q0 -21 18 -80z" />
    <glyph glyph-name="Z" unicode="Z" horiz-adv-x="556" 
d="M153 662h460v-18l-491 -609h90q37 0 55.5 0.5t51 3t51 7.5t44 15t41.5 25t32.5 37.5t28.5 51.5h18l-58 -175h-476v14l493 613h-161q-46 0 -72.5 -3t-55.5 -13.5t-48.5 -35t-33.5 -64.5h-18z" />
    <glyph glyph-name="bracketleft" unicode="[" horiz-adv-x="389" 
d="M45 -199l257 876h208l-10 -35h-137l-237 -806h137l-10 -35h-208z" />
    <glyph glyph-name="backslash" unicode="\" horiz-adv-x="278" 
d="M140 694l90 -709h-36l-89 709h35z" />
    <glyph glyph-name="bracketright" unicode="]" horiz-adv-x="389" 
d="M366 677l-257 -876h-208l10 35h137l237 806h-137l10 35h208z" />
    <glyph glyph-name="asciicircum" unicode="^" horiz-adv-x="422" 
d="M244 586l-147 -331h-74l188 405h67l188 -405h-74z" />
    <glyph glyph-name="underscore" unicode="_" 
d="M-50 -75h600v-50h-600v50z" />
    <glyph glyph-name="grave" unicode="`" horiz-adv-x="333" 
d="M268 684l52 -167h-18l-144 167h110z" />
    <glyph glyph-name="a" unicode="a" 
d="M469 442l-99 -349q-8 -35 -8 -41q0 -15 12 -15q8 0 17 6t21 20t16 19.5t16 21.5l16 -12q-72 -104 -135 -104q-19 0 -30.5 10.5t-11.5 29.5q0 16 7.5 51.5t12.5 45.5l-2 2q-28 -38 -51.5 -64t-63 -50.5t-77.5 -24.5q-42 0 -65.5 35t-23.5 78q0 78 44.5 159t109 131.5
t120.5 50.5q65 0 80 -66h2l16 54zM355 339q0 79 -61 79q-41 0 -87 -51t-76 -121.5t-30 -127.5q0 -27 15 -49.5t41 -22.5q23 0 56.5 23.5t65 61.5t54 94.5t22.5 113.5z" />
    <glyph glyph-name="b" unicode="b" 
d="M289 694l-97 -335l2 -2q39 42 74 63.5t82 21.5q55 0 87.5 -38t32.5 -94q0 -73 -39.5 -147.5t-108 -124.5t-143.5 -50q-76 0 -153 55l145 500q21 75 21 82q0 27 -42 27q-10 0 -30 -4v19l159 27h10zM164 258l-64 -220q46 -26 84 -26q62 0 111 49t71.5 112.5t22.5 123.5
q0 38 -18.5 68t-54.5 30q-57 0 -96.5 -41.5t-55.5 -95.5z" />
    <glyph glyph-name="c" unicode="c" horiz-adv-x="444" 
d="M372 119l14 -12q-96 -119 -213 -119q-67 0 -106.5 39t-39.5 106q0 74 42.5 146t110.5 117.5t138 45.5q42 0 74.5 -18t32.5 -57q0 -26 -14 -48t-38 -22q-15 0 -25 10t-10 25q0 20 17.5 35.5t17.5 22.5q0 14 -16 21t-32 7q-89 0 -153 -91t-64 -184q0 -51 28 -81t79 -30
q45 0 81 22.5t76 64.5z" />
    <glyph glyph-name="d" unicode="d" 
d="M542 694l-171 -606q-6 -19 -7 -34q0 -11 13 -11q24 0 76 68l17 -11q-27 -41 -66 -76.5t-74 -35.5q-23 0 -35 12.5t-12 33.5q0 15 34 133l-2 2q-112 -181 -204 -181q-44 0 -67.5 39.5t-23.5 86.5q0 70 43.5 147.5t110 129t127.5 51.5q50 0 81 -46l42 147q21 73 21 82
q0 27 -42 27q-10 0 -30 -4v19l159 27h10zM361 347q0 30 -17 50.5t-46 20.5q-67 0 -132 -105t-65 -190q0 -29 13 -53t40 -24q38 0 88 55.5t84.5 127.5t34.5 118z" />
    <glyph glyph-name="e" unicode="e" horiz-adv-x="444" 
d="M383 117l10 -14q-115 -115 -222 -115q-41 0 -71 17t-44.5 42.5t-20.5 47t-6 39.5q0 112 92 210t203 98q42 0 73 -16.5t31 -55.5q0 -51 -46.5 -92t-115.5 -64t-149 -31q-4 -24 -4 -40q0 -45 32 -74.5t77 -29.5q39 0 73.5 18.5t87.5 59.5zM121 208q116 14 176.5 64.5
t60.5 98.5q0 22 -13.5 34.5t-35.5 12.5q-66 0 -120 -68.5t-68 -141.5z" />
    <glyph glyph-name="f" unicode="f" horiz-adv-x="278" 
d="M297 430l-9 -32h-71l-69 -274q-15 -59 -37.5 -115t-54.5 -108.5t-75 -84.5t-89 -32q-23 0 -44.5 13t-21.5 35q0 18 12.5 29t30.5 11q12 0 21.5 -7.5t9.5 -19.5q0 -10 -9 -18.5t-9 -10.5q0 -10 17 -10q26 0 46 12.5t33.5 29.5t28.5 57.5t24.5 73.5t26.5 100l83 319h-86
l8 32q54 0 74.5 16.5t47.5 73.5q22 46 48.5 80t48 51t45 27.5t36.5 13t24 2.5q30 0 57.5 -15t27.5 -43q0 -18 -11 -30t-29 -12q-14 0 -24.5 8t-10.5 22q0 8 6.5 20.5t6.5 13.5q0 14 -23 14q-31 0 -55 -17.5t-43.5 -54t-33 -74t-30.5 -96.5h72z" />
    <glyph glyph-name="g" unicode="g" 
d="M521 411l-15 -50h-81q9 -27 9 -47q0 -77 -62.5 -124t-143.5 -49q-87 -28 -87 -55q0 -15 19.5 -22.5t80.5 -21.5q7 -1 11.5 -2t11.5 -3t13 -3q24 -6 37 -9t36 -12t35.5 -19t22.5 -27t10 -38q0 -40 -24.5 -69.5t-62.5 -45t-76.5 -23t-75.5 -7.5q-29 0 -60 4t-66 14.5
t-57.5 32.5t-22.5 53q0 13 4 25.5t13 23.5t16.5 19t22.5 17.5t22 14t24.5 14t21.5 11.5q-23 16 -23 39q0 50 103 88v2q-46 6 -81 40.5t-35 79.5q0 71 58 125.5t165 54.5q65 0 105 -31h132zM225 163q57 0 91 56.5t34 115.5q0 39 -21.5 62t-59.5 23q-56 0 -90 -56.5
t-34 -116.5q0 -35 23 -59.5t57 -24.5zM117 0q-32 -14 -55.5 -42t-23.5 -60q0 -25 16 -42.5t42 -25.5t49 -11t46 -3q21 0 47 4t54.5 12.5t47.5 26t19 40.5q0 22 -18 36t-68.5 29t-155.5 36z" />
    <glyph glyph-name="h" unicode="h" 
d="M293 694l-136 -464l2 -2q74 108 112 148q64 66 117 66q25 0 40.5 -17t15.5 -42q0 -6 -0.5 -11.5t-0.5 -10.5t-1.5 -11.5t-2.5 -11.5t-3.5 -15t-4.5 -17t-6.5 -22t-7.5 -25.5l-9 -31.5t-11 -37q-38 -124 -38 -132q0 -15 13 -15q23 0 70 66l16 -9q-23 -39 -62.5 -75.5
t-71.5 -36.5q-18 0 -30 11.5t-12 30.5q0 23 45 177q39 134 39 152q0 25 -23 25q-43 0 -118.5 -103t-101.5 -184l-31 -97h-73l156 543q21 75 21 82q0 27 -42 27q-10 0 -30 -4v19l159 27h10z" />
    <glyph glyph-name="i" unicode="i" horiz-adv-x="278" 
d="M228 442l-99 -354q-7 -21 -7 -32q0 -13 14 -13q25 0 75 68l17 -11q-27 -40 -66 -76t-74 -36q-21 0 -34 12.5t-13 33.5q0 8 16 68l53 189q21 75 21 82q0 27 -42 27q-10 0 -30 -4v19l159 27h10zM171 587q0 20 14.5 34.5t34.5 14.5t34.5 -14.5t14.5 -34.5t-14.5 -34.5
t-34.5 -14.5t-34.5 14.5t-14.5 34.5z" />
    <glyph glyph-name="j" unicode="j" horiz-adv-x="278" 
d="M76 415l159 27h10l-123 -426q-67 -232 -222 -232q-26 0 -45 12t-19 37q0 15 12.5 26t27.5 11q11 0 22.5 -7.5t11.5 -17.5q0 -12 -9.5 -20t-9.5 -10q0 -7 14 -7q28 0 49 11t35 35t20.5 41t16.5 49l101 347q21 75 21 82q0 27 -42 27q-10 0 -30 -4v19zM188 587
q0 20 14.5 34.5t34.5 14.5t34.5 -14.5t14.5 -34.5t-14.5 -34.5t-34.5 -14.5t-34.5 14.5t-14.5 34.5z" />
    <glyph glyph-name="k" unicode="k" horiz-adv-x="444" 
d="M293 694l-139 -477l2 -2l44 39q137 117 137 140q0 12 -14.5 15t-47.5 3l5 18h214l-5 -18q-34 -1 -65.5 -13.5t-51 -27t-52.5 -42.5l-53 -45l56 -204q10 -37 26 -37q14 0 36 23t37 44l17 -12q-25 -31 -40 -49t-42.5 -39.5t-49.5 -21.5q-23 0 -34 17.5t-20 53.5l-44 172
l-67 -58l-50 -173h-73l156 543q21 75 21 82q0 27 -42 27q-10 0 -30 -4v19l159 27h10z" />
    <glyph glyph-name="l" unicode="l" horiz-adv-x="278" 
d="M296 694l-171 -606q-7 -21 -7 -32q0 -13 14 -13q25 0 75 68l17 -11q-27 -40 -66 -76t-74 -36q-21 0 -34 12.5t-13 33.5q0 8 16 68l125 441q21 75 21 82q0 27 -42 27q-10 0 -30 -4v19l159 27h10z" />
    <glyph glyph-name="m" unicode="m" horiz-adv-x="722" 
d="M219 442l-63 -214l2 -2q17 34 36.5 64.5t48.5 68t63 60.5t67 23q24 0 39.5 -16.5t15.5 -40.5q0 -26 -14 -73l-31 -106l2 -2q129 238 225 238q25 0 40.5 -17t15.5 -42q0 -6 -0.5 -11.5t-0.5 -10.5t-1.5 -11.5t-2.5 -11.5t-3.5 -15t-4.5 -17t-6.5 -22t-7.5 -25.5l-9 -31.5
t-11 -37q-38 -124 -38 -132q0 -15 13 -15q23 0 70 66l16 -9q-23 -39 -62.5 -75.5t-71.5 -36.5q-18 0 -30 11.5t-12 30.5q0 23 45 177q39 134 39 152q0 25 -23 25q-29 0 -75 -55t-84 -125.5t-55 -123.5l-26 -80h-73l80 284q17 65 17 74q0 26 -25 26q-41 0 -113 -107
t-105 -226l-14 -51h-73l82 291q21 75 21 82q0 27 -42 27q-10 0 -30 -4v19l159 27h10z" />
    <glyph glyph-name="n" unicode="n" 
d="M221 442l-64 -212l2 -2q74 108 112 148q64 66 117 66q25 0 40.5 -17t15.5 -42q0 -6 -0.5 -11.5t-0.5 -10.5t-1.5 -11.5t-2.5 -11.5t-3.5 -15t-4.5 -17t-6.5 -22t-7.5 -25.5l-9 -31.5t-11 -37q-38 -124 -38 -132q0 -15 13 -15q23 0 70 66l16 -9q-23 -39 -62.5 -75.5
t-71.5 -36.5q-18 0 -30 11.5t-12 30.5q0 23 45 177q39 134 39 152q0 25 -23 25q-43 0 -118.5 -103t-101.5 -184l-31 -97h-73l84 291q21 75 21 82q0 27 -42 27q-10 0 -30 -4v19l159 27h10z" />
    <glyph glyph-name="o" unicode="o" 
d="M183 -12q-69 0 -112 42.5t-43 111.5q0 111 88.5 205.5t199.5 94.5q66 0 106 -44.5t40 -111.5q0 -111 -85 -204.5t-194 -93.5zM194 12q45 0 89.5 49t71 122t26.5 142q0 39 -21 66t-59 27q-51 0 -97 -54.5t-70.5 -125.5t-24.5 -129q0 -43 22 -70t63 -27z" />
    <glyph glyph-name="p" unicode="p" 
d="M221 442l-34 -111l2 -2q87 113 180 113q45 0 73 -37t28 -87q0 -66 -36.5 -141.5t-105.5 -132t-149 -56.5q-43 0 -83 25l-32 -114q-14 -48 -14 -61q0 -12 6.5 -19t20 -10t22.5 -3.5t25 -0.5l-5 -18h-230l5 18q42 0 59.5 15t32.5 65l117 406q21 75 21 82q0 27 -42 27
q-10 0 -30 -4v19l159 27h10zM142 172l-35 -121q29 -36 84 -36q45 0 91.5 47t76.5 117.5t30 136.5q0 35 -15 59t-47 24q-46 0 -98.5 -55t-86.5 -172z" />
    <glyph glyph-name="q" unicode="q" 
d="M474 442l-157 -543q-14 -48 -14 -61q0 -33 64 -33l-5 -18h-230l5 18q50 0 68.5 14.5t33.5 65.5l76 260l-2 2q-106 -159 -200 -159q-44 0 -67.5 39.5t-23.5 86.5q0 70 43.5 147.5t110 129t127.5 51.5q60 0 79 -71h2l15 59zM156 46q37 0 86 47.5t85 120t36 134.5
q0 28 -18 49t-45 21q-67 0 -132 -105t-65 -190q0 -29 13 -53t40 -24z" />
    <glyph glyph-name="r" unicode="r" horiz-adv-x="389" 
d="M19 0l82 291q21 75 21 82q0 27 -42 27q-10 0 -30 -4v19l159 27h10l-71 -231l2 -2q34 65 102.5 149t114.5 84q34 0 34 -38q0 -27 -13 -55t-37 -28q-14 0 -21 7t-7 16t-5 16t-16 7t-49.5 -44t-83.5 -120.5t-63 -147.5l-14 -55h-73z" />
    <glyph glyph-name="s" unicode="s" horiz-adv-x="389" 
d="M365 442l-30 -150h-18q1 50 -22 88t-70 38q-27 0 -46 -16.5t-19 -42.5q0 -22 21.5 -51t48 -54.5t48 -63.5t21.5 -74q0 -55 -45.5 -91.5t-101.5 -36.5q-36 0 -69 11.5t-38 11.5q-26 0 -34 -23h-18l30 159h18q0 -135 108 -135q32 0 55.5 19t23.5 50q0 28 -21 61t-46 59
t-46 61.5t-21 67.5q0 49 36 80.5t86 31.5q21 0 55.5 -11.5t39.5 -11.5q23 0 36 23h18z" />
    <glyph glyph-name="t" unicode="t" horiz-adv-x="278" 
d="M259 563l-38 -133h78l-9 -32h-77l-80 -275q-17 -58 -17 -72q0 -17 13 -17q28 0 82 77l17 -11q-27 -40 -66 -76t-74 -36q-21 0 -34 12.5t-13 33.5q0 20 13 69l84 295h-74l5 20q58 14 92.5 46t76.5 99h21z" />
    <glyph glyph-name="u" unicode="u" 
d="M475 442l-86 -291q-23 -77 -23 -93q0 -15 12 -15q15 0 29 14t40 51l15 -11q-25 -41 -60 -75t-70 -34q-41 0 -41 39q0 51 49 195l-2 2q-19 -31 -32.5 -52.5t-41.5 -60t-51.5 -62t-54.5 -42.5t-59 -19q-25 0 -39.5 16.5t-14.5 42.5q0 33 25 121q8 28 16.5 57.5t13.5 45.5
t9.5 33t7 25.5t4.5 17t2.5 14t0.5 11.5q0 15 -13 15q-12 0 -23.5 -9t-27 -29.5t-16.5 -21.5l-15 10q23 38 61 71.5t73 33.5q19 0 30.5 -11t11.5 -31q0 -24 -50 -200q-4 -15 -11.5 -39t-11.5 -37.5t-7.5 -29t-3.5 -26.5q0 -22 22 -22q44 0 123.5 100.5t117.5 239.5l12 44z
" />
    <glyph glyph-name="v" unicode="v" horiz-adv-x="444" 
d="M20 412l141 30q21 -51 33 -119.5t15 -111t8 -135.5q175 192 175 259q0 12 -22.5 29.5t-22.5 37.5q0 17 13 28.5t29 11.5q23 0 37.5 -18.5t14.5 -42.5q0 -117 -276 -393h-18q-6 105 -13 181.5t-14 120t-16.5 69t-17 33t-17.5 7.5q-28 0 -46 -5z" />
    <glyph glyph-name="w" unicode="w" horiz-adv-x="667" 
d="M420 442l34 -366q52 61 108.5 142.5t56.5 118.5q0 18 -22 32.5t-22 35.5q0 16 11.5 26.5t27.5 10.5q23 0 36 -16t13 -39q0 -54 -56.5 -143.5t-196.5 -255.5h-18l-32 334h-2l-199 -334h-22q-6 181 -16 269.5t-22 113t-35 24.5q-26 0 -46 -4v18l141 33q34 -103 42 -326h2
l199 326h18z" />
    <glyph glyph-name="x" unicode="x" horiz-adv-x="444" 
d="M184 219l-21 86q-7 27 -12 41t-15 28.5t-26.5 20.5t-41.5 6h-25v18l130 23q6 -6 11.5 -12.5t9.5 -12t8.5 -14t7.5 -13.5t6.5 -15t5 -14.5t4.5 -15.5t4 -14.5t4 -16t4 -15.5q45 69 81 106t71 37q19 0 33.5 -10t14.5 -28q0 -14 -11 -26t-27 -12q-11 0 -28.5 6t-25.5 6
q-32 0 -100 -112l40 -168q12 -55 30 -55q10 0 35.5 27.5t32.5 43.5l17 -9q-17 -34 -56.5 -75.5t-67.5 -41.5q-38 0 -55 67l-30 128q-4 -6 -24 -39.5t-34 -53.5t-35.5 -47t-43 -41t-42.5 -14q-19 0 -33.5 12t-14.5 31q0 16 10.5 27t26.5 11t31 -13t20 -13q21 0 68.5 70
t62.5 106z" />
    <glyph glyph-name="y" unicode="y" horiz-adv-x="444" 
d="M19 406l143 36q25 -44 34 -135l23 -255q15 20 50 68.5t52 72.5t39.5 57.5t32 53t9.5 29.5q0 8 -8.5 13.5t-19 8.5t-19 14t-8.5 29q0 19 12 31.5t31 12.5q24 0 37 -20.5t13 -46.5q0 -28 -13 -61.5t-49 -85t-66 -90.5t-95 -120q-11 -13 -16 -20q-97 -121 -147.5 -167.5
t-92.5 -46.5q-15 0 -27 11.5t-12 26.5q0 18 15.5 34.5t33.5 16.5q15 0 21 -9t8.5 -18t8.5 -9q18 0 72 54t72 81l-27 308q-6 62 -17.5 86.5t-40.5 24.5q-31 0 -46 -3z" />
    <glyph glyph-name="z" unicode="z" horiz-adv-x="389" 
d="M84 430h310v-13l-339 -351h143q23 0 33.5 0.5t25.5 3.5t23 10.5t17.5 20t17.5 32.5h18l-43 -133h-318v13l336 351h-151q-44 0 -59.5 -9t-36.5 -48h-18z" />
    <glyph glyph-name="braceleft" unicode="{" horiz-adv-x="400" 
d="M100 231l5 18q147 34 147 151q0 66 21 119.5t50.5 84t66.5 52t65 29t50 9.5l-6 -18q-61 -5 -110 -55t-49 -139q0 -28 -6.5 -55t-24.5 -63t-60 -68.5t-105 -53.5v-2q42 -17 68.5 -50t26.5 -77q0 -35 -36 -113q-37 -76 -37 -108q0 -71 83 -90l-5 -18q-59 6 -97.5 46
t-38.5 98q0 46 38 120q38 76 38 98q0 69 -84 85z" />
    <glyph glyph-name="bar" unicode="|" horiz-adv-x="275" 
d="M203 676v-866h-64v866h64z" />
    <glyph glyph-name="braceright" unicode="}" horiz-adv-x="400" 
d="M302 247l-5 -18q-147 -34 -147 -151q0 -66 -21 -119.5t-50.5 -84t-66.5 -52t-65 -29t-50 -9.5l6 18q61 5 110 55t49 139q0 28 6.5 55t24.5 63t60 68.5t105 53.5v2q-42 17 -68.5 50t-26.5 77q0 35 36 113q37 76 37 108q0 71 -83 90l5 18q59 -6 97.5 -46t38.5 -98
q0 -46 -38 -120q-38 -76 -38 -98q0 -69 84 -85z" />
    <glyph glyph-name="asciitilde" unicode="~" horiz-adv-x="541" 
d="M508 409l34 -43q-57 -104 -139 -104q-41 0 -106 34l-12 7q-75 39 -110 39q-33 0 -56 -23t-47 -64l-34 44l6 9q20 31 34.5 49t41.5 34.5t58 16.5q39 0 118 -39q11 -5 11 -6q70 -35 97 -35q57 0 104 81z" />
    <glyph glyph-name="exclamdown" unicode="&#xa1;" horiz-adv-x="389" 
d="M232 300h18q-57 -271 -81 -412q-17 -104 -66 -104q-14 0 -22.5 12t-8.5 27t9.5 49.5t19 62t24.5 67.5t15 41zM265 376q-21 0 -35.5 14.5t-14.5 35.5t14.5 35.5t35.5 14.5t35.5 -14.5t14.5 -35.5t-14.5 -35.5t-35.5 -14.5z" />
    <glyph glyph-name="cent" unicode="&#xa2;" 
d="M197 41l111 369q-74 -24 -122.5 -106t-48.5 -161t60 -102zM338 418l-115 -386h21q45 0 81 22.5t76 64.5l14 -12q-93 -116 -205 -117l-52 -174h-28l52 174q-54 0 -90 40.5t-36 102.5q0 109 83 204.5t177 102.5l59 196h28l-58 -194q44 0 76.5 -18t32.5 -57q0 -26 -14 -48
t-38 -22q-15 0 -25 10t-10 25q0 20 17.5 35.5t17.5 22.5q0 14 -16 21t-32 7h-16z" />
    <glyph glyph-name="sterling" unicode="&#xa3;" 
d="M142 71q-26 15 -45 15t-33 -12.5t-14 -31.5q0 -13 8.5 -23.5t21.5 -10.5q42 0 62 63zM281 362h132l-12 -40h-130q-23 -98 -66 -212q25 -8 55.5 -22.5t54.5 -22.5t52 -8q46 0 74 39h21q-23 -50 -62.5 -80.5t-91.5 -30.5q-26 0 -52 11t-40 20.5t-43 32.5q-41 -64 -89 -64
q-26 0 -43 16.5t-17 41.5q0 37 30 60t68 23l35 -3q6 26 11 93.5t14 105.5h-112l12 40h107q10 47 20 82.5t30.5 82.5t44.5 77t62 51.5t84 21.5q37 0 65.5 -21t28.5 -57q0 -19 -11.5 -32.5t-29.5 -13.5q-16 0 -26 8t-14 18t-8 26q-4 14 -6 20.5t-9.5 14.5t-19.5 8
q-20 0 -36 -17.5t-22.5 -32.5t-14.5 -40q-11 -34 -24.5 -100.5t-21.5 -95.5z" />
    <glyph glyph-name="currency" unicode="&#xa4;" 
d="M469 210l61 -61l-44 -45l-61 62q-73 -49 -148 -49t-147 49l-61 -62l-44 45l61 61q-28 46 -38.5 76t-10.5 71t10.5 71t38.5 76l-61 61l44 45l61 -62q38 26 70.5 37.5t76.5 11.5q45 0 77 -11.5t71 -37.5l61 62l44 -45l-61 -61q28 -47 38.5 -77t10.5 -70q0 -39 -10 -68.5
t-36 -73.5q-3 -3 -3 -5zM452 357q0 75 -52 124.5t-123 49.5q-72 0 -123 -49.5t-51 -124.5q0 -74 51.5 -124t122.5 -50t123 49.5t52 124.5z" />
    <glyph glyph-name="yen" unicode="&#xa5;" 
d="M324 310l-24 -74h217l-10 -35h-216l-19 -66q-16 -61 -16 -76q0 -14 5.5 -22t19 -12t22 -5t28.5 -2l-7 -18h-251l5 18q55 3 71.5 20.5t37.5 87.5l24 78h-203l10 34h203l25 82l-6 16h-194l10 34h173l-53 178q-17 56 -31.5 73t-42.5 23l5 18h217l-5 -18q-15 0 -24 -1
t-22 -4.5t-19.5 -13.5t-6.5 -26q0 -17 12 -59l56 -189l134 185q44 60 44 81q0 24 -63 27l4 18h188l-5 -18q-29 -3 -52.5 -21t-63.5 -72l-134 -181h191l-10 -34h-205z" />
    <glyph glyph-name="brokenbar" unicode="&#xa6;" horiz-adv-x="275" 
d="M203 676v-368h-64v368h64zM203 178v-368h-64v368h64z" />
    <glyph glyph-name="section" unicode="&#xa7;" 
d="M422 219q0 -54 -34 -91t-87 -37q-19 0 -45 11l-2 -2q29 -38 44 -70.5t15 -74.5q0 -69 -49.5 -118.5t-118.5 -49.5q-55 0 -101 32t-46 84q0 15 9 27.5t23 12.5q21 0 31.5 -21.5t14 -46.5t24 -46.5t60.5 -21.5q44 0 77 32t33 78q0 37 -17 72t-41.5 63t-49.5 57t-42 65
t-17 75q0 56 34.5 91t90.5 35q9 0 37 -7h-2l2 2q-54 68 -54 135q0 72 47.5 122t118.5 50q54 0 93 -33.5t39 -68.5q0 -15 -10.5 -26.5t-28.5 -11.5q-16 0 -23.5 18.5t-10.5 41.5t-21.5 41.5t-53.5 18.5q-42 0 -74.5 -32t-32.5 -75q0 -38 17.5 -72.5t42 -61.5t49 -54.5t42 -64
t17.5 -78.5zM373 181q0 61 -46.5 118.5t-105.5 57.5q-30 0 -52.5 -21t-22.5 -51q0 -58 50.5 -117t107.5 -59q28 0 48.5 22t20.5 50z" />
    <glyph glyph-name="dieresis" unicode="&#xa8;" horiz-adv-x="333" 
d="M185 536q-22 0 -37.5 15.5t-15.5 37.5t15.5 37.5t37.5 15.5t37.5 -15.5t15.5 -37.5t-15.5 -37.5t-37.5 -15.5zM357 536q-22 0 -37.5 15.5t-15.5 37.5t15.5 37.5t37.5 15.5t37.5 -15.5t15.5 -37.5t-15.5 -37.5t-37.5 -15.5z" />
    <glyph glyph-name="copyright" unicode="&#xa9;" horiz-adv-x="760" 
d="M577 554l10 -137h-19q-14 53 -53 84t-93 31q-79 0 -119 -54t-40 -136q0 -88 39 -144.5t124 -56.5q45 0 86 21t65 58l19 -10q-66 -99 -190 -99q-91 0 -157.5 61.5t-66.5 152.5q0 101 71 165t174 64q38 0 69 -11q37 -11 38 -11q15 0 24 22h19zM752 331
q0 -143 -101.5 -244.5t-244.5 -101.5t-244.5 101.5t-101.5 244.5t101.5 244.5t244.5 101.5t244.5 -101.5t101.5 -244.5zM722 331q0 131 -92.5 223.5t-223.5 92.5t-223.5 -92.5t-92.5 -223.5t92.5 -223.5t223.5 -92.5t223.5 92.5t92.5 223.5z" />
    <glyph glyph-name="ordfeminine" unicode="&#xaa;" horiz-adv-x="276" 
d="M377 677l-62 -198q-7 -21 -7 -35q0 -9 8 -9q15 0 40 34l5 6l11 -7q-46 -63 -88 -63q-28 0 -28 25q0 14 8 38l6 20l-2 2q-68 -85 -123 -85q-25 0 -41 19t-16 49q0 68 58 136t117 68q21 0 33 -9t18 -31h2l11 33zM266 664q-24 0 -52 -23q-32 -30 -54 -75.5t-22 -82.5
q0 -19 10.5 -31.5t26.5 -12.5q24 0 55 28q33 30 54 71.5t21 77.5q0 48 -39 48zM76 347h234v-23h-234v23z" />
    <glyph glyph-name="guillemotleft" unicode="&#xab;" 
d="M291 449l-166 -233l54 -231h-21l-122 231l229 233h26zM477 449l-166 -233l54 -231h-21l-122 231l229 233h26z" />
    <glyph glyph-name="logicalnot" unicode="&#xac;" horiz-adv-x="675" 
d="M102 467h504v-270h-64v206h-440v64z" />
    <glyph glyph-name="registered" unicode="&#xae;" horiz-adv-x="760" 
d="M273 221v233q0 31 -1.5 43.5t-12 22.5t-32.5 10v18h177q70 0 114.5 -26.5t44.5 -81.5q0 -83 -110 -110l95 -135q35 -52 70 -52v-18h-94l-144 197h-37v-143q0 -17 10 -25.5t20 -9.5t28 -1v-18h-179v18q36 0 43.5 15t7.5 63zM343 344h9q130 0 130 88q0 41 -27.5 67.5
t-69.5 26.5q-22 0 -42 -7v-175zM752 331q0 -143 -101.5 -244.5t-244.5 -101.5t-244.5 101.5t-101.5 244.5t101.5 244.5t244.5 101.5t244.5 -101.5t101.5 -244.5zM722 331q0 131 -92.5 223.5t-223.5 92.5t-223.5 -92.5t-92.5 -223.5t92.5 -223.5t223.5 -92.5t223.5 92.5
t92.5 223.5z" />
    <glyph glyph-name="macron" unicode="&#xaf;" horiz-adv-x="333" 
d="M137 620h293l-17 -63h-293z" />
    <glyph glyph-name="degree" unicode="&#xb0;" horiz-adv-x="400" 
d="M107 526q0 62 44 106t106 44t106 -44t44 -106t-44 -106t-106 -44t-106 43.5t-44 106.5zM149 526q0 -45 31.5 -76.5t76.5 -31.5t76.5 31.5t31.5 76.5t-32 76.5t-76 31.5q-45 0 -76.5 -31.5t-31.5 -76.5z" />
    <glyph glyph-name="plusminus" unicode="&#xb1;" horiz-adv-x="675" 
d="M105 57v64h504v-64h-504zM389 344v-186h-64v186h-220v64h220v187h64v-187h220v-64h-220z" />
    <glyph glyph-name="twosuperior" unicode="&#xb2;" horiz-adv-x="300" 
d="M258 323h-205v13l139 115q80 66 80 123q0 26 -17 41t-43 15q-42 0 -65 -35l-19 7q14 33 44.5 52.5t66.5 19.5q38 0 65.5 -22.5t27.5 -59.5q0 -27 -21 -58t-42 -50l-136 -115l-2 -2h70q13 0 20.5 0.5t18.5 3t18.5 9.5t11.5 18h23z" />
    <glyph glyph-name="threesuperior" unicode="&#xb3;" horiz-adv-x="300" 
d="M134 508v13q20 2 39 6.5t41 13.5t35.5 24t13.5 34t-12.5 31t-31.5 12q-27 0 -54 -36l-20 5v2q33 61 98 61q32 0 56.5 -17.5t24.5 -47.5q0 -28 -25 -49.5t-56 -31.5v-2q53 -21 53 -77q0 -57 -49.5 -94.5t-108.5 -37.5q-24 0 -49.5 7t-25.5 25q0 11 10 17.5t22 6.5
q15 0 40.5 -12t48.5 -12q21 0 36 26t15 50q0 40 -28 60.5t-73 22.5z" />
    <glyph glyph-name="acute" unicode="&#xb4;" horiz-adv-x="333" 
d="M360 684l-144 -167h-18l52 167h110z" />
    <glyph glyph-name="mu" unicode="&#xb5;" horiz-adv-x="542" 
d="M184 437h74l-92 -312q-8 -24 -8 -42q0 -27 15.5 -43t36.5 -16q43 0 91.5 52t66.5 114l73 247h74l-89 -302q-11 -37 -11 -61q0 -23 10 -32.5t23 -9.5q36 0 57 70h18q-36 -117 -105 -117q-34 0 -53.5 26t-19.5 62q0 13 3 26l-2 2q-93 -116 -166 -116q-47 0 -74 43
q-2 -8 -7 -34.5t-9 -47.5q-9 -39 -11 -62q-3 -31 -5 -43.5t-7 -27t-13.5 -19t-22.5 -4.5q-17 0 -29 11t-12 28q0 23 24 70q15 30 19 42l23 62z" />
    <glyph glyph-name="paragraph" unicode="&#xb6;" horiz-adv-x="523" 
d="M537 635l-244 -851h-35l244 851h-91l-244 -851h-36l146 510q-39 0 -69 4.5t-59.5 17.5t-45.5 40t-16 67q0 22 6.5 49t26.5 62t50.5 62.5t85 46.5t124.5 19h230l-8 -27h-65z" />
    <glyph glyph-name="periodcentered" unicode="&#xb7;" horiz-adv-x="250" 
d="M155 282q-21 0 -35.5 14.5t-14.5 35.5t14.5 35.5t35.5 14.5t35.5 -14.5t14.5 -35.5t-14.5 -35.5t-35.5 -14.5z" />
    <glyph glyph-name="cedilla" unicode="&#xb8;" horiz-adv-x="333" 
d="M146 10l-31 -41q34 -4 57 -25.5t23 -54.5q0 -45 -51.5 -71t-101.5 -26q-35 0 -91 13l8 18q31 -7 53 -7q35 0 63 14t28 44q0 42 -68 42l71 94h40z" />
    <glyph glyph-name="onesuperior" unicode="&#xb9;" horiz-adv-x="300" 
d="M303 674l-90 -273q-12 -33 -12 -45q0 -11 9.5 -14t33.5 -3l-5 -16h-160l5 16q22 0 31 1.5t18 10.5t16 30l73 220q5 13 5 22q0 16 -15 16q-11 0 -26 -5l-7 16l106 24h18z" />
    <glyph glyph-name="ordmasculine" unicode="&#xba;" horiz-adv-x="310" 
d="M397 587q0 -71 -56 -126.5t-128 -55.5q-43 0 -70.5 26t-27.5 66q0 67 57.5 123.5t126.5 56.5q43 0 70.5 -25t27.5 -65zM344 606q0 26 -14 41t-38 15q-28 0 -55 -24q-30 -27 -50 -72.5t-20 -86.5q0 -27 15 -43t40 -16q29 0 57 28q29 29 47 73t18 85zM88 347h234v-23h-234
v23z" />
    <glyph glyph-name="guillemotright" unicode="&#xbb;" 
d="M209 -15l166 233l-54 231h21l122 -231l-229 -233h-26zM23 -15l166 233l-54 231h21l122 -231l-229 -233h-26z" />
    <glyph glyph-name="onequarter" unicode="&#xbc;" horiz-adv-x="750" 
d="M703 336l-76 -225h49l-13 -35h-47l-30 -91h-51l30 91h-144l13 39l237 221h32zM576 111l47 142h-2l-148 -142h103zM303 674l-90 -273q-12 -33 -12 -45q0 -11 9.5 -14t33.5 -3l-5 -16h-160l5 16q22 0 31 1.5t18 10.5t16 30l73 220q5 13 5 22q0 16 -15 16q-11 0 -26 -5
l-7 16l106 24h18zM648 674l-457 -701h-44l457 701h44z" />
    <glyph glyph-name="onehalf" unicode="&#xbd;" horiz-adv-x="750" 
d="M625 674l-457 -701h-44l457 701h44zM615 -15h-205v13l139 115q80 66 80 123q0 26 -17 41t-43 15q-42 0 -65 -35l-19 7q14 33 44.5 52.5t66.5 19.5q38 0 65.5 -22.5t27.5 -59.5q0 -27 -21 -58t-42 -50l-136 -115l-2 -2h70q13 0 20.5 0.5t18.5 3t18.5 9.5t11.5 18h23z
M303 674l-90 -273q-12 -33 -12 -45q0 -11 9.5 -14t33.5 -3l-5 -16h-160l5 16q22 0 31 1.5t18 10.5t16 30l73 220q5 13 5 22q0 16 -15 16q-11 0 -26 -5l-7 16l106 24h18z" />
    <glyph glyph-name="threequarters" unicode="&#xbe;" horiz-adv-x="750" 
d="M703 336l-76 -225h49l-13 -35h-47l-30 -91h-51l30 91h-144l13 39l237 221h32zM576 111l47 142h-2l-148 -142h103zM134 508v13q20 2 39 6.5t41 13.5t35.5 24t13.5 34t-12.5 31t-31.5 12q-27 0 -54 -36l-20 5v2q33 61 98 61q32 0 56.5 -17.5t24.5 -47.5q0 -28 -25 -49.5
t-56 -31.5v-2q53 -21 53 -77q0 -57 -49.5 -94.5t-108.5 -37.5q-24 0 -49.5 7t-25.5 25q0 11 10 17.5t22 6.5q15 0 40.5 -12t48.5 -12q21 0 36 26t15 50q0 40 -28 60.5t-73 22.5zM642 674l-457 -701h-44l457 701h44z" />
    <glyph glyph-name="questiondown" unicode="&#xbf;" 
d="M319 298h18q-2 -50 -26 -97t-56.5 -83.5t-64.5 -70.5t-54 -72.5t-22 -76.5q0 -42 29 -67t72 -25q25 0 52 10.5t27 31.5q0 9 -8 26.5t-8 28.5q0 17 11.5 27.5t29.5 10.5q17 0 28.5 -12.5t11.5 -30.5q0 -53 -49 -83.5t-106 -30.5q-81 0 -124.5 44.5t-43.5 94.5
q0 43 26.5 80t66 65.5t79.5 58.5t72 74t39 97zM348 376q-21 0 -35.5 14.5t-14.5 35.5t14.5 35.5t35.5 14.5t35.5 -14.5t14.5 -35.5t-14.5 -35.5t-35.5 -14.5z" />
    <glyph glyph-name="Agrave" unicode="&#xc0;" horiz-adv-x="611" 
d="M387 218h-189l-60 -81q-2 -3 -9.5 -13t-11.5 -16.5t-10 -16t-8.5 -18t-2.5 -15.5q0 -40 55 -40l-5 -18h-196l5 18q12 0 23.5 3.5t20.5 7.5t20 13.5t17.5 15t17.5 19t15 18.5t15.5 21t13.5 19l398 542h18l-49 -522q-5 -63 -5 -80q0 -33 20.5 -45t64.5 -12l-5 -18h-260
l5 18q57 0 73 22t20 76zM414 512l-189 -259h166l25 259h-2zM525 910l52 -167h-18l-144 167h110z" />
    <glyph glyph-name="Aacute" unicode="&#xc1;" horiz-adv-x="611" 
d="M387 218h-189l-60 -81q-2 -3 -9.5 -13t-11.5 -16.5t-10 -16t-8.5 -18t-2.5 -15.5q0 -40 55 -40l-5 -18h-196l5 18q12 0 23.5 3.5t20.5 7.5t20 13.5t17.5 15t17.5 19t15 18.5t15.5 21t13.5 19l398 542h18l-49 -522q-5 -63 -5 -80q0 -33 20.5 -45t64.5 -12l-5 -18h-260
l5 18q57 0 73 22t20 76zM414 512l-189 -259h166l25 259h-2zM617 910l-144 -167h-18l52 167h110z" />
    <glyph glyph-name="Acircumflex" unicode="&#xc2;" horiz-adv-x="611" 
d="M387 218h-189l-60 -81q-2 -3 -9.5 -13t-11.5 -16.5t-10 -16t-8.5 -18t-2.5 -15.5q0 -40 55 -40l-5 -18h-196l5 18q12 0 23.5 3.5t20.5 7.5t20 13.5t17.5 15t17.5 19t15 18.5t15.5 21t13.5 19l398 542h18l-49 -522q-5 -63 -5 -80q0 -33 20.5 -45t64.5 -12l-5 -18h-260
l5 18q57 0 73 22t20 76zM414 512l-189 -259h166l25 259h-2zM606 892l36 -154h-10l-82 99l-156 -99h-13l152 154h73z" />
    <glyph glyph-name="Atilde" unicode="&#xc3;" horiz-adv-x="611" 
d="M387 218h-189l-60 -81q-2 -3 -9.5 -13t-11.5 -16.5t-10 -16t-8.5 -18t-2.5 -15.5q0 -40 55 -40l-5 -18h-196l5 18q12 0 23.5 3.5t20.5 7.5t20 13.5t17.5 15t17.5 19t15 18.5t15.5 21t13.5 19l398 542h18l-49 -522q-5 -63 -5 -80q0 -33 20.5 -45t64.5 -12l-5 -18h-260
l5 18q57 0 73 22t20 76zM414 512l-189 -259h166l25 259h-2zM368 750h-15q-1 52 22 90t71 38q34 0 86 -34t71 -34q37 0 47 68h15q1 -52 -22 -90t-71 -38q-34 0 -86 34t-71 34q-37 0 -47 -68z" />
    <glyph glyph-name="Adieresis" unicode="&#xc4;" horiz-adv-x="611" 
d="M387 218h-189l-60 -81q-2 -3 -9.5 -13t-11.5 -16.5t-10 -16t-8.5 -18t-2.5 -15.5q0 -40 55 -40l-5 -18h-196l5 18q12 0 23.5 3.5t20.5 7.5t20 13.5t17.5 15t17.5 19t15 18.5t15.5 21t13.5 19l398 542h18l-49 -522q-5 -63 -5 -80q0 -33 20.5 -45t64.5 -12l-5 -18h-260
l5 18q57 0 73 22t20 76zM414 512l-189 -259h166l25 259h-2zM442 762q-22 0 -37.5 15.5t-15.5 37.5t15.5 37.5t37.5 15.5t37.5 -15.5t15.5 -37.5t-15.5 -37.5t-37.5 -15.5zM614 762q-22 0 -37.5 15.5t-15.5 37.5t15.5 37.5t37.5 15.5t37.5 -15.5t15.5 -37.5t-15.5 -37.5
t-37.5 -15.5z" />
    <glyph glyph-name="Aring" unicode="&#xc5;" horiz-adv-x="611" 
d="M387 218h-189l-60 -81q-2 -3 -9.5 -13t-11.5 -16.5t-10 -16t-8.5 -18t-2.5 -15.5q0 -40 55 -40l-5 -18h-196l5 18q12 0 23.5 3.5t20.5 7.5t20 13.5t17.5 15t17.5 19t15 18.5t15.5 21t13.5 19l398 542h18l-49 -522q-5 -63 -5 -80q0 -33 20.5 -45t64.5 -12l-5 -18h-260
l5 18q57 0 73 22t20 76zM414 512l-189 -259h166l25 259h-2zM441 810q0 38 27.5 65.5t65.5 27.5t65.5 -27.5t27.5 -65.5t-27.5 -65.5t-65.5 -27.5t-65.5 27.5t-27.5 65.5zM470 810q0 -26 19 -45t45 -19t45 19t19 45t-19 45t-45 19t-45 -19t-19 -45z" />
    <glyph glyph-name="AE" unicode="&#xc6;" horiz-adv-x="889" 
d="M424 238h-202l-65 -80q-63 -76 -63 -104q0 -36 55 -36l-5 -18h-197l5 18q33 0 63.5 25.5t80.5 87.5l332 413q2 2 9.5 11.5t12 16t10.5 15.5t9 16.5t3 14.5q0 26 -52 26l5 18h484l-42 -160h-18q3 21 3 39q0 8 -1.5 16.5t-7.5 21.5t-16 23t-29.5 17.5t-45.5 7.5h-132
l-76 -263h39q31 0 45 1t34 5.5t31.5 14t25 28t25.5 46.5h18l-68 -241h-18q7 32 7 50q0 21 -7.5 35t-22 19t-23.5 6t-24 1h-71l-60 -206q-13 -46 -13 -57q0 -15 7.5 -22t16.5 -8t31 -1q117 0 175 27t113 122h18l-63 -184h-486l5 18q54 0 72 17.5t39 88.5zM435 273l101 351
l-2 2l-285 -353h186z" />
    <glyph glyph-name="Ccedilla" unicode="&#xc7;" horiz-adv-x="667" 
d="M704 677l-50 -214h-18v41q0 46 -16.5 77t-43 43.5t-46 16.5t-39.5 4q-96 0 -171.5 -65.5t-112.5 -157t-37 -184.5q0 -92 55 -151.5t146 -59.5q134 0 221 124h23q-100 -166 -276 -166q-121 0 -196.5 72.5t-75.5 192.5q0 111 59 210t158 158t210 59q46 0 104 -23
q26 -10 39 -10q10 0 20.5 6t14.5 10.5t14 16.5h18zM313 10l-31 -41q34 -4 57 -25.5t23 -54.5q0 -45 -51.5 -71t-101.5 -26q-35 0 -91 13l8 18q32 -7 53 -7q35 0 63 14t28 44q0 42 -68 42l71 94h40z" />
    <glyph glyph-name="Egrave" unicode="&#xc8;" horiz-adv-x="611" 
d="M92 124l115 395q17 57 17 86q0 24 -18 31.5t-57 7.5l5 18h477l-42 -160h-18q3 21 3 39q0 8 -1.5 16.5t-9 21.5t-19.5 23t-35.5 17.5t-54.5 7.5h-132l-76 -263h49q31 0 45 1t34 5.5t31.5 14t25 28t25.5 46.5h18l-68 -241h-18q7 32 7 50q0 21 -7.5 35t-22 19t-23.5 6t-24 1
h-81l-60 -206q-13 -46 -13 -57q0 -22 15 -26.5t65 -4.5q117 0 175 27t113 122h18l-63 -184h-511l5 18q54 0 72 17.5t39 88.5zM473 910l52 -167h-18l-144 167h110z" />
    <glyph glyph-name="Eacute" unicode="&#xc9;" horiz-adv-x="611" 
d="M92 124l115 395q17 57 17 86q0 24 -18 31.5t-57 7.5l5 18h477l-42 -160h-18q3 21 3 39q0 8 -1.5 16.5t-9 21.5t-19.5 23t-35.5 17.5t-54.5 7.5h-132l-76 -263h49q31 0 45 1t34 5.5t31.5 14t25 28t25.5 46.5h18l-68 -241h-18q7 32 7 50q0 21 -7.5 35t-22 19t-23.5 6t-24 1
h-81l-60 -206q-13 -46 -13 -57q0 -22 15 -26.5t65 -4.5q117 0 175 27t113 122h18l-63 -184h-511l5 18q54 0 72 17.5t39 88.5zM565 910l-144 -167h-18l52 167h110z" />
    <glyph glyph-name="Ecircumflex" unicode="&#xca;" horiz-adv-x="611" 
d="M92 124l115 395q17 57 17 86q0 24 -18 31.5t-57 7.5l5 18h477l-42 -160h-18q3 21 3 39q0 8 -1.5 16.5t-9 21.5t-19.5 23t-35.5 17.5t-54.5 7.5h-132l-76 -263h49q31 0 45 1t34 5.5t31.5 14t25 28t25.5 46.5h18l-68 -241h-18q7 32 7 50q0 21 -7.5 35t-22 19t-23.5 6t-24 1
h-81l-60 -206q-13 -46 -13 -57q0 -22 15 -26.5t65 -4.5q117 0 175 27t113 122h18l-63 -184h-511l5 18q54 0 72 17.5t39 88.5zM554 892l36 -154h-10l-82 99l-156 -99h-13l152 154h73z" />
    <glyph glyph-name="Edieresis" unicode="&#xcb;" horiz-adv-x="611" 
d="M92 124l115 395q17 57 17 86q0 24 -18 31.5t-57 7.5l5 18h477l-42 -160h-18q3 21 3 39q0 8 -1.5 16.5t-9 21.5t-19.5 23t-35.5 17.5t-54.5 7.5h-132l-76 -263h49q31 0 45 1t34 5.5t31.5 14t25 28t25.5 46.5h18l-68 -241h-18q7 32 7 50q0 21 -7.5 35t-22 19t-23.5 6t-24 1
h-81l-60 -206q-13 -46 -13 -57q0 -22 15 -26.5t65 -4.5q117 0 175 27t113 122h18l-63 -184h-511l5 18q54 0 72 17.5t39 88.5zM390 762q-22 0 -37.5 15.5t-15.5 37.5t15.5 37.5t37.5 15.5t37.5 -15.5t15.5 -37.5t-15.5 -37.5t-37.5 -15.5zM562 762q-22 0 -37.5 15.5
t-15.5 37.5t15.5 37.5t37.5 15.5t37.5 -15.5t15.5 -37.5t-15.5 -37.5t-37.5 -15.5z" />
    <glyph glyph-name="Igrave" unicode="&#xcc;" horiz-adv-x="333" 
d="M303 556l-119 -415q-19 -68 -19 -80q0 -26 21 -34.5t57 -8.5l-5 -18h-262l5 18q54 0 72 17.5t39 88.5l115 395q17 57 17 86q0 24 -18 31.5t-57 7.5l5 18h262l-5 -18h-21q-39 0 -58 -24.5t-29 -63.5zM334 910l52 -167h-18l-144 167h110z" />
    <glyph glyph-name="Iacute" unicode="&#xcd;" horiz-adv-x="333" 
d="M303 556l-119 -415q-19 -68 -19 -80q0 -26 21 -34.5t57 -8.5l-5 -18h-262l5 18q54 0 72 17.5t39 88.5l115 395q17 57 17 86q0 24 -18 31.5t-57 7.5l5 18h262l-5 -18h-21q-39 0 -58 -24.5t-29 -63.5zM426 910l-144 -167h-18l52 167h110z" />
    <glyph glyph-name="Icircumflex" unicode="&#xce;" horiz-adv-x="333" 
d="M303 556l-119 -415q-19 -68 -19 -80q0 -26 21 -34.5t57 -8.5l-5 -18h-262l5 18q54 0 72 17.5t39 88.5l115 395q17 57 17 86q0 24 -18 31.5t-57 7.5l5 18h262l-5 -18h-21q-39 0 -58 -24.5t-29 -63.5zM415 892l36 -154h-10l-82 99l-156 -99h-13l152 154h73z" />
    <glyph glyph-name="Idieresis" unicode="&#xcf;" horiz-adv-x="333" 
d="M303 556l-119 -415q-19 -68 -19 -80q0 -26 21 -34.5t57 -8.5l-5 -18h-262l5 18q54 0 72 17.5t39 88.5l115 395q17 57 17 86q0 24 -18 31.5t-57 7.5l5 18h262l-5 -18h-21q-39 0 -58 -24.5t-29 -63.5zM251 762q-22 0 -37.5 15.5t-15.5 37.5t15.5 37.5t37.5 15.5t37.5 -15.5
t15.5 -37.5t-15.5 -37.5t-37.5 -15.5zM423 762q-22 0 -37.5 15.5t-15.5 37.5t15.5 37.5t37.5 15.5t37.5 -15.5t15.5 -37.5t-15.5 -37.5t-37.5 -15.5z" />
    <glyph glyph-name="Eth" unicode="&#xd0;" horiz-adv-x="722" 
d="M-26 0l5 16l13 1q44 3 60.5 22t37.5 91l60 200h-88l11 37h87l48 164q5 17 10 41q4 14 4 27q0 43 -63 44h-12l4 19h215q112 0 179 -22q71 -23 117.5 -95t46.5 -158q0 -67 -28 -134.5t-77 -119.5q-123 -133 -351 -133h-279zM322 626l-75 -259h180l-10 -37h-181l-58 -200
q-1 -5 -3.5 -14.5t-3.5 -13.5q-10 -34 -10 -42q0 -28 59 -28q51 0 105 8q92 14 145 53q63 47 98.5 127t35.5 176q0 114 -55.5 173t-164.5 59z" />
    <glyph glyph-name="Ntilde" unicode="&#xd1;" horiz-adv-x="667" 
d="M287 662l202 -517h2l108 374q17 57 17 86q0 24 -18 31.5t-57 7.5l5 18h215l-5 -18h-21q-39 0 -58 -24.5t-29 -63.5l-163 -571h-18l-218 556h-2l-113 -400q-19 -68 -19 -80q0 -26 21 -34.5t57 -8.5l-5 -18h-212l5 18q54 0 72 17.5t39 88.5l132 467q-18 31 -43.5 42
t-64.5 11l5 18h166zM344 750h-15q-1 52 22 90t71 38q34 0 86 -34t71 -34q37 0 47 68h15q1 -52 -22 -90t-71 -38q-34 0 -86 34t-71 34q-37 0 -47 -68z" />
    <glyph glyph-name="Ograve" unicode="&#xd2;" horiz-adv-x="722" 
d="M487 677q60 0 106 -21t72 -56t39 -74t13 -81q0 -50 -16.5 -109.5t-52.5 -122t-85 -113t-122 -83t-157 -32.5q-53 0 -94.5 17.5t-66 43.5t-40 59.5t-21 61t-5.5 52.5q0 101 56.5 206t158 178.5t215.5 73.5zM476 645q-71 0 -133 -48t-100.5 -118.5t-60.5 -146.5t-22 -137
q0 -73 35.5 -125.5t105.5 -52.5q67 0 128 48.5t100 120.5t62 149.5t23 139.5q0 70 -35.5 120t-102.5 50zM529 910l52 -167h-18l-144 167h110z" />
    <glyph glyph-name="Oacute" unicode="&#xd3;" horiz-adv-x="722" 
d="M487 677q60 0 106 -21t72 -56t39 -74t13 -81q0 -50 -16.5 -109.5t-52.5 -122t-85 -113t-122 -83t-157 -32.5q-53 0 -94.5 17.5t-66 43.5t-40 59.5t-21 61t-5.5 52.5q0 101 56.5 206t158 178.5t215.5 73.5zM476 645q-71 0 -133 -48t-100.5 -118.5t-60.5 -146.5t-22 -137
q0 -73 35.5 -125.5t105.5 -52.5q67 0 128 48.5t100 120.5t62 149.5t23 139.5q0 70 -35.5 120t-102.5 50zM621 910l-144 -167h-18l52 167h110z" />
    <glyph glyph-name="Ocircumflex" unicode="&#xd4;" horiz-adv-x="722" 
d="M487 677q60 0 106 -21t72 -56t39 -74t13 -81q0 -50 -16.5 -109.5t-52.5 -122t-85 -113t-122 -83t-157 -32.5q-53 0 -94.5 17.5t-66 43.5t-40 59.5t-21 61t-5.5 52.5q0 101 56.5 206t158 178.5t215.5 73.5zM476 645q-71 0 -133 -48t-100.5 -118.5t-60.5 -146.5t-22 -137
q0 -73 35.5 -125.5t105.5 -52.5q67 0 128 48.5t100 120.5t62 149.5t23 139.5q0 70 -35.5 120t-102.5 50zM610 892l36 -154h-10l-82 99l-156 -99h-13l152 154h73z" />
    <glyph glyph-name="Otilde" unicode="&#xd5;" horiz-adv-x="722" 
d="M487 677q60 0 106 -21t72 -56t39 -74t13 -81q0 -50 -16.5 -109.5t-52.5 -122t-85 -113t-122 -83t-157 -32.5q-53 0 -94.5 17.5t-66 43.5t-40 59.5t-21 61t-5.5 52.5q0 101 56.5 206t158 178.5t215.5 73.5zM476 645q-71 0 -133 -48t-100.5 -118.5t-60.5 -146.5t-22 -137
q0 -73 35.5 -125.5t105.5 -52.5q67 0 128 48.5t100 120.5t62 149.5t23 139.5q0 70 -35.5 120t-102.5 50zM372 750h-15q-1 52 22 90t71 38q34 0 86 -34t71 -34q37 0 47 68h15q1 -52 -22 -90t-71 -38q-34 0 -86 34t-71 34q-37 0 -47 -68z" />
    <glyph glyph-name="Odieresis" unicode="&#xd6;" horiz-adv-x="722" 
d="M487 677q60 0 106 -21t72 -56t39 -74t13 -81q0 -50 -16.5 -109.5t-52.5 -122t-85 -113t-122 -83t-157 -32.5q-53 0 -94.5 17.5t-66 43.5t-40 59.5t-21 61t-5.5 52.5q0 101 56.5 206t158 178.5t215.5 73.5zM476 645q-71 0 -133 -48t-100.5 -118.5t-60.5 -146.5t-22 -137
q0 -73 35.5 -125.5t105.5 -52.5q67 0 128 48.5t100 120.5t62 149.5t23 139.5q0 70 -35.5 120t-102.5 50zM446 762q-22 0 -37.5 15.5t-15.5 37.5t15.5 37.5t37.5 15.5t37.5 -15.5t15.5 -37.5t-15.5 -37.5t-37.5 -15.5zM618 762q-22 0 -37.5 15.5t-15.5 37.5t15.5 37.5
t37.5 15.5t37.5 -15.5t15.5 -37.5t-15.5 -37.5t-37.5 -15.5z" />
    <glyph glyph-name="multiply" unicode="&#xd7;" horiz-adv-x="675" 
d="M364 287l-156 -156l-45 45l156 156l-156 156l45 45l156 -156l156 156l45 -45l-156 -156l156 -156l-45 -45z" />
    <glyph glyph-name="Oslash" unicode="&#xd8;" horiz-adv-x="722" 
d="M168 129l425 441q-35 75 -117 75q-71 0 -133 -48t-100.5 -118.5t-60.5 -146.5t-22 -137q0 -34 8 -66zM607 530l-424 -439q38 -74 118 -74q67 0 128 48.5t100 120.5t62 149.5t23 139.5q0 30 -7 55zM643 622l65 67l27 -27l-66 -68q48 -62 48 -149q0 -50 -16.5 -109.5
t-52.5 -122t-85 -113t-122 -83t-157 -32.5q-95 0 -152 54l-72 -74l-27 23l75 78q-51 65 -51 153q0 101 56.5 206t158 178.5t215.5 73.5q96 0 156 -55z" />
    <glyph glyph-name="Ugrave" unicode="&#xd9;" horiz-adv-x="722" 
d="M284 532l-71 -241q-21 -74 -21 -120q0 -67 47 -104.5t116 -37.5q33 0 62 10t49.5 23t40 39.5t30.5 45.5t24.5 55t19 54t16.5 57l58 202q19 67 19 87q0 42 -74 42l5 18h210l-5 -18q-56 0 -74 -20.5t-39 -94.5l-83 -284q-20 -70 -50 -121t-58.5 -77t-64.5 -41t-59.5 -18
t-51.5 -3q-108 0 -165 59t-57 129q0 36 9 75.5t38 138.5q56 190 56 214q0 27 -21 35t-63 8l6 18h279l-5 -18q-27 0 -46 -5t-30 -11t-20.5 -23.5t-13.5 -29.5t-13 -43zM529 910l52 -167h-18l-144 167h110z" />
    <glyph glyph-name="Uacute" unicode="&#xda;" horiz-adv-x="722" 
d="M284 532l-71 -241q-21 -74 -21 -120q0 -67 47 -104.5t116 -37.5q33 0 62 10t49.5 23t40 39.5t30.5 45.5t24.5 55t19 54t16.5 57l58 202q19 67 19 87q0 42 -74 42l5 18h210l-5 -18q-56 0 -74 -20.5t-39 -94.5l-83 -284q-20 -70 -50 -121t-58.5 -77t-64.5 -41t-59.5 -18
t-51.5 -3q-108 0 -165 59t-57 129q0 36 9 75.5t38 138.5q56 190 56 214q0 27 -21 35t-63 8l6 18h279l-5 -18q-27 0 -46 -5t-30 -11t-20.5 -23.5t-13.5 -29.5t-13 -43zM621 910l-144 -167h-18l52 167h110z" />
    <glyph glyph-name="Ucircumflex" unicode="&#xdb;" horiz-adv-x="722" 
d="M284 532l-71 -241q-21 -74 -21 -120q0 -67 47 -104.5t116 -37.5q33 0 62 10t49.5 23t40 39.5t30.5 45.5t24.5 55t19 54t16.5 57l58 202q19 67 19 87q0 42 -74 42l5 18h210l-5 -18q-56 0 -74 -20.5t-39 -94.5l-83 -284q-20 -70 -50 -121t-58.5 -77t-64.5 -41t-59.5 -18
t-51.5 -3q-108 0 -165 59t-57 129q0 36 9 75.5t38 138.5q56 190 56 214q0 27 -21 35t-63 8l6 18h279l-5 -18q-27 0 -46 -5t-30 -11t-20.5 -23.5t-13.5 -29.5t-13 -43zM610 892l36 -154h-10l-82 99l-156 -99h-13l152 154h73z" />
    <glyph glyph-name="Udieresis" unicode="&#xdc;" horiz-adv-x="722" 
d="M284 532l-71 -241q-21 -74 -21 -120q0 -67 47 -104.5t116 -37.5q33 0 62 10t49.5 23t40 39.5t30.5 45.5t24.5 55t19 54t16.5 57l58 202q19 67 19 87q0 42 -74 42l5 18h210l-5 -18q-56 0 -74 -20.5t-39 -94.5l-83 -284q-20 -70 -50 -121t-58.5 -77t-64.5 -41t-59.5 -18
t-51.5 -3q-108 0 -165 59t-57 129q0 36 9 75.5t38 138.5q56 190 56 214q0 27 -21 35t-63 8l6 18h279l-5 -18q-27 0 -46 -5t-30 -11t-20.5 -23.5t-13.5 -29.5t-13 -43zM446 762q-22 0 -37.5 15.5t-15.5 37.5t15.5 37.5t37.5 15.5t37.5 -15.5t15.5 -37.5t-15.5 -37.5
t-37.5 -15.5zM618 762q-22 0 -37.5 15.5t-15.5 37.5t15.5 37.5t37.5 15.5t37.5 -15.5t15.5 -37.5t-15.5 -37.5t-37.5 -15.5z" />
    <glyph glyph-name="Yacute" unicode="&#xdd;" horiz-adv-x="556" 
d="M352 352l118 166q56 80 56 98q0 28 -70 28l5 18h208l-5 -18q-36 0 -65 -22t-70 -79l-169 -235l-45 -152q-22 -72 -22 -96q0 -15 7.5 -24t22.5 -12.5t25 -4.5t27 -1l-5 -18h-278l5 18q57 0 77.5 16.5t37.5 72.5l66 215l-75 244q-13 42 -30.5 60t-55.5 18l5 18h243l-5 -18
q-43 0 -60 -8t-17 -36q0 -21 18 -80zM538 910l-144 -167h-18l52 167h110z" />
    <glyph glyph-name="Thorn" unicode="&#xde;" horiz-adv-x="611" 
d="M186 148l-2 -7q-19 -68 -19 -80q0 -26 21 -34.5t57 -8.5l-5 -18h-262l5 18q54 0 72 17.5t39 88.5l115 395q17 57 17 86q0 24 -18 31.5t-57 7.5l5 18h262l-5 -18h-21q-39 0 -58 -24.5t-29 -63.5l-12 -43h126q88 0 137.5 -41.5t49.5 -117.5q0 -86 -72 -146t-183 -60h-163z
M280 478l-84 -295h95q61 0 104 16t65 43.5t31.5 57t9.5 63.5q0 36 -11 61t-29.5 35.5t-34 14.5t-31.5 4h-115z" />
    <glyph glyph-name="germandbls" unicode="&#xdf;" 
d="M-12 -77l164 583q53 188 204 188q61 0 101.5 -35.5t40.5 -96.5q0 -73 -56 -117.5t-132 -52.5v-2q61 -12 97.5 -52t36.5 -102q0 -95 -67 -171.5t-138 -76.5q-34 0 -54.5 25.5t-20.5 60.5q0 22 9.5 38t30.5 16q15 0 24 -10t9 -25q0 -12 -9.5 -32.5t-9.5 -28.5
q0 -10 7.5 -16t17.5 -6q39 0 78 77.5t39 165.5q0 52 -29.5 89.5t-80.5 40.5l6 22q41 0 73 16t50 38t29.5 49t15.5 46.5t4 32.5q0 34 -21 58.5t-54 24.5q-48 0 -76.5 -44.5t-59.5 -149.5q-113 -389 -159 -527q-20 -60 -64.5 -112.5t-98.5 -52.5q-23 0 -39.5 13.5t-16.5 35.5
q0 15 10.5 25t25.5 10q10 0 18 -7t8 -17q0 -6 -5.5 -16t-5.5 -14q0 -8 15 -8q27 0 48.5 34.5t34.5 82.5z" />
    <glyph glyph-name="agrave" unicode="&#xe0;" 
d="M469 442l-99 -349q-8 -35 -8 -41q0 -15 12 -15q8 0 17 6t21 20t16 19.5t16 21.5l16 -12q-72 -104 -135 -104q-19 0 -30.5 10.5t-11.5 29.5q0 16 7.5 51.5t12.5 45.5l-2 2q-28 -38 -51.5 -64t-63 -50.5t-77.5 -24.5q-42 0 -65.5 35t-23.5 78q0 78 44.5 159t109 131.5
t120.5 50.5q65 0 80 -66h2l16 54zM355 339q0 79 -61 79q-41 0 -87 -51t-76 -121.5t-30 -127.5q0 -27 15 -49.5t41 -22.5q23 0 56.5 23.5t65 61.5t54 94.5t22.5 113.5zM352 684l52 -167h-18l-144 167h110z" />
    <glyph glyph-name="aacute" unicode="&#xe1;" 
d="M469 442l-99 -349q-8 -35 -8 -41q0 -15 12 -15q8 0 17 6t21 20t16 19.5t16 21.5l16 -12q-72 -104 -135 -104q-19 0 -30.5 10.5t-11.5 29.5q0 16 7.5 51.5t12.5 45.5l-2 2q-28 -38 -51.5 -64t-63 -50.5t-77.5 -24.5q-42 0 -65.5 35t-23.5 78q0 78 44.5 159t109 131.5
t120.5 50.5q65 0 80 -66h2l16 54zM355 339q0 79 -61 79q-41 0 -87 -51t-76 -121.5t-30 -127.5q0 -27 15 -49.5t41 -22.5q23 0 56.5 23.5t65 61.5t54 94.5t22.5 113.5zM444 684l-144 -167h-18l52 167h110z" />
    <glyph glyph-name="acircumflex" unicode="&#xe2;" 
d="M469 442l-99 -349q-8 -35 -8 -41q0 -15 12 -15q8 0 17 6t21 20t16 19.5t16 21.5l16 -12q-72 -104 -135 -104q-19 0 -30.5 10.5t-11.5 29.5q0 16 7.5 51.5t12.5 45.5l-2 2q-28 -38 -51.5 -64t-63 -50.5t-77.5 -24.5q-42 0 -65.5 35t-23.5 78q0 78 44.5 159t109 131.5
t120.5 50.5q65 0 80 -66h2l16 54zM355 339q0 79 -61 79q-41 0 -87 -51t-76 -121.5t-30 -127.5q0 -27 15 -49.5t41 -22.5q23 0 56.5 23.5t65 61.5t54 94.5t22.5 113.5zM433 666l36 -154h-10l-82 99l-156 -99h-13l152 154h73z" />
    <glyph glyph-name="atilde" unicode="&#xe3;" 
d="M469 442l-99 -349q-8 -35 -8 -41q0 -15 12 -15q8 0 17 6t21 20t16 19.5t16 21.5l16 -12q-72 -104 -135 -104q-19 0 -30.5 10.5t-11.5 29.5q0 16 7.5 51.5t12.5 45.5l-2 2q-28 -38 -51.5 -64t-63 -50.5t-77.5 -24.5q-42 0 -65.5 35t-23.5 78q0 78 44.5 159t109 131.5
t120.5 50.5q65 0 80 -66h2l16 54zM355 339q0 79 -61 79q-41 0 -87 -51t-76 -121.5t-30 -127.5q0 -27 15 -49.5t41 -22.5q23 0 56.5 23.5t65 61.5t54 94.5t22.5 113.5zM195 524h-15q-1 52 22 90t71 38q34 0 86 -34t71 -34q37 0 47 68h15q1 -52 -22 -90t-71 -38q-34 0 -86 34
t-71 34q-37 0 -47 -68z" />
    <glyph glyph-name="adieresis" unicode="&#xe4;" 
d="M469 442l-99 -349q-8 -35 -8 -41q0 -15 12 -15q8 0 17 6t21 20t16 19.5t16 21.5l16 -12q-72 -104 -135 -104q-19 0 -30.5 10.5t-11.5 29.5q0 16 7.5 51.5t12.5 45.5l-2 2q-28 -38 -51.5 -64t-63 -50.5t-77.5 -24.5q-42 0 -65.5 35t-23.5 78q0 78 44.5 159t109 131.5
t120.5 50.5q65 0 80 -66h2l16 54zM355 339q0 79 -61 79q-41 0 -87 -51t-76 -121.5t-30 -127.5q0 -27 15 -49.5t41 -22.5q23 0 56.5 23.5t65 61.5t54 94.5t22.5 113.5zM269 536q-22 0 -37.5 15.5t-15.5 37.5t15.5 37.5t37.5 15.5t37.5 -15.5t15.5 -37.5t-15.5 -37.5
t-37.5 -15.5zM441 536q-22 0 -37.5 15.5t-15.5 37.5t15.5 37.5t37.5 15.5t37.5 -15.5t15.5 -37.5t-15.5 -37.5t-37.5 -15.5z" />
    <glyph glyph-name="aring" unicode="&#xe5;" 
d="M469 442l-99 -349q-8 -35 -8 -41q0 -15 12 -15q8 0 17 6t21 20t16 19.5t16 21.5l16 -12q-72 -104 -135 -104q-19 0 -30.5 10.5t-11.5 29.5q0 16 7.5 51.5t12.5 45.5l-2 2q-28 -38 -51.5 -64t-63 -50.5t-77.5 -24.5q-42 0 -65.5 35t-23.5 78q0 78 44.5 159t109 131.5
t120.5 50.5q65 0 80 -66h2l16 54zM355 339q0 79 -61 79q-41 0 -87 -51t-76 -121.5t-30 -127.5q0 -27 15 -49.5t41 -22.5q23 0 56.5 23.5t65 61.5t54 94.5t22.5 113.5zM268 584q0 38 27.5 65.5t65.5 27.5t65.5 -27.5t27.5 -65.5t-27.5 -65.5t-65.5 -27.5t-65.5 27.5
t-27.5 65.5zM297 584q0 -26 19 -45t45 -19t45 19t19 45t-19 45t-45 19t-45 -19t-19 -45z" />
    <glyph glyph-name="ae" unicode="&#xe6;" horiz-adv-x="667" 
d="M448 434l-12 -45l2 -2q55 55 124 55q36 0 63 -19.5t27 -53.5q0 -58 -68 -110t-200 -74q-5 -30 -5 -55q0 -41 21 -67t61 -26q41 0 74.5 21.5t70.5 60.5l13 -15q-38 -49 -89.5 -82.5t-105.5 -33.5q-53 0 -87 35.5t-34 88.5v28l-2 2q-25 -37 -41 -58.5t-40.5 -47t-51.5 -37
t-59 -11.5q-42 0 -65.5 35t-23.5 78q0 78 44.5 159t109 131.5t120.5 50.5q36 0 53.5 -24.5t19.5 -61.5h2l15 68zM346 347q0 71 -52 71q-41 0 -87 -51t-76 -121.5t-30 -127.5q0 -27 15 -49.5t41 -22.5q34 0 78.5 47t77.5 119.5t33 134.5zM389 209q100 18 149.5 68t49.5 93
q0 18 -12.5 33t-30.5 15q-49 0 -92 -56t-64 -153z" />
    <glyph glyph-name="ccedilla" unicode="&#xe7;" horiz-adv-x="444" 
d="M372 119l14 -12q-96 -119 -213 -119q-67 0 -106.5 39t-39.5 106q0 74 42.5 146t110.5 117.5t138 45.5q42 0 74.5 -18t32.5 -57q0 -26 -14 -48t-38 -22q-15 0 -25 10t-10 25q0 20 17.5 35.5t17.5 22.5q0 14 -16 21t-32 7q-89 0 -153 -91t-64 -184q0 -51 28 -81t79 -30
q45 0 81 22.5t76 64.5zM202 10l-31 -41q34 -4 57 -25.5t23 -54.5q0 -45 -51.5 -71t-101.5 -26q-35 0 -91 13l8 18q32 -7 53 -7q35 0 63 14t28 44q0 42 -68 42l71 94h40z" />
    <glyph glyph-name="egrave" unicode="&#xe8;" horiz-adv-x="444" 
d="M383 117l10 -14q-115 -115 -222 -115q-41 0 -71 17t-44.5 42.5t-20.5 47t-6 39.5q0 112 92 210t203 98q42 0 73 -16.5t31 -55.5q0 -51 -46.5 -92t-115.5 -64t-149 -31q-4 -24 -4 -40q0 -45 32 -74.5t77 -29.5q39 0 73.5 18.5t87.5 59.5zM121 208q116 14 176.5 64.5
t60.5 98.5q0 22 -13.5 34.5t-35.5 12.5q-66 0 -120 -68.5t-68 -141.5zM324 684l52 -167h-18l-144 167h110z" />
    <glyph glyph-name="eacute" unicode="&#xe9;" horiz-adv-x="444" 
d="M383 117l10 -14q-115 -115 -222 -115q-41 0 -71 17t-44.5 42.5t-20.5 47t-6 39.5q0 112 92 210t203 98q42 0 73 -16.5t31 -55.5q0 -51 -46.5 -92t-115.5 -64t-149 -31q-4 -24 -4 -40q0 -45 32 -74.5t77 -29.5q39 0 73.5 18.5t87.5 59.5zM121 208q116 14 176.5 64.5
t60.5 98.5q0 22 -13.5 34.5t-35.5 12.5q-66 0 -120 -68.5t-68 -141.5zM416 684l-144 -167h-18l52 167h110z" />
    <glyph glyph-name="ecircumflex" unicode="&#xea;" horiz-adv-x="444" 
d="M383 117l10 -14q-115 -115 -222 -115q-41 0 -71 17t-44.5 42.5t-20.5 47t-6 39.5q0 112 92 210t203 98q42 0 73 -16.5t31 -55.5q0 -51 -46.5 -92t-115.5 -64t-149 -31q-4 -24 -4 -40q0 -45 32 -74.5t77 -29.5q39 0 73.5 18.5t87.5 59.5zM121 208q116 14 176.5 64.5
t60.5 98.5q0 22 -13.5 34.5t-35.5 12.5q-66 0 -120 -68.5t-68 -141.5zM405 666l36 -154h-10l-82 99l-156 -99h-13l152 154h73z" />
    <glyph glyph-name="edieresis" unicode="&#xeb;" horiz-adv-x="444" 
d="M383 117l10 -14q-115 -115 -222 -115q-41 0 -71 17t-44.5 42.5t-20.5 47t-6 39.5q0 112 92 210t203 98q42 0 73 -16.5t31 -55.5q0 -51 -46.5 -92t-115.5 -64t-149 -31q-4 -24 -4 -40q0 -45 32 -74.5t77 -29.5q39 0 73.5 18.5t87.5 59.5zM121 208q116 14 176.5 64.5
t60.5 98.5q0 22 -13.5 34.5t-35.5 12.5q-66 0 -120 -68.5t-68 -141.5zM241 536q-22 0 -37.5 15.5t-15.5 37.5t15.5 37.5t37.5 15.5t37.5 -15.5t15.5 -37.5t-15.5 -37.5t-37.5 -15.5zM413 536q-22 0 -37.5 15.5t-15.5 37.5t15.5 37.5t37.5 15.5t37.5 -15.5t15.5 -37.5
t-15.5 -37.5t-37.5 -15.5z" />
    <glyph glyph-name="igrave" unicode="&#xec;" horiz-adv-x="278" 
d="M228 442l-99 -354q-7 -21 -7 -32q0 -13 14 -13q25 0 75 68l17 -11q-27 -40 -66 -76t-74 -36q-21 0 -34 12.5t-13 33.5q0 8 16 68l53 189q21 75 21 82q0 27 -42 27q-10 0 -30 -4v19l159 27h10zM241 684l52 -167h-18l-144 167h110z" />
    <glyph glyph-name="iacute" unicode="&#xed;" horiz-adv-x="278" 
d="M228 442l-99 -354q-7 -21 -7 -32q0 -13 14 -13q25 0 75 68l17 -11q-27 -40 -66 -76t-74 -36q-21 0 -34 12.5t-13 33.5q0 8 16 68l53 189q21 75 21 82q0 27 -42 27q-10 0 -30 -4v19l159 27h10zM333 684l-144 -167h-18l52 167h110z" />
    <glyph glyph-name="icircumflex" unicode="&#xee;" horiz-adv-x="278" 
d="M228 442l-99 -354q-7 -21 -7 -32q0 -13 14 -13q25 0 75 68l17 -11q-27 -40 -66 -76t-74 -36q-21 0 -34 12.5t-13 33.5q0 8 16 68l53 189q21 75 21 82q0 27 -42 27q-10 0 -30 -4v19l159 27h10zM322 666l36 -154h-10l-82 99l-156 -99h-13l152 154h73z" />
    <glyph glyph-name="idieresis" unicode="&#xef;" horiz-adv-x="278" 
d="M228 442l-99 -354q-7 -21 -7 -32q0 -13 14 -13q25 0 75 68l17 -11q-27 -40 -66 -76t-74 -36q-21 0 -34 12.5t-13 33.5q0 8 16 68l53 189q21 75 21 82q0 27 -42 27q-10 0 -30 -4v19l159 27h10zM158 536q-22 0 -37.5 15.5t-15.5 37.5t15.5 37.5t37.5 15.5t37.5 -15.5
t15.5 -37.5t-15.5 -37.5t-37.5 -15.5zM330 536q-22 0 -37.5 15.5t-15.5 37.5t15.5 37.5t37.5 15.5t37.5 -15.5t15.5 -37.5t-15.5 -37.5t-37.5 -15.5z" />
    <glyph glyph-name="eth" unicode="&#xf0;" 
d="M341 576l-107 -58l-14 24l109 59q-15 35 -50 80l17 11q38 -32 66 -74l107 59l14 -25l-104 -56q86 -137 86 -280q0 -77 -34.5 -152t-101 -125.5t-146.5 -50.5q-69 0 -112 42.5t-43 111.5q0 111 88.5 205.5t199.5 94.5q30 0 63 -37q0 85 -38 171zM194 12q45 0 89.5 49
t71 122t26.5 142q0 39 -21 66t-59 27q-51 0 -97 -54.5t-70.5 -125.5t-24.5 -129q0 -43 22 -70t63 -27z" />
    <glyph glyph-name="ntilde" unicode="&#xf1;" 
d="M221 442l-64 -212l2 -2q74 108 112 148q64 66 117 66q25 0 40.5 -17t15.5 -42q0 -6 -0.5 -11.5t-0.5 -10.5t-1.5 -11.5t-2.5 -11.5t-3.5 -15t-4.5 -17t-6.5 -22t-7.5 -25.5l-9 -31.5t-11 -37q-38 -124 -38 -132q0 -15 13 -15q23 0 70 66l16 -9q-23 -39 -62.5 -75.5
t-71.5 -36.5q-18 0 -30 11.5t-12 30.5q0 23 45 177q39 134 39 152q0 25 -23 25q-43 0 -118.5 -103t-101.5 -184l-31 -97h-73l84 291q21 75 21 82q0 27 -42 27q-10 0 -30 -4v19l159 27h10zM195 524h-15q-1 52 22 90t71 38q34 0 86 -34t71 -34q37 0 47 68h15q1 -52 -22 -90
t-71 -38q-34 0 -86 34t-71 34q-37 0 -47 -68z" />
    <glyph glyph-name="ograve" unicode="&#xf2;" 
d="M183 -12q-69 0 -112 42.5t-43 111.5q0 111 88.5 205.5t199.5 94.5q66 0 106 -44.5t40 -111.5q0 -111 -85 -204.5t-194 -93.5zM194 12q45 0 89.5 49t71 122t26.5 142q0 39 -21 66t-59 27q-51 0 -97 -54.5t-70.5 -125.5t-24.5 -129q0 -43 22 -70t63 -27zM352 684l52 -167
h-18l-144 167h110z" />
    <glyph glyph-name="oacute" unicode="&#xf3;" 
d="M183 -12q-69 0 -112 42.5t-43 111.5q0 111 88.5 205.5t199.5 94.5q66 0 106 -44.5t40 -111.5q0 -111 -85 -204.5t-194 -93.5zM194 12q45 0 89.5 49t71 122t26.5 142q0 39 -21 66t-59 27q-51 0 -97 -54.5t-70.5 -125.5t-24.5 -129q0 -43 22 -70t63 -27zM444 684l-144 -167
h-18l52 167h110z" />
    <glyph glyph-name="ocircumflex" unicode="&#xf4;" 
d="M183 -12q-69 0 -112 42.5t-43 111.5q0 111 88.5 205.5t199.5 94.5q66 0 106 -44.5t40 -111.5q0 -111 -85 -204.5t-194 -93.5zM194 12q45 0 89.5 49t71 122t26.5 142q0 39 -21 66t-59 27q-51 0 -97 -54.5t-70.5 -125.5t-24.5 -129q0 -43 22 -70t63 -27zM433 666l36 -154
h-10l-82 99l-156 -99h-13l152 154h73z" />
    <glyph glyph-name="otilde" unicode="&#xf5;" 
d="M183 -12q-69 0 -112 42.5t-43 111.5q0 111 88.5 205.5t199.5 94.5q66 0 106 -44.5t40 -111.5q0 -111 -85 -204.5t-194 -93.5zM194 12q45 0 89.5 49t71 122t26.5 142q0 39 -21 66t-59 27q-51 0 -97 -54.5t-70.5 -125.5t-24.5 -129q0 -43 22 -70t63 -27zM195 524h-15
q-1 52 22 90t71 38q34 0 86 -34t71 -34q37 0 47 68h15q1 -52 -22 -90t-71 -38q-34 0 -86 34t-71 34q-37 0 -47 -68z" />
    <glyph glyph-name="odieresis" unicode="&#xf6;" 
d="M183 -12q-69 0 -112 42.5t-43 111.5q0 111 88.5 205.5t199.5 94.5q66 0 106 -44.5t40 -111.5q0 -111 -85 -204.5t-194 -93.5zM194 12q45 0 89.5 49t71 122t26.5 142q0 39 -21 66t-59 27q-51 0 -97 -54.5t-70.5 -125.5t-24.5 -129q0 -43 22 -70t63 -27zM269 536
q-22 0 -37.5 15.5t-15.5 37.5t15.5 37.5t37.5 15.5t37.5 -15.5t15.5 -37.5t-15.5 -37.5t-37.5 -15.5zM441 536q-22 0 -37.5 15.5t-15.5 37.5t15.5 37.5t37.5 15.5t37.5 -15.5t15.5 -37.5t-15.5 -37.5t-37.5 -15.5z" />
    <glyph glyph-name="divide" unicode="&#xf7;" horiz-adv-x="675" 
d="M392 442h-82v82h82v-82zM99 300v64h504v-64h-504zM392 140h-82v82h82v-82z" />
    <glyph glyph-name="oslash" unicode="&#xf8;" 
d="M381 337l-263 -272q19 -53 76 -53q45 0 89.5 49t71 122t26.5 142v12zM109 97l263 273q-18 48 -71 48q-51 0 -97 -54.5t-70.5 -125.5t-24.5 -129v-12zM489 452l-60 -63q33 -41 33 -103q0 -111 -85 -204.5t-194 -93.5q-63 0 -104 36l-58 -60l-19 21l57 60q-31 42 -31 97
q0 111 88.5 205.5t199.5 94.5q54 0 93 -33l60 62z" />
    <glyph glyph-name="ugrave" unicode="&#xf9;" 
d="M475 442l-86 -291q-23 -77 -23 -93q0 -15 12 -15q15 0 29 14t40 51l15 -11q-25 -41 -60 -75t-70 -34q-41 0 -41 39q0 51 49 195l-2 2q-19 -31 -32.5 -52.5t-41.5 -60t-51.5 -62t-54.5 -42.5t-59 -19q-25 0 -39.5 16.5t-14.5 42.5q0 33 25 121q8 28 16.5 57.5t13.5 45.5
t9.5 33t7 25.5t4.5 17t2.5 14t0.5 11.5q0 15 -13 15q-12 0 -23.5 -9t-27 -29.5t-16.5 -21.5l-15 10q23 38 61 71.5t73 33.5q19 0 30.5 -11t11.5 -31q0 -24 -50 -200q-4 -15 -11.5 -39t-11.5 -37.5t-7.5 -29t-3.5 -26.5q0 -22 22 -22q44 0 123.5 100.5t117.5 239.5l12 44z
M352 684l52 -167h-18l-144 167h110z" />
    <glyph glyph-name="uacute" unicode="&#xfa;" 
d="M475 442l-86 -291q-23 -77 -23 -93q0 -15 12 -15q15 0 29 14t40 51l15 -11q-25 -41 -60 -75t-70 -34q-41 0 -41 39q0 51 49 195l-2 2q-19 -31 -32.5 -52.5t-41.5 -60t-51.5 -62t-54.5 -42.5t-59 -19q-25 0 -39.5 16.5t-14.5 42.5q0 33 25 121q8 28 16.5 57.5t13.5 45.5
t9.5 33t7 25.5t4.5 17t2.5 14t0.5 11.5q0 15 -13 15q-12 0 -23.5 -9t-27 -29.5t-16.5 -21.5l-15 10q23 38 61 71.5t73 33.5q19 0 30.5 -11t11.5 -31q0 -24 -50 -200q-4 -15 -11.5 -39t-11.5 -37.5t-7.5 -29t-3.5 -26.5q0 -22 22 -22q44 0 123.5 100.5t117.5 239.5l12 44z
M444 684l-144 -167h-18l52 167h110z" />
    <glyph glyph-name="ucircumflex" unicode="&#xfb;" 
d="M475 442l-86 -291q-23 -77 -23 -93q0 -15 12 -15q15 0 29 14t40 51l15 -11q-25 -41 -60 -75t-70 -34q-41 0 -41 39q0 51 49 195l-2 2q-19 -31 -32.5 -52.5t-41.5 -60t-51.5 -62t-54.5 -42.5t-59 -19q-25 0 -39.5 16.5t-14.5 42.5q0 33 25 121q8 28 16.5 57.5t13.5 45.5
t9.5 33t7 25.5t4.5 17t2.5 14t0.5 11.5q0 15 -13 15q-12 0 -23.5 -9t-27 -29.5t-16.5 -21.5l-15 10q23 38 61 71.5t73 33.5q19 0 30.5 -11t11.5 -31q0 -24 -50 -200q-4 -15 -11.5 -39t-11.5 -37.5t-7.5 -29t-3.5 -26.5q0 -22 22 -22q44 0 123.5 100.5t117.5 239.5l12 44z
M433 666l36 -154h-10l-82 99l-156 -99h-13l152 154h73z" />
    <glyph glyph-name="udieresis" unicode="&#xfc;" 
d="M475 442l-86 -291q-23 -77 -23 -93q0 -15 12 -15q15 0 29 14t40 51l15 -11q-25 -41 -60 -75t-70 -34q-41 0 -41 39q0 51 49 195l-2 2q-19 -31 -32.5 -52.5t-41.5 -60t-51.5 -62t-54.5 -42.5t-59 -19q-25 0 -39.5 16.5t-14.5 42.5q0 33 25 121q8 28 16.5 57.5t13.5 45.5
t9.5 33t7 25.5t4.5 17t2.5 14t0.5 11.5q0 15 -13 15q-12 0 -23.5 -9t-27 -29.5t-16.5 -21.5l-15 10q23 38 61 71.5t73 33.5q19 0 30.5 -11t11.5 -31q0 -24 -50 -200q-4 -15 -11.5 -39t-11.5 -37.5t-7.5 -29t-3.5 -26.5q0 -22 22 -22q44 0 123.5 100.5t117.5 239.5l12 44z
M239 536q-22 0 -37.5 15.5t-15.5 37.5t15.5 37.5t37.5 15.5t37.5 -15.5t15.5 -37.5t-15.5 -37.5t-37.5 -15.5zM411 536q-22 0 -37.5 15.5t-15.5 37.5t15.5 37.5t37.5 15.5t37.5 -15.5t15.5 -37.5t-15.5 -37.5t-37.5 -15.5z" />
    <glyph glyph-name="yacute" unicode="&#xfd;" horiz-adv-x="444" 
d="M19 406l143 36q25 -44 34 -135l23 -255q15 20 50 68.5t52 72.5t39.5 57.5t32 53t9.5 29.5q0 8 -8.5 13.5t-19 8.5t-19 14t-8.5 29q0 19 12 31.5t31 12.5q24 0 37 -20.5t13 -46.5q0 -28 -13 -61.5t-49 -85t-66 -90.5t-95 -120q-11 -13 -16 -20q-97 -121 -147.5 -167.5
t-92.5 -46.5q-15 0 -27 11.5t-12 26.5q0 18 15.5 34.5t33.5 16.5q15 0 21 -9t8.5 -18t8.5 -9q18 0 72 54t72 81l-27 308q-6 62 -17.5 86.5t-40.5 24.5q-31 0 -46 -3zM416 684l-144 -167h-18l52 167h110z" />
    <glyph glyph-name="thorn" unicode="&#xfe;" 
d="M294 694l-107 -363l2 -2q87 113 180 113q45 0 73 -37t28 -87q0 -66 -36.5 -141.5t-105.5 -132t-149 -56.5q-43 0 -83 25l-32 -114q-14 -48 -14 -61q0 -12 6.5 -19t20 -10t22.5 -3.5t25 -0.5l-5 -18h-230l5 18q42 0 59.5 15t32.5 65l190 658q21 75 21 82q0 27 -42 27
q-10 0 -30 -4v19l159 27h10zM142 172l-35 -121q29 -36 84 -36q45 0 91.5 47t76.5 117.5t30 136.5q0 35 -15 59t-47 24q-46 0 -98.5 -55t-86.5 -172z" />
    <glyph glyph-name="ydieresis" unicode="&#xff;" horiz-adv-x="444" 
d="M19 406l143 36q25 -44 34 -135l23 -255q15 20 50 68.5t52 72.5t39.5 57.5t32 53t9.5 29.5q0 8 -8.5 13.5t-19 8.5t-19 14t-8.5 29q0 19 12 31.5t31 12.5q24 0 37 -20.5t13 -46.5q0 -28 -13 -61.5t-49 -85t-66 -90.5t-95 -120q-11 -13 -16 -20q-97 -121 -147.5 -167.5
t-92.5 -46.5q-15 0 -27 11.5t-12 26.5q0 18 15.5 34.5t33.5 16.5q15 0 21 -9t8.5 -18t8.5 -9q18 0 72 54t72 81l-27 308q-6 62 -17.5 86.5t-40.5 24.5q-31 0 -46 -3zM241 536q-22 0 -37.5 15.5t-15.5 37.5t15.5 37.5t37.5 15.5t37.5 -15.5t15.5 -37.5t-15.5 -37.5
t-37.5 -15.5zM413 536q-22 0 -37.5 15.5t-15.5 37.5t15.5 37.5t37.5 15.5t37.5 -15.5t15.5 -37.5t-15.5 -37.5t-37.5 -15.5z" />
    <glyph glyph-name="dotlessi" unicode="&#x131;" horiz-adv-x="278" 
d="M228 442l-99 -354q-7 -21 -7 -32q0 -13 14 -13q25 0 75 68l17 -11q-27 -40 -66 -76t-74 -36q-21 0 -34 12.5t-13 33.5q0 8 16 68l53 189q21 75 21 82q0 27 -42 27q-10 0 -30 -4v19l159 27h10z" />
    <glyph glyph-name="ij" unicode="&#x133;" 
d="M224 442l-97 -342q-8 -29 -10 -44q2 -16 14 -16q14 0 44 31q23 27 32 40l17 -11q-21 -33 -55 -65q-47 -47 -87 -47q-20 0 -32.5 12t-12.5 31q0 20 12 59l64 219q14 49 15 65q-3 27 -28 27l-34 -4l-11 -1v19l154 27h15zM218 636q20 0 34 -14.5t14 -34.5t-14 -34.5
t-34 -14.5q-21 0 -35.5 14.5t-14.5 34.5q0 21 14.5 35t35.5 14zM465 636q20 0 34.5 -14.5t14.5 -35.5t-14.5 -35.5t-34.5 -14.5t-34 14.5t-14 35.5t14 35.5t34 14.5zM473 442l-126 -437q-31 -107 -87.5 -164t-132.5 -57q-29 0 -46 13t-17 35q0 15 12 26.5t28 11.5
q13 0 23 -8t10 -18q0 -14 -12 -22q-7 -5 -7 -9q0 -6 15 -6q44 1 71 29.5t46 96.5l110 374q13 48 15 69q-3 23 -34 23q-9 0 -36 -5v18l153 30h15z" />
    <glyph glyph-name="Lslash" unicode="&#x141;" horiz-adv-x="556" 
d="M240 338l-56 -197q-17 -61 -17 -72q0 -23 17 -28.5t66 -5.5q109 0 161 28.5t98 124.5h18l-64 -188h-487l5 18q54 0 72 17.5t39 88.5l39 134l-2 2l-115 -82l17 54l118 86l58 201q17 57 17 86q0 24 -18 31.5t-57 7.5l5 18h262l-5 -18h-21q-39 0 -58 -24.5t-29 -63.5
l-46 -158l2 -2l136 98l-16 -56z" />
    <glyph glyph-name="lslash" unicode="&#x142;" horiz-adv-x="278" 
d="M288 438l-11 -40l-78 -49l-74 -261q-7 -21 -7 -32q0 -13 14 -13q25 0 75 68l17 -11q-27 -40 -66 -76t-74 -36q-21 0 -34 12.5t-13 33.5q0 8 16 68l54 189l-83 -52l12 39l82 52l60 213q21 75 21 82q0 27 -42 27q-10 0 -30 -4v19l159 27h10l-86 -305z" />
    <glyph glyph-name="OE" unicode="&#x152;" horiz-adv-x="944" 
d="M461 165l99 337q12 41 12 60q0 37 -28 54t-67 17q-69 0 -127 -33.5t-95.5 -83.5t-63.5 -111.5t-37.5 -115t-11.5 -95.5q0 -88 47 -126.5t116 -38.5q73 0 104 32.5t52 103.5zM594 329l-60 -206q-13 -46 -13 -57q0 -22 15 -26.5t65 -4.5q113 0 170.5 27t112.5 122h18
l-63 -184h-351q-84 0 -134 -3q-12 0 -41.5 -1.5t-44.5 -1.5q-61 0 -107 21.5t-71.5 57t-38 74t-12.5 77.5q0 77 37.5 158t97 143.5t138.5 102.5t157 40q41 0 77 -3q72 -3 88 -3h350l-42 -160h-18q3 21 3 39q0 8 -1.5 16.5t-9 21.5t-19.5 23t-35.5 17.5t-54.5 7.5h-128
l-76 -263h45q31 0 45 1t34 5.5t31.5 14t25 28t25.5 46.5h18l-68 -241h-18q7 32 7 50q0 21 -7.5 35t-22 19t-23.5 6t-24 1h-77z" />
    <glyph glyph-name="oe" unicode="&#x153;" horiz-adv-x="667" 
d="M602 117l13 -14q-35 -42 -91.5 -78.5t-102.5 -36.5q-40 0 -65 23t-31 63q-68 -86 -159 -86q-41 0 -70.5 17.5t-43 44t-19 47.5t-5.5 39q0 110 85 208t179 98q42 0 76.5 -23.5t40.5 -63.5q74 87 162 87q34 0 56.5 -17.5t22.5 -51.5q0 -50 -47 -94t-105 -67.5t-108 -28.5
q-4 -26 -4 -42q0 -41 21.5 -70t60.5 -29q49 0 134 75zM105 86q0 -33 17 -53.5t49 -20.5q46 0 90 66t67 141.5t23 119.5q0 33 -18.5 56t-50.5 23q-40 0 -82.5 -56.5t-68.5 -134.5t-26 -141zM395 207q66 9 129 57.5t63 108.5q0 19 -9.5 32t-28.5 13q-37 0 -83.5 -54.5
t-70.5 -156.5z" />
    <glyph glyph-name="Scaron" unicode="&#x160;" 
d="M6 -15l55 246h18q-5 -32 -5 -57q0 -70 43 -112t113 -42q56 0 92.5 37.5t36.5 91.5q0 36 -23 73t-55.5 69t-65.5 65t-56 74t-23 82q0 73 55.5 119t130.5 46q39 0 92.5 -19.5t58.5 -19.5q13 0 23 6.5t13 11t14 21.5h18l-51 -220h-18q4 30 4 44q0 65 -40 103t-105 38
q-43 0 -77.5 -28.5t-34.5 -72.5q0 -35 23.5 -70.5t57.5 -66.5t68 -63.5t57.5 -73.5t23.5 -84q0 -88 -62 -143t-151 -55q-44 0 -95.5 19.5t-69.5 19.5q-31 0 -47 -39h-18zM324 738l-36 154h10l82 -99l156 99h13l-152 -154h-73z" />
    <glyph glyph-name="scaron" unicode="&#x161;" horiz-adv-x="389" 
d="M365 442l-30 -150h-18q1 50 -22 88t-70 38q-27 0 -46 -16.5t-19 -42.5q0 -22 21.5 -51t48 -54.5t48 -63.5t21.5 -74q0 -55 -45.5 -91.5t-101.5 -36.5q-36 0 -69 11.5t-38 11.5q-26 0 -34 -23h-18l30 159h18q0 -135 108 -135q32 0 55.5 19t23.5 50q0 28 -21 61t-46 59
t-46 61.5t-21 67.5q0 49 36 80.5t86 31.5q21 0 55.5 -11.5t39.5 -11.5q23 0 36 23h18zM218 512l-36 154h10l82 -99l156 99h13l-152 -154h-73z" />
    <glyph glyph-name="Ydieresis" unicode="&#x178;" horiz-adv-x="556" 
d="M352 352l118 166q56 80 56 98q0 28 -70 28l5 18h208l-5 -18q-36 0 -65 -22t-70 -79l-169 -235l-45 -152q-22 -72 -22 -96q0 -15 7.5 -24t22.5 -12.5t25 -4.5t27 -1l-5 -18h-278l5 18q57 0 77.5 16.5t37.5 72.5l66 215l-75 244q-13 42 -30.5 60t-55.5 18l5 18h243l-5 -18
q-43 0 -60 -8t-17 -36q0 -21 18 -80zM363 762q-22 0 -37.5 15.5t-15.5 37.5t15.5 37.5t37.5 15.5t37.5 -15.5t15.5 -37.5t-15.5 -37.5t-37.5 -15.5zM535 762q-22 0 -37.5 15.5t-15.5 37.5t15.5 37.5t37.5 15.5t37.5 -15.5t15.5 -37.5t-15.5 -37.5t-37.5 -15.5z" />
    <glyph glyph-name="Zcaron" unicode="&#x17d;" horiz-adv-x="556" 
d="M153 662h460v-18l-491 -609h90q37 0 55.5 0.5t51 3t51 7.5t44 15t41.5 25t32.5 37.5t28.5 51.5h18l-58 -175h-476v14l493 613h-161q-46 0 -72.5 -3t-55.5 -13.5t-48.5 -35t-33.5 -64.5h-18zM318 738l-36 154h10l82 -99l156 99h13l-152 -154h-73z" />
    <glyph glyph-name="zcaron" unicode="&#x17e;" horiz-adv-x="389" 
d="M84 430h310v-13l-339 -351h143q23 0 33.5 0.5t25.5 3.5t23 10.5t17.5 20t17.5 32.5h18l-43 -133h-318v13l336 351h-151q-44 0 -59.5 -9t-36.5 -48h-18zM188 512l-36 154h10l82 -99l156 99h13l-152 -154h-73z" />
    <glyph glyph-name="florin" unicode="&#x192;" 
d="M340 427h87l-8 -32h-85q-12 -70 -41 -184q-33 -127 -50 -187q-28 -96 -65 -158q-19 -34 -50.5 -55t-61.5 -21q-26 0 -43 14.5t-17 36.5q0 18 11 30.5t27 12.5q12 0 22 -8.5t10 -18.5q0 -11 -5 -16l-5 -5l-2 -7q0 -10 12 -10q24 0 45 32q20 32 36 113l42 206l51 206l4 19
h-86l7 32l11 1q51 5 65.5 17t34.5 70q22 65 45 105q14 25 40.5 41t54.5 16q29 0 48 -15.5t19 -38.5q0 -16 -9.5 -27t-23.5 -11q-12 0 -21.5 8.5t-9.5 19.5q0 9 6 18q5 11 5 13q0 13 -17 13q-25 0 -41 -27q-9 -15 -19 -73l-17 -98z" />
    <glyph glyph-name="circumflex" unicode="&#x2c6;" horiz-adv-x="333" 
d="M349 666l36 -154h-10l-82 99l-156 -99h-13l152 154h73z" />
    <glyph glyph-name="caron" unicode="&#x2c7;" horiz-adv-x="333" 
d="M160 512l-36 154h10l82 -99l156 99h13l-152 -154h-73z" />
    <glyph glyph-name="breve" unicode="&#x2d8;" horiz-adv-x="333" 
d="M403 664h18q-23 -56 -70 -100t-101 -44q-53 0 -81 44.5t-28 99.5h18q7 -36 32.5 -54.5t63.5 -18.5q90 0 148 73z" />
    <glyph glyph-name="dotaccent" unicode="&#x2d9;" horiz-adv-x="333" 
d="M272 536q-22 0 -37.5 15.5t-15.5 37.5t15.5 37.5t37.5 15.5t37.5 -15.5t15.5 -37.5t-15.5 -37.5t-37.5 -15.5z" />
    <glyph glyph-name="ring" unicode="&#x2da;" horiz-adv-x="333" 
d="M184 584q0 38 27.5 65.5t65.5 27.5t65.5 -27.5t27.5 -65.5t-27.5 -65.5t-65.5 -27.5t-65.5 27.5t-27.5 65.5zM213 584q0 -26 19 -45t45 -19t45 19t19 45t-19 45t-45 19t-45 -19t-19 -45z" />
    <glyph glyph-name="ogonek" unicode="&#x2db;" horiz-adv-x="333" 
d="M78 0h25q-13 -29 -13 -53q0 -40 31.5 -64.5t72.5 -24.5q20 0 58 12l10 -14q-60 -40 -112 -40q-47 0 -79.5 25.5t-32.5 71.5q0 49 40 87z" />
    <glyph glyph-name="tilde" unicode="&#x2dc;" horiz-adv-x="333" 
d="M111 524h-15q-1 52 22 90t71 38q34 0 86 -34t71 -34q37 0 47 68h15q1 -52 -22 -90t-71 -38q-34 0 -86 34t-71 34q-37 0 -47 -68z" />
    <glyph glyph-name="hungarumlaut" unicode="&#x2dd;" horiz-adv-x="333" 
d="M445 684l-144 -167h-18l52 167h110zM310 684l-144 -167h-18l52 167h110z" />
    <glyph glyph-name="Gamma" unicode="&#x393;" horiz-adv-x="654" 
d="M399 629l-152 -524q-8 -24 -8 -39q0 -17 14.5 -32.5t44.5 -15.5h24l-6 -18h-293l5 18h17q27 0 46.5 9t31 27.5t16.5 29.5t11 31l127 435q8 27 8 42q0 24 -14.5 36.5t-26.5 14t-31 1.5h-17l7 18h531l-51 -170h-18q6 38 6 62q0 22 -7 37t-15.5 22t-25 11t-26 4.5t-27.5 0.5
h-171z" />
    <glyph glyph-name="Theta" unicode="&#x398;" horiz-adv-x="756" 
d="M300 441h18q-5 -15 -5 -25q0 -46 60 -46h56q43 0 64.5 15t34.5 56h18l-63 -219h-18q6 18 6 29q0 17 -7 27.5t-22 14.5t-26 5t-32 1h-31q-42 0 -64 -17t-35 -60h-18zM715 440q0 -103 -57.5 -208.5t-156 -176t-204.5 -70.5q-105 0 -167.5 66.5t-62.5 172.5q0 75 34 155.5
t89 146.5t134 108.5t161 42.5q113 0 171.5 -69t58.5 -168zM610 470q0 76 -34 125t-97 49q-56 0 -107 -33.5t-86.5 -86t-62 -115t-39 -121t-12.5 -103.5q0 -21 5 -44.5t17 -53.5t40 -49.5t68 -19.5q70 0 131.5 52t98 127t57.5 148.5t21 124.5z" />
    <glyph glyph-name="Sigma" unicode="&#x3a3;" horiz-adv-x="705" 
d="M202 662h514l-22 -139h-18q3 35 -6.5 58t-33 32.5t-45.5 12.5t-57 3h-226l136 -253l-313 -293h256q89 0 128 20t71 91h18l-65 -194h-525v18l347 324l-159 302v18z" />
    <glyph glyph-name="Phi" unicode="&#x3a6;" horiz-adv-x="756" 
d="M347 662h296l-4 -18q-62 1 -88 -19t-42 -78q62 -2 107.5 -20t69 -45.5t34.5 -56.5t11 -59q0 -34 -11 -69t-48.5 -77.5t-96.5 -68.5q-79 -34 -193 -36q0 -1 -0.5 -3.5t-1.5 -5.5t-1 -5q-5 -19 -5 -29q0 -19 6.5 -31t20.5 -16.5t24.5 -5.5t31.5 -1l-5 -18h-299l6 18
q25 0 38.5 2.5t32.5 11t32 29t21 54.5q-17 0 -30.5 1t-42.5 5t-51 15.5t-45 29t-35.5 48.5t-12.5 72q0 117 91.5 189.5t250.5 71.5q9 24 9 46q0 24 -13.5 36t-26 13.5t-35.5 1.5zM291 142l110 378q-111 1 -177 -71.5t-66 -176.5q0 -63 35.5 -97t97.5 -33zM499 520l-111 -378
q110 -1 180.5 71t70.5 173q0 60 -40 97.5t-100 36.5z" />
    <glyph glyph-name="Omega" unicode="&#x3a9;" horiz-adv-x="756" 
d="M19 0l49 167h18q-7 -19 -7 -29q0 -55 68 -55h108l11 49q-79 16 -127.5 77.5t-48.5 141.5q0 135 110 230.5t262 95.5q118 0 190 -68.5t72 -154.5q0 -118 -86 -208t-189 -105l-21 -58h111q58 0 81 21.5t35 62.5h18l-49 -167h-257l63 178q47 10 85.5 46.5t60.5 83.5t33.5 93
t11.5 82q0 66 -43.5 113t-117.5 47q-68 0 -121.5 -33t-83.5 -85t-45.5 -107.5t-15.5 -107.5q0 -56 29 -96.5t80 -50.5l-35 -163h-249z" />
    <glyph glyph-name="alpha" unicode="&#x3b1;" horiz-adv-x="491" 
d="M376 437h72l-76 -258q-3 -60 8 -94t32 -34q33 0 41 62h18q-4 -48 -21.5 -86.5t-51.5 -38.5q-45 0 -45 96q0 20 2 40l-2 2q-26 -69 -76.5 -103t-99.5 -34q-58 0 -99.5 46t-41.5 130q0 121 77.5 202.5t155.5 81.5q66 0 88 -67h2zM296 170l49 167q-8 89 -71 89
q-38 0 -71 -37.5t-52.5 -90.5t-30.5 -104t-11 -84q0 -42 19.5 -71t50.5 -29q72 0 117 160z" />
    <glyph glyph-name="delta" unicode="&#x3b4;" horiz-adv-x="429" 
d="M270 425q-18 24 -26 34q-12 16 -13 17q-33 43 -47 71t-14 62q0 44 30 69.5t88 25.5t93.5 -22t35.5 -49q0 -12 -8 -23t-24 -11q-25 0 -47 28q-14 17 -22 26t-24.5 18t-34.5 9q-30 0 -45.5 -17.5t-15.5 -38.5q0 -23 16.5 -43.5t58.5 -58.5q121 -109 121 -226
q0 -63 -38 -134.5t-105 -122.5t-140 -51q-65 0 -101.5 46t-36.5 111q0 35 14.5 73t46.5 79t93.5 76t144.5 52zM280 409q-63 -13 -109.5 -48.5t-70 -80.5t-34.5 -86t-11 -76q0 -29 6.5 -51t15 -32.5t19.5 -16.5t17 -7t12 -1q50 0 95 60t67 127t22 107q0 54 -29 105z" />
    <glyph glyph-name="epsilon" unicode="&#x3b5;" horiz-adv-x="378" 
d="M152 239v2q-64 38 -64 96q0 53 39.5 82.5t103.5 29.5q37 0 64.5 -10.5t40.5 -26.5t19 -30t6 -25q0 -16 -9 -29.5t-28 -13.5q-16 0 -26 12t-10 28q0 41 -6 52q-13 22 -42 22q-46 0 -71.5 -46t-25.5 -80q0 -6 1.5 -15t13.5 -24t33 -15q10 0 46 6q23 4 34 4q18 0 18 -17
q0 -18 -23 -18q-13 0 -36 4q-18 3 -30 3q-52 0 -75 -42q-28 -51 -28 -104q0 -33 23 -54t58 -21q19 0 32 4.5t21.5 15t12.5 18.5t10 25q22 55 54 55q18 0 25 -13t7 -23q0 -32 -39 -67.5t-121 -35.5q-71 0 -117 31.5t-46 88.5q0 16 5.5 34t18.5 39.5t42 37t69 20.5z" />
    <glyph glyph-name="pi" unicode="&#x3c0;" horiz-adv-x="542" 
d="M372 369h-123l-76 -256q-22 -76 -43.5 -100.5t-45.5 -24.5q-21 0 -30.5 11.5t-9.5 23.5q0 18 9 32.5t37 47.5q46 52 66 124q3 9 3 11l40 131h-24q-51 0 -80.5 -11t-48.5 -45h-18q38 124 176 124h316l-20 -68h-77l-65 -215q-1 -1 -1.5 -3t-0.5 -3q-7 -19 -7 -36
q0 -32 17.5 -46t35.5 -14q42 0 68 61h18q-6 -23 -11 -38t-17 -38t-32 -35.5t-46 -12.5q-34 0 -59.5 26t-25.5 76q0 32 11 65q0 1 1.5 5t2.5 6z" />
    <glyph glyph-name="sigma" unicode="&#x3c3;" horiz-adv-x="542" 
d="M520 369h-147q50 -78 50 -155q0 -69 -39.5 -122.5t-93 -78.5t-107.5 -25q-59 0 -105 40.5t-46 126.5q0 51 18.5 100t54.5 90.5t96 66.5t135 25h203zM354 369h-24q-60 0 -105 -23.5t-67.5 -54t-36 -69.5t-16.5 -61t-3 -37q0 -58 22.5 -86t52.5 -28q44 0 82 39t60 93.5
t34 104t12 78.5q0 24 -11 44z" />
    <glyph glyph-name="tau" unicode="&#x3c4;" horiz-adv-x="429" 
d="M315 111h18q-13 -56 -44 -89.5t-65 -33.5q-10 0 -20.5 3t-26.5 11.5t-26 30.5t-10 55q0 22 16 86l59 195h-28q-65 0 -93.5 -12t-43.5 -46h-18q14 42 37 69.5t51.5 38.5t48.5 14.5t46 3.5h199l-21 -68h-130l-63 -216q-9 -31 -9 -46q0 -26 16 -42.5t41 -16.5q46 0 66 63z
" />
    <glyph glyph-name="phi" unicode="&#x3c6;" horiz-adv-x="542" 
d="M399 704h49l-75 -255q61 -6 101.5 -46t40.5 -110q0 -92 -76 -187t-202 -118l-58 -198h-49l58 198q-69 6 -107 47.5t-38 107.5q0 113 88.5 205.5t191.5 100.5zM193 10l125 417q-48 -5 -88.5 -44.5t-63.5 -93t-35 -103.5t-12 -84q0 -78 74 -92zM367 427l-123 -417
q58 10 104 68.5t67.5 127.5t21.5 129q0 79 -70 92z" />
    <glyph glyph-name="endash" unicode="&#x2013;" 
d="M509 221h-518v36h518v-36zM509 221h-518v36h518v-36zM550 221h-600v36h600v-36z" />
    <glyph glyph-name="emdash" unicode="&#x2014;" horiz-adv-x="889" 
d="M939 221h-989v36h989v-36z" />
    <glyph glyph-name="underscoredbl" unicode="&#x2017;" 
d="M-50 -175h600v-50h-600v50zM-50 -75h600v-50h-600v50z" />
    <glyph glyph-name="quoteleft" unicode="&#x2018;" horiz-adv-x="333" 
d="M338 677l9 -16q-28 -12 -52.5 -34.5t-24.5 -46.5q0 -15 17 -30t17 -37q0 -21 -14.5 -35.5t-35.5 -14.5t-35.5 15.5t-14.5 39.5q0 52 40.5 96t93.5 63z" />
    <glyph glyph-name="quoteright" unicode="&#x2019;" horiz-adv-x="333" 
d="M199 463l-9 16q28 12 52.5 34.5t24.5 46.5q0 15 -17 30t-17 37q0 21 14.5 35.5t35.5 14.5t35.5 -15.5t14.5 -39.5q0 -52 -40.5 -96t-93.5 -63z" />
    <glyph glyph-name="quotesinglbase" unicode="&#x201a;" horiz-adv-x="333" 
d="M31 -126l-9 16q28 12 52.5 34.5t24.5 46.5q0 15 -17 30t-17 37q0 21 14.5 35.5t35.5 14.5t35.5 -15.5t14.5 -39.5q0 -52 -40.5 -96t-93.5 -63z" />
    <glyph glyph-name="quotedblleft" unicode="&#x201c;" horiz-adv-x="556" 
d="M561 677l9 -16q-28 -12 -52.5 -34.5t-24.5 -46.5q0 -15 17 -30t17 -37q0 -21 -14.5 -35.5t-35.5 -14.5t-35.5 15.5t-14.5 39.5q0 52 40.5 96t93.5 63zM338 677l9 -16q-28 -12 -52.5 -34.5t-24.5 -46.5q0 -15 17 -30t17 -37q0 -21 -14.5 -35.5t-35.5 -14.5t-35.5 15.5
t-14.5 39.5q0 52 40.5 96t93.5 63z" />
    <glyph glyph-name="quotedblright" unicode="&#x201d;" horiz-adv-x="556" 
d="M199 463l-9 16q28 12 52.5 34.5t24.5 46.5q0 15 -17 30t-17 37q0 21 14.5 35.5t35.5 14.5t35.5 -15.5t14.5 -39.5q0 -52 -40.5 -96t-93.5 -63zM422 463l-9 16q28 12 52.5 34.5t24.5 46.5q0 15 -17 30t-17 37q0 21 14.5 35.5t35.5 14.5t35.5 -15.5t14.5 -39.5
q0 -52 -40.5 -96t-93.5 -63z" />
    <glyph glyph-name="quotedblbase" unicode="&#x201e;" horiz-adv-x="556" 
d="M31 -126l-9 16q28 12 52.5 34.5t24.5 46.5q0 15 -17 30t-17 37q0 21 14.5 35.5t35.5 14.5t35.5 -15.5t14.5 -39.5q0 -52 -40.5 -96t-93.5 -63zM254 -126l-9 16q28 12 52.5 34.5t24.5 46.5q0 15 -17 30t-17 37q0 21 14.5 35.5t35.5 14.5t35.5 -15.5t14.5 -39.5
q0 -52 -40.5 -96t-93.5 -63z" />
    <glyph glyph-name="dagger" unicode="&#x2020;" 
d="M135 -196h-19q119 372 118 541q52 44 74 114q-25 0 -76 -21.5t-68 -21.5q-21 0 -36 11.5t-15 31.5t16 31t37 11q18 0 70 -15t77 -15q8 31 8 115q0 56 13.5 82t46.5 26q20 0 31 -14t11 -34q0 -34 -42.5 -91t-48.5 -84q36 0 79 15t66 15q20 0 35 -11.5t15 -30.5t-16 -31
t-35 -12q-22 0 -72.5 21.5t-76.5 21.5q-6 -32 -6 -48q0 -35 19 -66q-48 -108 -61.5 -138t-33 -79t-23.5 -64t-30.5 -93.5t-56.5 -166.5z" />
    <glyph glyph-name="daggerdbl" unicode="&#x2021;" 
d="M242 162q0 -29 10 -55q-40 -27 -72 -107q32 0 74 13t58 13q15 0 26.5 -10.5t11.5 -25.5t-12 -25.5t-28 -10.5t-61 14t-75 14q-12 -40 -12 -94q0 -104 -52 -104q-14 0 -23.5 11.5t-9.5 25.5q0 27 36.5 85.5t42.5 75.5q-25 0 -70 -14t-62 -14q-14 0 -26 11t-12 25
q0 15 12 25.5t28 10.5q14 0 57.5 -13t77.5 -13q8 32 8 50q0 29 -18 57q41 30 68.5 92.5t27.5 116.5q0 29 -10 55q40 27 72 107q-32 0 -74 -13t-58 -13q-15 0 -26.5 10.5t-11.5 25.5t12 25.5t28 10.5t61 -14t75 -14q12 40 12 94q0 104 52 104q14 0 23.5 -11.5t9.5 -25.5
q0 -27 -36.5 -85.5t-42.5 -75.5q25 0 70 14t62 14q14 0 26 -11t12 -25q0 -15 -12 -25.5t-28 -10.5q-14 0 -57.5 13t-77.5 13q-8 -32 -8 -50q0 -28 18 -57q-41 -30 -68.5 -92.5t-27.5 -116.5z" />
    <glyph glyph-name="bullet" unicode="&#x2022;" horiz-adv-x="350" 
d="M175 425q52 0 88.5 -36.5t36.5 -88.5t-36.5 -88.5t-88.5 -36.5t-88.5 36.5t-36.5 88.5t36.5 88.5t88.5 36.5z" />
    <glyph glyph-name="ellipsis" unicode="&#x2026;" horiz-adv-x="889" 
d="M101 -12q-21 0 -35.5 14.5t-14.5 35.5t14.5 35.5t35.5 14.5t35.5 -14.5t14.5 -35.5t-14.5 -35.5t-35.5 -14.5zM397 -12q-21 0 -35.5 14.5t-14.5 35.5t14.5 35.5t35.5 14.5t35.5 -14.5t14.5 -35.5t-14.5 -35.5t-35.5 -14.5zM693 -12q-21 0 -35.5 14.5t-14.5 35.5
t14.5 35.5t35.5 14.5t35.5 -14.5t14.5 -35.5t-14.5 -35.5t-35.5 -14.5z" />
    <glyph glyph-name="perthousand" unicode="&#x2030;" horiz-adv-x="1000" 
d="M876 342q43 0 78 -36.5t35 -99.5q0 -87 -59.5 -152.5t-124.5 -65.5q-53 0 -86 37.5t-33 91.5q0 80 56 152.5t134 72.5zM876 322q-50 0 -89 -94t-39 -160q0 -24 13 -42t36 -18q35 0 67 50.5t47.5 107t15.5 90.5q0 66 -51 66zM535 342q43 0 78 -36.5t35 -99.5
q0 -87 -59.5 -152.5t-124.5 -65.5q-53 0 -86 37.5t-33 91.5q0 80 56 152.5t134 72.5zM535 322q-50 0 -89 -94t-39 -160q0 -24 13 -42t36 -18q35 0 67 50.5t47.5 107t15.5 90.5q0 66 -51 66zM254 674q43 0 78 -36.5t35 -99.5q0 -87 -59.5 -152.5t-124.5 -65.5q-53 0 -86 37.5
t-33 91.5q0 80 56 152.5t134 72.5zM254 654q-50 0 -89 -94t-39 -160q0 -24 13 -42t36 -18q35 0 67 50.5t47.5 107t15.5 90.5q0 66 -51 66zM649 677l-537 -692h-42l537 692h42z" />
    <glyph glyph-name="guilsinglleft" unicode="&#x2039;" horiz-adv-x="333" 
d="M311 449l-166 -233l54 -231h-21l-122 231l229 233h26z" />
    <glyph glyph-name="guilsinglright" unicode="&#x203a;" horiz-adv-x="333" 
d="M22 -15l166 233l-54 231h21l122 -231l-229 -233h-26z" />
    <glyph glyph-name="exclamdbl" unicode="&#x203c;" horiz-adv-x="542" 
d="M135 161h-18l7 27q29 111 48 230q4 25 23 139q10 60 21 83q17 37 46 37q14 0 23.5 -11.5t9.5 -28.5q0 -22 -11 -55q-35 -105 -53 -152l-49 -128l-38 -113zM103 84q21 0 35.5 -14.5t14.5 -36.5q0 -20 -15 -34.5t-35 -14.5q-21 0 -35.5 15t-14.5 35q0 21 14.5 35.5
t35.5 14.5zM389 161h-19l7 27q32 121 49 230q15 95 22 139q10 60 21 83q17 37 47 37q14 0 23 -11.5t9 -28.5q0 -25 -10 -55q-35 -105 -53 -152l-50 -128l-37 -113zM356 84q21 0 35.5 -14.5t14.5 -36.5q0 -20 -14.5 -34.5t-35.5 -14.5q-20 0 -35 15t-15 35q0 21 14.5 35.5
t35.5 14.5z" />
    <glyph glyph-name="overline" unicode="&#x203e;" 
d="M33 821h434v-49h-434v49z" />
    <glyph glyph-name="fraction" unicode="&#x2044;" horiz-adv-x="167" 
d="M334 674l-457 -701h-44l457 701h44z" />
    <glyph glyph-name="zerosuperior" unicode="&#x2070;" horiz-adv-x="300" 
d="M255 675q41 0 66.5 -32.5t25.5 -84.5q0 -91 -54 -166t-120 -75q-44 0 -69 30t-25 83q0 93 54.5 169t121.5 76zM253 656q-27 0 -49 -34q-27 -40 -48.5 -114t-21.5 -125q0 -50 39 -50q27 0 50 36q26 42 47 111.5t21 116.5q0 27 -10.5 43t-27.5 16z" />
    <glyph glyph-name="foursuperior" unicode="&#x2074;" horiz-adv-x="300" 
d="M344 668l-78 -224h50l-12 -36h-48l-30 -91h-51l30 91h-144l14 39l237 221h32zM264 589l-151 -145h104l49 143z" />
    <glyph glyph-name="fivesuperior" unicode="&#x2075;" horiz-adv-x="300" 
d="M197 668h142l-15 -48h-118l-18 -36q110 -21 110 -109q0 -63 -51 -110.5t-119 -47.5q-28 0 -46 9.5t-18 23.5q0 11 9.5 18t22.5 7q19 0 37 -13t31 -13q33 0 57 28.5t24 68.5t-23 65q-24 24 -83 29l-7 1z" />
    <glyph glyph-name="sixsuperior" unicode="&#x2076;" horiz-adv-x="300" 
d="M365 676v-16q-51 -10 -100 -45q-35 -24 -68 -67q24 4 36 4q41 0 68 -25t27 -63q0 -58 -44.5 -102.5t-103.5 -44.5q-44 0 -71.5 29t-27.5 75q0 52 29 102.5t81 89.5q77 57 174 63zM172 512q-38 -73 -38 -121q0 -25 12.5 -40.5t32.5 -15.5q31 0 58 41.5t27 88.5
q0 30 -13.5 46.5t-37.5 16.5t-41 -16z" />
    <glyph glyph-name="sevensuperior" unicode="&#x2077;" horiz-adv-x="300" 
d="M161 670h204v-12l-222 -341l-32 13l190 294h-85q-35 0 -48 -5t-29 -24l-4 -6h-24z" />
    <glyph glyph-name="eightsuperior" unicode="&#x2078;" horiz-adv-x="300" 
d="M179 512q-42 46 -42 78q0 36 31 61t76 25q42 0 71 -21.5t29 -52.5q0 -29 -21 -50t-68 -38q53 -43 53 -93q0 -43 -38 -73.5t-91 -30.5q-48 0 -80 25t-32 62q0 34 33 66t79 42zM240 530q26 8 41.5 28t15.5 46q0 24 -14.5 38t-39.5 14q-23 0 -37 -13t-14 -34q0 -32 48 -79z
M196 496q-79 -35 -79 -104q0 -26 17.5 -41.5t46.5 -15.5q31 0 51.5 19t20.5 48q0 43 -57 94z" />
    <glyph glyph-name="ninesuperior" unicode="&#x2079;" horiz-adv-x="300" 
d="M61 317v14q53 9 100 43q35 25 68 68q-22 -3 -38 -3q-40 0 -66.5 25.5t-26.5 64.5q0 57 45 102t102 45q44 0 72 -29.5t28 -75.5q0 -95 -86 -172t-198 -82zM254 478q38 68 38 122q0 26 -12.5 41t-33.5 15q-32 0 -58 -41.5t-26 -91.5q0 -28 13 -44.5t36 -16.5q27 0 43 16z
" />
    <glyph glyph-name="plussuperior" unicode="&#x207a;" horiz-adv-x="405" 
d="M250 333v144h-144v39h144v144h39v-144h144v-39h-144v-144h-39z" />
    <glyph glyph-name="parenleftsuperior" unicode="&#x207d;" horiz-adv-x="200" 
d="M160 233l-20 -10l-2 3q-66 118 -66 197q0 98 55.5 181t176.5 165l3 3l13 -17l-4 -3q-71 -53 -109 -115t-60 -136.5t-22 -137.5q0 -55 33 -127z" />
    <glyph glyph-name="parenrightsuperior" unicode="&#x207e;" horiz-adv-x="200" 
d="M133 762l20 10l2 -3l7 -13q59 -109 59 -185q0 -98 -55.5 -180.5t-176.5 -164.5l-4 -2l-12 16l4 3q71 53 109 115t60 136.5t22 136.5q0 52 -27 114l-6 14z" />
    <glyph glyph-name="nsuperior" unicode="&#x207f;" horiz-adv-x="343" 
d="M249 677l-33 -102l2 -2q28 48 65.5 76t70.5 28q37 0 37 -36q0 -19 -6 -38l-35 -113q-11 -35 -11 -44q0 -7 6 -7q17 0 46 40l11 -6q-21 -31 -45.5 -49.5t-43.5 -18.5q-11 0 -18.5 7.5t-7.5 19.5q0 11 13 54l29 94q12 39 12 47q0 16 -15 16q-27 0 -60 -34q-47 -46 -69 -97
l-1 -3l-13 -44q-13 -43 -17 -53h-47l58 191l8 24l2 12q0 11 -21 13q-15 -1 -24 -4l-3 11l98 18h12z" />
    <glyph glyph-name="trademark" unicode="&#x2122;" horiz-adv-x="980" 
d="M88 662h356l10 -98h-17q-3 20 -10.5 33t-15.5 20t-24 10.5t-27 4t-34 0.5h-19v-271q0 -24 1 -34t6 -21.5t17.5 -15.5t33.5 -4v-18h-197v18q40 0 49 15.5t9 59.5v271h-20q-23 0 -34 -0.5t-27 -4t-24 -10.5t-15.5 -20t-10.5 -33h-17zM628 662l134 -277l129 277h140v-18
q-40 0 -49 -15.5t-9 -59.5v-208q0 -24 1 -34t6 -21.5t17.5 -15.5t33.5 -4v-18h-197v18q40 0 49 15.5t9 59.5v227h-2l-149 -320h-16l-149 315h-2v-222q0 -24 1 -34t6 -21.5t17.5 -15.5t33.5 -4v-18h-146v18q40 0 49 15.5t9 59.5v208q0 24 -1 34t-6 21.5t-17.5 15.5t-33.5 4
v18h142z" />
    <glyph glyph-name="oneeighth" unicode="&#x215b;" horiz-adv-x="750" 
d="M535 168q-42 46 -42 78q0 36 31 60.5t75 24.5q43 0 72 -21t29 -52q0 -29 -21 -50t-68 -38q53 -43 53 -93q0 -43 -38.5 -73.5t-91.5 -30.5q-47 0 -79 25t-32 62q0 34 33 66t79 42zM552 152q-80 -35 -80 -104q0 -26 18 -41.5t47 -15.5q31 0 51.5 19t20.5 47q0 44 -57 95z
M596 186q26 8 41.5 28t15.5 46q0 24 -14.5 38t-39.5 14q-23 0 -37.5 -13t-14.5 -35q0 -30 49 -78zM625 676l-456 -703h-44l457 703h43zM303 676l-94 -286q-8 -26 -8 -33q0 -18 29 -18l14 -1l-5 -15h-160l6 15q35 1 45 9t23 47l67 201q7 20 7 29q0 15 -14 15q-3 0 -23 -3
l-5 -1l-6 15l110 26h14z" />
    <glyph glyph-name="threeeighths" unicode="&#x215c;" horiz-adv-x="750" 
d="M535 168q-42 46 -42 78q0 36 31 60.5t75 24.5q43 0 72 -21t29 -52q0 -29 -21 -50t-68 -38q53 -43 53 -93q0 -43 -38.5 -73.5t-91.5 -30.5q-47 0 -79 25t-32 62q0 34 33 66t79 42zM552 152q-80 -35 -80 -104q0 -26 18 -41.5t47 -15.5q31 0 51.5 19t20.5 47q0 44 -57 95z
M625 676l-456 -703h-44l457 703h43zM596 186q26 8 41.5 28t15.5 46q0 24 -14.5 38t-39.5 14q-23 0 -37.5 -13t-14.5 -35q0 -30 49 -78zM134 508v13q129 17 129 78q0 19 -12.5 31t-31.5 12q-28 0 -54 -36l-20 5q32 65 96 65q36 0 59 -18.5t23 -47.5q0 -51 -81 -82
q54 -26 54 -79q0 -54 -47.5 -93t-112.5 -39q-32 0 -52 9t-20 23q0 10 9 17t22 7t25 -5l23 -11q20 -10 39 -10q20 0 36.5 24t16.5 54q0 38 -26.5 60t-74.5 23z" />
    <glyph glyph-name="fiveeighths" unicode="&#x215d;" horiz-adv-x="750" 
d="M535 168q-42 46 -42 78q0 36 31 60.5t75 24.5q43 0 72 -21t29 -52q0 -29 -21 -50t-68 -38q53 -43 53 -93q0 -43 -38.5 -73.5t-91.5 -30.5q-47 0 -79 25t-32 62q0 34 33 66t79 42zM552 152q-80 -35 -80 -104q0 -26 18 -41.5t47 -15.5q31 0 51.5 19t20.5 47q0 44 -57 95z
M596 186q26 8 41.5 28t15.5 46q0 24 -14.5 38t-39.5 14q-23 0 -37.5 -13t-14.5 -35q0 -30 49 -78zM625 676l-456 -703h-44l457 703h43zM197 668h142l-15 -48h-118l-18 -36q110 -21 110 -109q0 -63 -51 -110.5t-119 -47.5q-28 0 -46 9.5t-18 23.5q0 11 9.5 18t22.5 7
q19 0 37 -13t31 -13q33 0 57 28.5t24 68.5t-23 65q-24 24 -83 29l-7 1z" />
    <glyph glyph-name="seveneighths" unicode="&#x215e;" horiz-adv-x="750" 
d="M535 168q-42 46 -42 78q0 36 31 60.5t75 24.5q43 0 72 -21t29 -52q0 -29 -21 -50t-68 -38q53 -43 53 -93q0 -43 -38.5 -73.5t-91.5 -30.5q-47 0 -79 25t-32 62q0 34 33 66t79 42zM552 152q-80 -35 -80 -104q0 -26 18 -41.5t47 -15.5q31 0 51.5 19t20.5 47q0 44 -57 95z
M596 186q26 8 41.5 28t15.5 46q0 24 -14.5 38t-39.5 14q-23 0 -37.5 -13t-14.5 -35q0 -30 49 -78zM614 676l-457 -703h-44l457 703h44zM161 670h204v-12l-222 -341l-32 13l190 294h-85q-35 0 -48 -5t-29 -24l-4 -6h-24z" />
    <glyph glyph-name="minus" unicode="&#x2212;" horiz-adv-x="675" 
d="M105 300v64h504v-64h-504z" />
    <glyph glyph-name="radical" unicode="&#x221a;" horiz-adv-x="549" 
d="M0 375h167l49 -197h2l212 643h158v-49h-98l-279 -812l-108 351h-103v64z" />
    <glyph glyph-name="infinity" unicode="&#x221e;" horiz-adv-x="709" 
d="M374 379q27 30 45.5 47t55.5 35t77 18q54 0 99.5 -36.5t45.5 -110.5t-46 -110.5t-97 -36.5q-41 0 -78.5 18t-55 34.5t-46.5 47.5q-82 -100 -177 -100q-55 0 -100 37t-45 110q0 51 25.5 86.5t56.5 48t61 12.5q97 0 179 -100zM332 332q-23 25 -38.5 39.5t-43.5 29t-58 14.5
q-32 0 -54 -24t-22 -59t22 -59t55 -24q30 0 59 15t43.5 29t36.5 39zM417 332q23 -26 38 -40t43.5 -28.5t58.5 -14.5q32 0 54 24t22 59t-22 59t-55 24q-30 0 -59 -15.5t-42.5 -28.5t-37.5 -39z" />
    <glyph glyph-name="rightangle" unicode="&#x221f;" horiz-adv-x="675" 
d="M636 0h-504v504h64v-440h440v-64z" />
    <glyph glyph-name="intersection" unicode="&#x2229;" horiz-adv-x="675" 
d="M182 0h-64v269q0 99 6 149.5t29 86.5q68 106 204 106q134 0 205 -106q16 -25 24 -65.5t9 -72.5t1 -98v-269h-64v272q0 149 -24 193q-24 40 -65.5 61t-85.5 21q-45 0 -86 -22t-64 -61q-25 -42 -25 -192v-272z" />
    <glyph glyph-name="similar" unicode="&#x223c;" horiz-adv-x="675" 
d="M154 272l-55 34q12 22 21 35.5t26 33.5t38 30.5t45 10.5q50 0 148 -50q94 -47 135 -47q21 0 37 16t39 58l55 -34q-14 -24 -22 -36.5t-25.5 -34t-38.5 -31.5t-45 -10q-47 0 -109 31q-5 3 -39 20q-84 46 -134 46q-22 0 -37.5 -15.5t-38.5 -56.5z" />
    <glyph glyph-name="approxequal" unicode="&#x2248;" horiz-adv-x="675" 
d="M147 368l-55 34q13 23 21.5 36t26 33.5t38.5 30.5t45 10q50 0 148 -50q87 -47 134 -47q21 0 36.5 15.5t39.5 58.5l55 -34q-12 -22 -21 -36t-26 -34.5t-38.5 -31t-45.5 -10.5q-46 0 -108 31q-34 17 -39 20q-92 46 -135 46q-22 0 -37.5 -16t-38.5 -56zM147 176l-55 34
q13 23 21.5 36t26 33.5t38.5 30.5t45 10q46 0 109 -30q69 -36 106 -51.5t67 -15.5q21 0 36.5 16.5t39.5 57.5l55 -34q-12 -22 -21 -36t-26 -34.5t-38.5 -31t-45.5 -10.5q-49 0 -147 51q-92 46 -135 46q-22 0 -37.5 -16t-38.5 -56z" />
    <glyph glyph-name="notequal" unicode="&#x2260;" horiz-adv-x="675" 
d="M443 460h180v-64h-198l-38 -128h236v-64h-255l-34 -112h-69l33 112h-179v64h198l38 128h-236v64h255l33 112h70z" />
    <glyph glyph-name="equivalence" unicode="&#x2261;" horiz-adv-x="675" 
d="M105 492v64h504v-64h-504zM105 300v64h504v-64h-504zM105 108v64h504v-64h-504z" />
    <glyph glyph-name="lessequal" unicode="&#x2264;" horiz-adv-x="675" 
d="M605 181v-70l-509 233v56l509 233v-70l-417 -191zM101 31v64h504v-64h-504z" />
    <glyph glyph-name="greaterequal" unicode="&#x2265;" horiz-adv-x="675" 
d="M109 181l417 191l-417 191v70l509 -233v-56l-509 -233v70zM109 31v64h504v-64h-504z" />
    <glyph glyph-name="commasuperior" unicode="&#xf6e2;" horiz-adv-x="150" 
d="M-16 212l5 2q44 18 44 44q0 9 -13 20q-8 7 -8 18q0 14 10.5 24.5t25.5 10.5q16 0 27 -11t11 -26q0 -28 -24 -55.5t-58 -38.5l-6 -2l-5 -1z" />
    <glyph glyph-name="periodsuperior" unicode="&#xf6e8;" horiz-adv-x="150" 
d="M49 329q15 0 26 -10t11 -23t-11 -22.5t-26 -9.5t-26 9.5t-11 22.5q0 14 10.5 23.5t26.5 9.5z" />
    <glyph glyph-name="ff" unicode="&#xfb00;" 
d="M466 430h71l-9 -33h-71l-72 -274q-57 -223 -158 -302q-47 -37 -97 -37q-26 0 -45 14.5t-19 33.5q0 17 12 28.5t29 11.5q15 0 24 -7.5t9 -19.5q0 -11 -5 -16l-10 -7l-3 -6q0 -10 16 -10q44 0 80 42q19 21 40 84q9 24 24 81q19 67 25 93l73 291h-179l-69 -270
q-28 -111 -72.5 -193t-94.5 -116q-49 -34 -90 -34q-26 0 -45.5 14.5t-19.5 34.5q0 15 12.5 27t28.5 12q14 0 23 -8.5t9 -21.5q0 -12 -9 -18t-9 -11q0 -8 18 -8q45 0 77 40q39 51 72 184l92 368h-86l9 33h24q35 0 51.5 15t42.5 68q36 75 73 112q69 70 139 70q32 0 54.5 -17
t22.5 -42q0 -18 -11.5 -30.5t-28.5 -12.5q-13 0 -23 8.5t-10 19.5q0 9 5 17q8 15 9 20q-3 15 -26 15q-33 0 -68 -33q-18 -16 -27 -35q-30 -56 -60 -161l-4 -14h108q44 0 64 18q12 13 43 73q89 174 207 174q34 0 56.5 -16.5t22.5 -40.5q0 -19 -11 -31.5t-27 -12.5
q-14 0 -24 8t-10 21q0 9 9 26q5 8 5 11q0 13 -26 13q-51 0 -92 -60q-47 -71 -69 -183z" />
    <glyph glyph-name="fi" unicode="&#xfb01;" 
d="M200 398l-69 -274q-15 -59 -37.5 -115t-54.5 -108.5t-75 -84.5t-89 -32q-23 0 -44.5 13t-21.5 35q0 18 12.5 29t30.5 11q12 0 21.5 -7.5t9.5 -19.5q0 -10 -9 -18.5t-9 -10.5q0 -10 17 -10q26 0 46 12.5t33.5 29.5t28.5 57.5t24.5 73.5t26.5 100l83 319h-86l8 32
q54 0 74.5 16.5t47.5 73.5q43 90 95 132t138 42q36 0 67.5 -18t31.5 -52q0 -18 -11 -30t-29 -12q-14 0 -25 9.5t-11 23.5q0 11 7.5 23t7.5 16q0 9 -13.5 13.5t-24.5 4.5q-42 0 -75 -20t-55 -57.5t-36 -75t-27 -89.5h153q42 0 97 12h10l-99 -354q-7 -21 -7 -32q0 -13 14 -13
q25 0 75 68l17 -11q-27 -40 -66 -76t-74 -36q-21 0 -34 12.5t-13 33.5q0 8 16 68l53 189q21 75 21 82q0 25 -38 25h-133z" />
    <glyph glyph-name="fl" unicode="&#xfb02;" 
d="M200 398l-69 -274q-15 -59 -37.5 -115t-54.5 -108.5t-75 -84.5t-89 -32q-23 0 -44.5 13t-21.5 35q0 18 12.5 29t30.5 11q12 0 21.5 -7.5t9.5 -19.5q0 -10 -9 -18.5t-9 -10.5q0 -10 17 -10q26 0 46 12.5t33.5 29.5t28.5 57.5t24.5 73.5t26.5 100l83 319h-86l8 32
q54 0 74.5 16.5t47.5 73.5q40 83 104 128.5t132 45.5q35 0 70 -21q18 2 64 21h10l-171 -606q-7 -21 -7 -32q0 -13 14 -13q25 0 75 68l17 -11q-27 -40 -66 -76t-74 -36q-21 0 -34 12.5t-13 33.5q0 8 16 68l84 296h-189zM208 430h190l46 161q-15 6 -15 25q0 9 8.5 20.5
t8.5 16.5q0 8 -12.5 13.5t-24.5 5.5q-43 0 -79 -23t-59.5 -61t-38.5 -77t-24 -81z" />
    <glyph glyph-name="ffi" unicode="&#xfb03;" horiz-adv-x="750" 
d="M721 442l-100 -344q-10 -34 -10 -41q1 -15 14 -15q15 0 37 22q10 9 32 38l6 8l17 -12l-6 -8q-38 -54 -75 -80q-33 -22 -61 -22q-19 0 -31.5 12t-12.5 32q0 16 13 59l69 238q11 36 11 45q0 13 -13 21q-5 4 -37 4h-122l-53 -208q-56 -222 -128 -318q-66 -89 -142 -89
q-29 0 -48.5 15t-19.5 36q0 15 12.5 25.5t29.5 10.5q13 0 23 -7t10 -17q0 -8 -13 -21q-5 -5 -5 -10q0 -10 14 -10q33 0 59 22q29 26 40 48q14 27 30 80q10 36 15 55l100 388h-175l-70 -273q-41 -164 -114 -259q-67 -83 -145 -83q-25 0 -43.5 14.5t-18.5 33.5q0 16 12.5 27.5
t29.5 11.5q13 0 22.5 -7.5t9.5 -18.5q0 -10 -11 -21q-7 -7 -7 -11q0 -9 15 -9q38 0 70 32q19 17 29 38q18 40 39 111l28 106l78 308h-88l10 31h13q37 0 56.5 13t40.5 52l38 73q20 36 63 75q58 52 122 52q28 0 48.5 -16.5t20.5 -39.5q0 -17 -12.5 -29.5t-29.5 -12.5
q-13 0 -21.5 9t-8.5 22q0 9 5 17q7 14 7 20q-1 9 -18 9q-23 0 -48.5 -16t-41.5 -40q-40 -63 -72 -188h89q51 0 69.5 11.5t37.5 55.5q42 96 105 147t139 51q46 0 75.5 -19t29.5 -49q0 -19 -11 -31t-28 -12q-16 0 -27 9.5t-11 22.5q0 10 6 21q8 14 8 19q0 16 -39 16
q-72 0 -121 -63q-20 -25 -41 -77t-31 -102h150q37 0 85 10l9 2h18z" />
    <glyph glyph-name="ffl" unicode="&#xfb04;" horiz-adv-x="750" 
d="M801 695l-173 -589q-10 -30 -10 -46q0 -5 4.5 -10t9.5 -5q22 0 76 68l17 -12q-43 -59 -76 -84.5t-65 -25.5q-20 0 -33 11.5t-13 30.5q0 22 12 61l89 303h-185l-61 -238q-65 -257 -168 -336q-50 -39 -96 -39q-28 0 -47 14.5t-19 34.5q0 17 12 28.5t31 11.5q14 0 23 -7
t9 -18q0 -10 -6 -16l-8 -9l-3 -6q0 -9 16 -9q27 0 53 18q26 16 41.5 43t30.5 83l47 169l69 276h-177l-58 -229q-70 -277 -178 -352q-47 -32 -88 -32q-29 0 -48.5 14t-19.5 34q0 16 13 28t30 12q13 0 22.5 -8t9.5 -19q0 -8 -13 -22l-5 -8q0 -10 16 -10q48 0 79 40
q27 38 44 91q29 96 50 182l69 279h-87l9 33h25q34 0 53 17q12 11 41 65q36 68 66 104.5t65 56.5q39 22 80 22q34 0 56 -16t22 -42q0 -17 -12 -28.5t-28 -11.5q-13 0 -22 8.5t-9 20.5q0 9 4 14l7 15l2 6q-3 16 -25 16q-38 0 -71 -36q-16 -18 -26 -34q-34 -60 -60 -161l-4 -16
h122q28 0 44 11t29 39l27 56q35 73 94 116t124 43q40 0 75 -18q29 1 50 14l8 4h18zM649 430l45 159q-8 13 -10 27q1 13 6 19l10 11l2 7q0 8 -13 13t-32 5q-91 0 -138 -90q-37 -73 -55 -151h185z" />
    <glyph glyph-name="longdash" horiz-adv-x="1000" 
d="M971 221h-942v36h942v-36z" />
    <glyph glyph-name="zerodot" 
d="M279 382q21 0 36 -14.5t15 -34.5q0 -22 -14.5 -36.5t-35.5 -14.5t-35.5 14.5t-14.5 35.5q0 20 14.5 35t34.5 15zM346 676q70 0 108.5 -57.5t38.5 -161.5q0 -173 -90 -325q-50 -84 -121 -126q-32 -18 -74 -18q-70 0 -109 58t-39 161q0 104 38.5 212.5t101.5 179.5
q66 77 146 77zM346 650q-25 0 -50 -17t-41 -45q-46 -80 -84 -229t-38 -251q0 -47 20 -74.5t55 -27.5q28 0 46 16q57 51 92 156q44 133 66 269q8 54 8 94q0 71 -36 97q-15 12 -38 12z" />
    <glyph glyph-name="yuan" 
d="M324 310l-52 -175q-16 -51 -16 -76q0 -22 15 -30.5t60 -10.5l-7 -18h-251l5 18q40 3 51 8q26 11 39 41q3 7 11 35q1 4 4 12t4 12l59 194l-6 16h-228l10 34h207l-53 178q-16 52 -30.5 71t-43.5 25l5 18h217l-5 -18q-34 0 -47 -6q-25 -10 -25 -36q0 -17 12 -62l56 -189
l134 185q11 15 31 47q13 24 13 35q0 16 -27 22q-10 3 -36 4l4 18h188l-5 -18q-32 -5 -55.5 -23.5t-60.5 -69.5l-134 -181h169l-9 -34h-184z" />
    <glyph glyph-name="Pts" horiz-adv-x="990" 
d="M204 662h188q105 0 162 -39.5t57 -111.5q0 -18 -5 -39q25 18 45 43q15 17 31 43h23l-35 -121h64l-9 -31h-64l-96 -333l-4 -10l-3 -17q0 -13 10 -13q15 0 42 29q16 16 42 53l5 31h18q3 -65 22 -93q27 -43 69 -43q32 0 56 23.5t24 54.5q0 24 -18 61q-7 14 -35 56
q-58 87 -58 137q0 43 33 75t78 32q29 0 60 -13q22 -10 27 -10q15 0 29 23h17l-27 -150h-16q0 59 -21 93.5t-58 34.5q-23 0 -40 -16t-17 -38q0 -31 36 -84q46 -70 62 -105.5t16 -67.5q0 -52 -42.5 -89.5t-101.5 -37.5q-26 0 -56 10q-24 9 -31 9q-15 0 -38 -20h-17l16 83l-2 2
q-36 -42 -58 -60q-32 -25 -58 -25q-17 0 -30 13.5t-13 31.5q0 10 10 47l95 326h-15q-32 -43 -87 -69t-113 -26q-33 0 -88 16l-58 -203q-10 -36 -10 -49q0 -28 18 -42t59 -16l-5 -17h-266l5 17q44 5 64 26.5t37 80.5l3 10l118 408l3 10q9 29 9 46q0 43 -63 46zM371 625
l-77 -265q39 -12 57 -12q65 0 112 50t47 120q0 52 -28.5 81t-80.5 29q-17 0 -30 -3z" />
    <glyph glyph-name="minussuperior" horiz-adv-x="405" 
d="M433 477h-327v39h327v-39z" />
    <glyph glyph-name="spacenumeric" 
 />
    <glyph glyph-name="micro" 
d="M180 430h73l-90 -304q-8 -29 -8 -42q0 -25 14.5 -41t36.5 -16q51 0 109 73q34 44 47 90l71 240h73l-87 -294q-11 -39 -11 -61q0 -41 32 -41q35 0 57 69h17q-31 -115 -102 -115q-31 0 -51.5 25t-20.5 63q0 12 2 25l-2 2q-51 -63 -88.5 -89t-75.5 -26q-46 0 -72 42l-3 -15
l-14 -68l-11 -61q-7 -64 -17 -79q-11 -13 -29 -13q-17 0 -29 10.5t-12 26.5q0 24 24 69q15 29 30 70q11 28 11 30z" />
    <glyph glyph-name="dbar" 
d="M502 558h84l-5 -27h-87l-121 -413l-7 -31q-6 -19 -6 -28q2 -16 12 -16q19 1 64 56l7 9l17 -10q-29 -39 -58 -67q-43 -43 -80 -43q-17 0 -28 12.5t-11 33.5q0 26 15 74l19 59l-2 2q-112 -181 -204 -181q-39 0 -65.5 35.5t-26.5 88.5q0 57 28.5 120t79.5 116q41 44 87 69
t85 25q47 0 82 -46l39 135h-177l5 27h180l5 17l5 19q7 24 7 32q0 11 -10 18.5t-24 7.5l-28 -2l-10 -2v19l154 28h14zM360 348q0 30 -18 49.5t-46 19.5q-48 0 -98 -60q-44 -54 -70.5 -117.5t-26.5 -117.5q0 -34 15 -55t40 -21q47 0 114 90q90 123 90 212z" />
    <glyph glyph-name="approxequalalt" horiz-adv-x="675" 
d="M154 341l-55 34q12 22 21.5 36t26 34t38 30.5t45.5 10.5q51 0 108 -31q13 -4 39 -20q92 -46 135 -46q21 0 36.5 15.5t39.5 57.5l55 -34q-14 -24 -22 -36.5t-25.5 -33.5t-38.5 -31t-45 -10q-50 0 -148 50q-90 47 -134 47q-22 0 -37.5 -16t-38.5 -57zM119 178v64h504v-64
h-504z" />
    <glyph glyph-name="productdot" horiz-adv-x="250" 
d="M125 393q25 0 43 -17.5t18 -43.5t-18 -44t-43 -18t-43 18t-18 44t18 43.5t43 17.5z" />
    <glyph glyph-name="zeroslash" 
d="M76 95l-1 3q-15 52 -15 109q0 103 38.5 212t100.5 180q65 77 146 77q74 0 117 -68l52 69l29 -21l-65 -86q15 -48 15 -116q0 -170 -90 -322q-50 -84 -121 -126q-32 -18 -74 -18q-76 0 -116 69l-52 -68l-28 22zM139 177l280 375v2q-3 62 -35 84q-17 12 -38 12
q-26 0 -50.5 -17t-40.5 -45q-39 -67 -71.5 -181t-46.5 -228zM415 490l-282 -378v-2v-6q0 -44 20.5 -71t54.5 -27q28 0 46 16q56 49 92 156q58 180 71 307v5h-2z" />
    <glyph glyph-name="underscorebroken" 
d="M33 -75h434v-49h-434v49z" />
  </font>
</defs>
</svg>
