<svg xmlns="http://www.w3.org/2000/svg" width="396.102" height="67.647" viewBox="0 0 396.102 67.647">
  <defs>
    <style>
      .cls-1 {
        fill: #fff;
      }
    </style>
  </defs>
  <g id="app_logo_aelf" transform="translate(-2290.949 -403.862)">
    <g id="Group_15" data-name="Group 15">
      <g id="Group_14" data-name="Group 14">
        <rect id="Rectangle_5" data-name="Rectangle 5" class="cls-1" width="10.87" height="61.419" transform="translate(2449.647 405.601)"/>
        <path id="Path_5" data-name="Path 5" class="cls-1" d="M2495.21,433.57v-9.563h-12.6v-4.513a5.763,5.763,0,0,1,5.763-5.763h6.842v-9.868h-8.133a15.021,15.021,0,0,0-15.021,15.02v5.124h-7.4v9.563h7.4V467.02H2482.6V433.57Z"/>
        <rect id="Rectangle_6" data-name="Rectangle 6" class="cls-1" width="9.354" height="9.354" transform="translate(2492.949 457.666)"/>
        <path id="Path_6" data-name="Path 6" class="cls-1" d="M2439.024,452.818a16.782,16.782,0,0,1-12.078,4.627c-6.677,0-11.8-4.387-12.652-9.861h33.748a25.734,25.734,0,0,0,.283-3.534c0-12.489-8.149-21.856-20.071-21.856a21.045,21.045,0,0,0-15.419,6.8v-5.312h-7.863v5.134a21.042,21.042,0,0,0-15.265-6.625c-11.922,0-21.587,10.125-21.587,22.615s9.665,22.614,21.587,22.614a21.041,21.041,0,0,0,15.265-6.624v5.134h7.863v-5.312a21.048,21.048,0,0,0,15.419,6.8c7.4,0,13.284-2.715,17.244-7.606Zm-11.992-21.906a12.086,12.086,0,0,1,11.759,8.757h-24.417A13.539,13.539,0,0,1,2427.032,430.912ZM2392.082,458a13.545,13.545,0,1,1,13.545-13.545A13.544,13.544,0,0,1,2392.082,458Z"/>
      </g>
      <ellipse id="Ellipse_4" data-name="Ellipse 4" class="cls-1" cx="13.041" cy="13.037" rx="13.041" ry="13.037" transform="matrix(0.231, -0.973, 0.973, 0.231, 2325.365, 447.276)"/>
      <path id="Path_7" data-name="Path 7" class="cls-1" d="M2321.26,439.9a3.755,3.755,0,0,0-1.918,1.432h0v0a3.926,3.926,0,0,0-.383.68,6.171,6.171,0,0,1-1.191,1.783,12.919,12.919,0,0,1-3.137,2.359c-2.23,1.238-6.909-.713-9.028-1.722a9.561,9.561,0,0,0-1.051-.526l-.036-.019,0,0a9.67,9.67,0,1,0,5.641,11.292l.008.014c1.043-4.528,3.081-6.609,5.2-7.787s5.9-.178,5.9-.178l0-.006a3.879,3.879,0,0,0,3.872-6.536A3.918,3.918,0,0,0,2321.26,439.9Z"/>
      <circle id="Ellipse_5" data-name="Ellipse 5" class="cls-1" cx="6.389" cy="6.389" r="6.389" transform="matrix(0.714, -0.701, 0.701, 0.714, 2315.254, 462.389)"/>
      <circle id="Ellipse_6" data-name="Ellipse 6" class="cls-1" cx="6.389" cy="6.389" r="6.389" transform="matrix(0.714, -0.701, 0.701, 0.714, 2315.254, 412.855)"/>
      <path id="Path_8" data-name="Path 8" class="cls-1" d="M2324.288,427.506a3.75,3.75,0,0,0-2.374-.3v0l0,0a3.869,3.869,0,0,0-.748.224,6.183,6.183,0,0,1-2.095.456,12.946,12.946,0,0,1-3.9-.481c-2.464-.658-4.476-5.31-5.3-7.508a9.645,9.645,0,0,0-.391-1.108l-.013-.038v0a9.669,9.669,0,1,0-3.779,12.043l0,.016c3.894-2.535,6.806-2.616,9.145-2s4.369,3.967,4.369,3.967l0,0a3.879,3.879,0,0,0,7.324-2.015A3.918,3.918,0,0,0,2324.288,427.506Z"/>
    </g>
    <g id="Group_16" data-name="Group 16">
      <path id="Path_9" data-name="Path 9" class="cls-1" d="M2506.079,423.206h10.4l9.137,29.868,9.893-29.995h8.318l9.893,29.995,9.137-29.868H2573l-15.06,44.424H2549.5l-9.956-28.86-9.956,28.86h-8.444Z"/>
      <path id="Path_10" data-name="Path 10" class="cls-1" d="M2583.711,467.945a15,15,0,0,1-4.5-.661,10.559,10.559,0,0,1-3.687-1.985,9.484,9.484,0,0,1-2.489-3.246,10.229,10.229,0,0,1-.914-4.443v-.125a10.6,10.6,0,0,1,1.008-4.789,9.208,9.208,0,0,1,2.8-3.34,12.585,12.585,0,0,1,4.285-1.985,21.441,21.441,0,0,1,5.513-.661,23.531,23.531,0,0,1,4.506.378,28.393,28.393,0,0,1,3.749,1.008v-.567a5.743,5.743,0,0,0-1.827-4.6,8.1,8.1,0,0,0-5.42-1.576,22.511,22.511,0,0,0-4.883.473,32.91,32.91,0,0,0-4.443,1.355l-2.394-7.31a37.568,37.568,0,0,1,5.8-1.953,30.539,30.539,0,0,1,7.31-.756,20.677,20.677,0,0,1,6.774.977,12.037,12.037,0,0,1,4.631,2.8,11.325,11.325,0,0,1,2.772,4.631,20,20,0,0,1,.883,6.144v19.6h-9.263V463.66a13.3,13.3,0,0,1-4.222,3.119A13.894,13.894,0,0,1,2583.711,467.945Zm2.9-6.617a8.463,8.463,0,0,0,5.451-1.638,5.228,5.228,0,0,0,2.048-4.285v-1.7a14.655,14.655,0,0,0-2.8-.913,15.1,15.1,0,0,0-3.309-.347,8.55,8.55,0,0,0-4.851,1.2,3.928,3.928,0,0,0-1.764,3.466v.126a3.543,3.543,0,0,0,1.448,3.025A6.2,6.2,0,0,0,2586.609,461.328Z"/>
      <path id="Path_11" data-name="Path 11" class="cls-1" d="M2606.837,421.315h9.578v46h-9.578Z"/>
      <path id="Path_12" data-name="Path 12" class="cls-1" d="M2620.825,421.315h9.578v46h-9.578Z"/>
      <path id="Path_13" data-name="Path 13" class="cls-1" d="M2650.377,468.071a19.22,19.22,0,0,1-7.026-1.261,16.22,16.22,0,0,1-5.608-3.591,16.6,16.6,0,0,1-3.686-5.513,18.281,18.281,0,0,1-1.324-7.089v-.127a18.9,18.9,0,0,1,1.229-6.8,17.293,17.293,0,0,1,3.434-5.608,16.022,16.022,0,0,1,12.035-5.168,16.465,16.465,0,0,1,7.311,1.513,14.872,14.872,0,0,1,5.135,4.065,16.893,16.893,0,0,1,3.024,5.86,24.2,24.2,0,0,1,.977,6.9c0,.378-.011.778-.031,1.2s-.053.861-.094,1.323h-23.5a8.063,8.063,0,0,0,2.866,4.947,8.587,8.587,0,0,0,5.388,1.67,10.667,10.667,0,0,0,4.285-.82,14.563,14.563,0,0,0,3.907-2.646l5.482,4.852a16.992,16.992,0,0,1-5.8,4.631A17.979,17.979,0,0,1,2650.377,468.071Zm6.176-20.29a9.334,9.334,0,0,0-2.269-5.2,6.279,6.279,0,0,0-4.853-1.985,6.431,6.431,0,0,0-4.883,1.953,9.794,9.794,0,0,0-2.426,5.23Z"/>
      <path id="Path_14" data-name="Path 14" class="cls-1" d="M2679.363,467.882a15.724,15.724,0,0,1-4-.473,7.118,7.118,0,0,1-3.088-1.669,8.006,8.006,0,0,1-2.016-3.12,13.974,13.974,0,0,1-.725-4.883V441.731H2665.5V433.54h4.033v-8.633h9.578v8.633h7.94v8.191h-7.94v14.481q0,3.291,3.088,3.289a9.369,9.369,0,0,0,4.726-1.26v7.688a14.86,14.86,0,0,1-3.339,1.417A15.069,15.069,0,0,1,2679.363,467.882Z"/>
    </g>
  </g>
</svg>
