<svg xmlns="http://www.w3.org/2000/svg" width="27.295" height="32" viewBox="0 0 27.295 32">
  <defs>
    <style>
      .cls-1 {
        fill: #fff;
      }
    </style>
  </defs>
  <g id="download-apple" transform="translate(-213.012 -710.833)">
    <g id="Group_40" data-name="Group 40">
      <g id="Group_39" data-name="Group 39">
        <g id="Group_38" data-name="Group 38">
          <path id="Path_18" data-name="Path 18" class="cls-1" d="M215,721.268h-.082a1.912,1.912,0,0,0-1.907,1.907v8.306a1.912,1.912,0,0,0,1.907,1.909H215a1.913,1.913,0,0,0,1.907-1.909v-8.306A1.915,1.915,0,0,0,215,721.268Z"/>
          <path id="Path_19" data-name="Path 19" class="cls-1" d="M217.823,734.686a1.756,1.756,0,0,0,1.753,1.751h1.874v4.486a1.912,1.912,0,0,0,1.907,1.91h.082a1.914,1.914,0,0,0,1.911-1.91v-4.486h2.618v4.486a1.915,1.915,0,0,0,1.91,1.91h.081a1.913,1.913,0,0,0,1.909-1.91v-4.486h1.875a1.755,1.755,0,0,0,1.751-1.751V721.572H217.823Z"/>
          <path id="Path_20" data-name="Path 20" class="cls-1" d="M231.06,713.62l1.488-2.3a.316.316,0,1,0-.53-.345l-1.543,2.377a10.194,10.194,0,0,0-7.631,0l-1.54-2.377a.317.317,0,0,0-.533.345l1.489,2.3a7.534,7.534,0,0,0-4.5,6.641c0,.175.011.347.026.518h17.741c.015-.171.025-.343.025-.518A7.536,7.536,0,0,0,231.06,713.62Zm-8.513,4.113a.852.852,0,1,1,.854-.853A.853.853,0,0,1,222.547,717.733Zm8.225,0a.852.852,0,1,1,.853-.853A.852.852,0,0,1,230.772,717.733Z"/>
          <path id="Path_21" data-name="Path 21" class="cls-1" d="M238.4,721.268h-.079a1.914,1.914,0,0,0-1.91,1.907v8.306a1.914,1.914,0,0,0,1.91,1.909h.08a1.912,1.912,0,0,0,1.908-1.909v-8.306A1.913,1.913,0,0,0,238.4,721.268Z"/>
        </g>
      </g>
    </g>
  </g>
</svg>
