<svg xmlns="http://www.w3.org/2000/svg" width="26.057" height="32" viewBox="0 0 26.057 32">
  <defs>
    <style>
      .cls-1 {
        fill: #fff;
      }
    </style>
  </defs>
  <g id="download-apple" transform="translate(-204.355 -618.446)">
    <g id="Group_29" data-name="Group 29">
      <path id="Path_17" data-name="Path 17" class="cls-1" d="M226.118,635.449a7.244,7.244,0,0,1,3.454-6.093,7.474,7.474,0,0,0-5.851-3.171c-2.492-.252-4.862,1.468-6.127,1.468s-3.213-1.43-5.28-1.393a7.832,7.832,0,0,0-6.619,4.012c-2.822,4.9-.723,12.151,2.028,16.123,1.344,1.944,2.947,4.127,5.051,4.049,2.026-.081,2.792-1.311,5.242-1.311s3.139,1.311,5.283,1.271c2.18-.041,3.562-1.981,4.9-3.931a17.667,17.667,0,0,0,2.216-4.551A7.067,7.067,0,0,1,226.118,635.449Zm-4.029-11.893a7.058,7.058,0,0,0,1.665-5.11,7.176,7.176,0,0,0-4.713,2.424,6.706,6.706,0,0,0-1.7,4.951A5.936,5.936,0,0,0,222.089,623.556Z"/>
    </g>
  </g>
</svg>
