<svg xmlns="http://www.w3.org/2000/svg" width="24.406" height="24.406" viewBox="0 0 24.406 24.406">
  <defs>
    <style>
      .cls-1 {
        fill: #ac49f2;
      }

      .cls-2 {
        fill: #fff;
      }
    </style>
  </defs>
  <g id="white_paper_download" transform="translate(-1600.964 -50.108)">
    <circle id="Ellipse_20" data-name="Ellipse 20" class="cls-1" cx="12.203" cy="12.203" r="12.203" transform="translate(1600.964 50.108)"/>
    <g id="Group_146" data-name="Group 146">
      <g id="Group_145" data-name="Group 145">
        <g id="Group_144" data-name="Group 144">
          <path id="Path_70" data-name="Path 70" class="cls-2" d="M1613.426,66.718v-5.7h-.519v5.7l-1.659-1.659-.415.363,2.333,2.333,2.333-2.333-.415-.363Z"/>
          <path id="Path_71" data-name="Path 71" class="cls-2" d="M1614.981,55.311h-5.7a1.04,1.04,0,0,0-1.037,1.037V68.274a1.04,1.04,0,0,0,1.037,1.037h7.778a1.041,1.041,0,0,0,1.037-1.037V58.941Zm0,.778,2.438,2.852H1615.5a.559.559,0,0,1-.519-.519Zm2.593,12.185a.519.519,0,0,1-.518.518h-7.778a.52.52,0,0,1-.519-.518V56.348a.521.521,0,0,1,.519-.519h5.185v2.593a1.041,1.041,0,0,0,1.037,1.037h2.074Z"/>
        </g>
      </g>
    </g>
  </g>
</svg>
